<svg xmlns="http://www.w3.org/2000/svg" width="42" height="29" viewBox="0 0 42 29">
  <g id="그룹_46" data-name="그룹 46" transform="translate(1 1)">
    <path id="패스_65" data-name="패스 65" d="M-2231.07,3468.146a1,1,0,0,1-.714-.3l-13.236-13.5a1,1,0,0,1,0-1.4l13.236-13.5a1,1,0,0,1,1.414-.014,1,1,0,0,1,.014,1.414l-12.55,12.8,12.55,12.8a1,1,0,0,1-.014,1.414A1,1,0,0,1-2231.07,3468.146Z" transform="translate(2244.307 -3440.146)" fill="#222"/>
    <path id="패스_69" data-name="패스 69" d="M40,1H0A1,1,0,0,1-1,0,1,1,0,0,1,0-1H40a1,1,0,0,1,1,1A1,1,0,0,1,40,1Z" transform="translate(0 13.5)" fill="#222"/>
  </g>
</svg>
