<svg xmlns="http://www.w3.org/2000/svg" width="18" height="14" viewBox="0 0 18 14">
  <g id="그룹_36323" data-name="그룹 36323" transform="translate(-751.999 -1876)">
    <path id="패스_581" data-name="패스 581" d="M15181.706,2717.6a1,1,0,0,1-.707-.293l-6-6a1,1,0,0,1,0-1.414l6-6a1,1,0,0,1,1.414,1.414l-5.293,5.293,5.293,5.293a1,1,0,0,1-.707,1.707Z" transform="translate(-14422.707 -827.6)" fill="#999"/>
    <path id="패스_70840" data-name="패스 70840" d="M15181.706,2717.6a1,1,0,0,1-.707-.293l-6-6a1,1,0,0,1,0-1.414l6-6a1,1,0,0,1,1.414,1.414l-5.293,5.293,5.293,5.293a1,1,0,0,1-.707,1.707Z" transform="translate(-14412.707 -827.6)" fill="#999"/>
  </g>
</svg>