<svg xmlns="http://www.w3.org/2000/svg" width="12" height="9" viewBox="0 0 12 9">
  <g id="그룹_37755" data-name="그룹 37755" transform="translate(-935.5 243.5) rotate(-90)">
    <path id="패스_57940" data-name="패스 57940" d="M.5,9a.5.5,0,0,1-.354-.854L3.793,4.5.146.854A.5.5,0,0,1,.854.146l4,4a.5.5,0,0,1,0,.707l-4,4A.5.5,0,0,1,.5,9Z" transform="translate(243.5 935.5) rotate(90)" fill="#fff"/>
    <path id="패스_57941" data-name="패스 57941" d="M.5,9a.5.5,0,0,1-.354-.854L3.793,4.5.146.854A.5.5,0,0,1,.854.146l4,4a.5.5,0,0,1,0,.707l-4,4A.5.5,0,0,1,.5,9Z" transform="translate(243.5 942.5) rotate(90)" fill="#fff"/>
  </g>
</svg>
