<svg xmlns="http://www.w3.org/2000/svg" xmlns:xlink="http://www.w3.org/1999/xlink" width="795" height="241" viewBox="0 0 795 241">
  <defs>
    <clipPath id="clip-path">
      <rect id="사각형_14365" data-name="사각형 14365" width="795" height="241" transform="translate(1125 1254)" fill="#f5f5f5"/>
    </clipPath>
  </defs>
  <g id="마스크_그룹_72" data-name="마스크 그룹 72" transform="translate(-1125 -1254)" opacity="0.508" clip-path="url(#clip-path)">
    <path id="패스_71554" data-name="패스 71554" d="M-234.155-131.941h52.4c-4.344-39.365-39.908-67.328-86.061-67.328-52.939,0-95.562,36.65-95.562,101.264,0,62.17,38.822,100.721,95.834,100.721,51.311,0,87.961-31.492,87.961-84.975v-26.877h-86.332v36.922h36.379c-.407,18.325-12.9,29.863-37.465,29.863-28.234,0-43.166-20.9-43.166-56.2,0-35.021,16.018-55.654,43.438-55.654C-249.358-154.2-237.685-146.059-234.155-131.941Zm131.941-64.613H-153.8V0h51.582ZM-27.013,0l11.674-38.551H50.632L62.306,0H117.96L52.8-196.555H-17.511L-82.938,0ZM-3.394-77.645,16.7-143.615h1.629L38.687-77.645Zm140.9-118.91V0H188V-116.467h1.629L234.155-1.357H265.1L309.9-115.652h1.629V0h50.5V-196.555H297.683L250.987-82.26h-2.443l-46.7-114.295Z" transform="translate(1579 1479)" fill="#f5f5f5"/>
  </g>
</svg>
