<svg xmlns="http://www.w3.org/2000/svg" xmlns:xlink="http://www.w3.org/1999/xlink" width="1920" height="840" viewBox="0 0 1920 840">
  <defs>
    <linearGradient id="linear-gradient" x1="0.32" y1="0.212" x2="0.955" y2="0.987" gradientUnits="objectBoundingBox">
      <stop offset="0" stop-color="#003875"/>
      <stop offset="1" stop-color="#092136"/>
    </linearGradient>
    <clipPath id="clip-path">
      <rect id="사각형_11932" data-name="사각형 11932" width="1920" height="840" transform="translate(0 2101)" fill="#a1abb7"/>
    </clipPath>
  </defs>
  <rect id="사각형_164" data-name="사각형 164" width="1920" height="840" fill="url(#linear-gradient)"/>
  <g id="마스크_그룹_31" data-name="마스크 그룹 31" transform="translate(0 -2101)" clip-path="url(#clip-path)">
    <path id="패스_71338" data-name="패스 71338" d="M249.006,997.369C249.006,860.048,137.77,747.915,0,747.915V0C551.079,0,997.369,446.739,997.369,997.369Z" transform="translate(-192.369 2299.156)" fill="#00b4f0" fill-rule="evenodd" opacity="0.079"/>
    <path id="패스_71339" data-name="패스 71339" d="M0,509.1V0H370Z" transform="translate(1629 2488.426)" fill="#00b4f0" fill-rule="evenodd" opacity="0.149"/>
    <path id="패스_71340" data-name="패스 71340" d="M0,359.1C0,161.183,161.173.01,359.989.01V252c-59.645,0-108,48.352-108,107.1Z" transform="translate(420.006 2019.941)" fill="rgba(0,0,0,0.35)" fill-rule="evenodd" opacity="0.463"/>
    <path id="패스_71341" data-name="패스 71341" d="M84.419,169.8C38.225,169.8,0,132.533,0,84.419,0,38.225,38.225,0,84.419,0,132.533,0,169.8,38.225,169.8,84.419,169.8,132.533,132.533,169.8,84.419,169.8Zm0-133.4c-25.564,0-48.026,22.462-48.026,48.026a48.019,48.019,0,0,0,48.026,48.026c27.485,0,48.026-20.541,48.026-48.026A48.019,48.019,0,0,0,84.419,36.393Z" transform="translate(1517.9 2042.358)" fill="#f0786e" fill-rule="evenodd" opacity="0.13"/>
  </g>
  <path id="패스_71337" data-name="패스 71337" d="M122.5,91.407l6.25-6.226,5.35,6.226-5.35,6.225Zm0-28.39,6.25-6.226,5.35,6.226-5.35,6.225Zm0-28.39,6.25-6.226,5.35,6.226-5.35,6.225Zm0-28.391L128.75.011l5.35,6.225-5.35,6.226ZM98,119.8l6.25-6.226,6.25,6.226-6.25,6.225Zm0-28.39,6.25-6.226,6.25,6.226-6.25,6.225Zm0-28.39,6.25-6.226,6.25,6.226-6.25,6.225Zm0-28.39,6.25-6.226,6.25,6.226-6.25,6.225ZM98,6.236,104.25.011l6.25,6.225-6.25,6.226ZM73.5,119.8l6.25-6.226L85.1,119.8l-5.35,6.225Zm0-28.39,6.25-6.226,5.35,6.226-5.35,6.225Zm0-28.39,6.25-6.226,5.35,6.226-5.35,6.225Zm0-28.39L79.75,28.4l5.35,6.226-5.35,6.225Zm0-28.391L79.75.011,85.1,6.236l-5.35,6.226ZM49,119.8l6.25-6.226L61.5,119.8l-6.25,6.225Zm0-28.39,6.25-6.226,6.25,6.226-6.25,6.225Zm0-28.39,6.25-6.226,6.25,6.226-6.25,6.225Zm0-28.39L55.25,28.4l6.25,6.226-6.25,6.225ZM49,6.236,55.25.011,61.5,6.236l-6.25,6.226ZM24.5,119.8l6.25-6.226L37,119.8l-6.249,6.225Zm0-28.39,6.25-6.226L37,91.407,30.75,97.632Zm0-28.39,6.25-6.226L37,63.017,30.75,69.242Zm0-28.39L30.75,28.4,37,34.627,30.75,40.852Zm0-28.391L30.75.011,37,6.236,30.75,12.462ZM0,119.8l6.25-6.226L12.5,119.8,6.25,126.022Zm0-28.39,6.25-6.226L12.5,91.407,6.25,97.632Zm0-28.39,6.25-6.226L12.5,63.017,6.25,69.242Zm0-28.39L6.25,28.4,12.5,34.627,6.25,40.852ZM0,6.236,6.25.011,12.5,6.236,6.25,12.462ZM134.1,119.8l-5.35,6.225L122.5,119.8l6.25-6.226Z" transform="translate(1060 35.479)" fill="#fff" fill-rule="evenodd" opacity="0.183"/>
</svg>
