<svg xmlns="http://www.w3.org/2000/svg" xmlns:xlink="http://www.w3.org/1999/xlink" width="107.111" height="32.999" viewBox="0 0 107.111 32.999">
  <defs>
    <clipPath id="clip-path">
      <rect id="사각형_11931" data-name="사각형 11931" width="107.111" height="32.999" fill="none"/>
    </clipPath>
  </defs>
  <g id="그룹_37503" data-name="그룹 37503" transform="translate(0 0)">
    <g id="그룹_37502" data-name="그룹 37502" transform="translate(0 0)" clip-path="url(#clip-path)">
      <path id="패스_71264" data-name="패스 71264" d="M151.534,15.145V18.6h-.909V15.145h-2.343v.274h0c.236,0,.455.4.455.828v7.436h-4.834V17.031h3.219V15.457h-5.7v.28h0c.233,0,.458.4.458.823v8.694h6.855v2.494h1.885V20.158h.909v7.591h2.023v-12.6h-2.023Z" transform="translate(-75.229 -8.056)" fill="#fff"/>
      <path id="패스_71265" data-name="패스 71265" d="M214.186,25.935V15.86h-9.919v1.571h7.894v8.5h-1.613v-4.43h-1.93v4.43h-1.092v-4.43h-2.254v.279h0c.235,0,.456.4.456.823v3.328H203.6v1.576h11.811V25.935Z" transform="translate(-108.298 -8.436)" fill="#fff"/>
      <path id="패스_71266" data-name="패스 71266" d="M131.585,15.145v12.6h2.024v-12.6h-2.024Z" transform="translate(-69.993 -8.056)" fill="#fff"/>
      <path id="패스_71267" data-name="패스 71267" d="M123.029,15.145v.274h0c.231,0,.458.4.458.828V18.6h-2.012v1.556h2.012v7.591h1.893v-12.6h-2.354Z" transform="translate(-64.617 -8.056)" fill="#fff"/>
      <path id="패스_71268" data-name="패스 71268" d="M112.692,20.891l-.108-.082.024-.054a10.282,10.282,0,0,0,1.236-4.949V15.8h-2.927v.283c.026,0,.64.147.64,1.173a9.563,9.563,0,0,1-3.287,6.54c.092.086.865.829.934.892l.006,0a9.822,9.822,0,0,0,2.522-2.551l.043-.058.057.047a12.822,12.822,0,0,1,2.617,2.971c.118-.16,1.054-1.465,1.107-1.544a15.641,15.641,0,0,0-2.866-2.659" transform="translate(-57.592 -8.404)" fill="#fff"/>
      <path id="패스_71269" data-name="패스 71269" d="M175.076,34.443h8.446v2.721h2.024v-4.3h-10.47Z" transform="translate(-93.127 -17.483)" fill="#fff"/>
      <path id="패스_71270" data-name="패스 71270" d="M194.623,15.116h-2.484v.278h0c.236,0,.458.4.458.825v6.13h2.025V20.13h1.985V18.577h-1.985Z" transform="translate(-102.203 -8.04)" fill="#fff"/>
      <path id="패스_71271" data-name="패스 71271" d="M176.717,20.406a1.738,1.738,0,0,1-1.6-1.854,1.613,1.613,0,1,1,3.189,0,1.741,1.741,0,0,1-1.593,1.854m-3.589-1.756a3.63,3.63,0,0,0,7.176,0,2.9,2.9,0,0,0-1.214-2.3h1.635V14.78H177.9V13.712h-2.479v.275h0c.2,0,.406.331.44.716l.007.077h-3.02v1.571h1.5a2.9,2.9,0,0,0-1.216,2.3" transform="translate(-91.94 -7.294)" fill="#fff"/>
      <path id="패스_71272" data-name="패스 71272" d="M85.591,33.134h-2.48v.278c.234,0,.46.4.46.821v2.988h9.65V35.65H85.591Z" transform="translate(-44.209 -17.624)" fill="#fff"/>
      <path id="패스_71273" data-name="패스 71273" d="M81.759,18.949a1.788,1.788,0,1,1,3.527,0,1.788,1.788,0,1,1-3.527,0m7.483-.655v1.094H87.283a3.472,3.472,0,0,0,.031-.433,3.218,3.218,0,0,0-.07-.661Zm-2.6,2.664h2.6v3.281h2.021v-9.1h-2.48v.274h0c.235,0,.458.406.458.827v.489H86.457a3.9,3.9,0,0,0-2.936-1.294,3.666,3.666,0,0,0-3.786,3.522,3.665,3.665,0,0,0,3.786,3.52,3.876,3.876,0,0,0,3.116-1.517" transform="translate(-42.413 -8.052)" fill="#fff"/>
      <path id="패스_71274" data-name="패스 71274" d="M93.88,53.439c-1.064,0-1.809-.907-1.809-2.21,0-1.6.9-1.843,1.439-1.843,1.015,0,1.723.884,1.723,2.148,0,1.718-.946,1.9-1.353,1.9m-.2-4.456a2.392,2.392,0,0,0-2.561,2.434,2.364,2.364,0,0,0,2.5,2.436,2.447,2.447,0,0,0,2.57-2.544,2.248,2.248,0,0,0-2.51-2.327" transform="translate(-48.47 -26.055)" fill="#fff"/>
      <path id="패스_71275" data-name="패스 71275" d="M117.764,50.173H117.5a.818.818,0,0,0-.145-.522.711.711,0,0,0-.618-.276c-.405,0-.667.223-.667.57,0,.236.1.43.622.83l.17.126c.749.584,1.015,1,1.015,1.592a1.284,1.284,0,0,1-.594,1.1,2.157,2.157,0,0,1-2.049,0V52.426h.243s.049.348.082.452a.789.789,0,0,0,.812.574.688.688,0,0,0,.76-.637c0-.291-.1-.558-.576-.927l-.278-.218a1.874,1.874,0,0,1-.921-1.482c0-.708.592-1.2,1.459-1.2a1.648,1.648,0,0,1,.948.179Z" transform="translate(-61.296 -26.055)" fill="#fff"/>
      <path id="패스_71276" data-name="패스 71276" d="M199.747,50.173h-.262a.812.812,0,0,0-.147-.522.712.712,0,0,0-.618-.276c-.4,0-.667.223-.667.57,0,.236.1.43.623.83l.17.126c.752.584,1.018,1,1.018,1.592a1.289,1.289,0,0,1-.6,1.1,2.149,2.149,0,0,1-2.045,0V52.426h.24s.05.348.084.452a.79.79,0,0,0,.813.574.688.688,0,0,0,.759-.637c0-.291-.1-.558-.575-.927l-.279-.218a1.875,1.875,0,0,1-.919-1.482c0-.708.592-1.2,1.459-1.2a1.635,1.635,0,0,1,.946.179Z" transform="translate(-104.906 -26.055)" fill="#fff"/>
      <path id="패스_71277" data-name="패스 71277" d="M125.166,49.586c.416,0,.432.228.432.543h.216v-.96h-3.022v.215h.14c.205,0,.466.062.466.412v3.375c0,.452-.127.483-.412.482h-.1v.214h3.087V52.831h-.223c0,.46-.182.62-.5.62h-.967V51.574h.9c.312,0,.32.1.32.425h.217V50.731H125.5c0,.323-.007.426-.32.426h-.9V49.586Z" transform="translate(-65.315 -26.154)" fill="#fff"/>
      <path id="패스_71278" data-name="패스 71278" d="M181.679,49.586c.416,0,.432.228.432.543h.217v-.96H179.3v.215h.139c.208,0,.467.062.467.412,0,.437,0,3.375,0,3.375,0,.452-.132.483-.416.482h-.1v.214h3.085V52.831h-.222c0,.46-.182.62-.5.62h-.968V51.574h.9c.308,0,.317.1.317.425h.216V50.731h-.216c0,.323-.009.426-.317.426h-.9V49.586Z" transform="translate(-95.376 -26.154)" fill="#fff"/>
      <path id="패스_71279" data-name="패스 71279" d="M133.693,53.654c-.241,0-.45-.036-.45-.311V49.7c0-.3.143-.319.515-.319v-.214H131.84v.215h.111c.154,0,.418.042.418.318v3.641c0,.3-.155.309-.529.309v.214h2.07v-.213Z" transform="translate(-70.128 -26.154)" fill="#fff"/>
      <path id="패스_71280" data-name="패스 71280" d="M166.192,53.654c-.239,0-.449-.036-.449-.311V49.7c0-.3.142-.319.515-.319v-.214h-1.916v.215h.11c.154,0,.417.042.417.318v3.641c0,.3-.157.309-.527.309v.214h2.067v-.213Z" transform="translate(-87.417 -26.154)" fill="#fff"/>
      <path id="패스_71281" data-name="패스 71281" d="M205.82,53.654c-.242,0-.451-.036-.451-.311V49.7c0-.3.144-.319.516-.319v-.214h-1.916v.215h.109c.157,0,.418.042.418.318v3.641c0,.3-.155.309-.527.309v.214h2.068v-.213Z" transform="translate(-108.495 -26.154)" fill="#fff"/>
      <path id="패스_71282" data-name="패스 71282" d="M83.006,49.384h.1v-.214H81.359v.214a.905.905,0,0,1,.389.077,1.465,1.465,0,0,1,.4.425c.215.32,1.023,1.65,1.062,1.739a1.216,1.216,0,0,1,.134.614v1.022c0,.39-.212.39-.514.39v.218h2.057v-.217h-.151c-.282,0-.515-.023-.515-.406V52.239a1.4,1.4,0,0,1,.088-.586,19.494,19.494,0,0,1,1.151-1.916.909.909,0,0,1,.308-.282.485.485,0,0,1,.244-.072h.168v-.214H84.635v.214h.158c.066,0,.092.049.092.1a.733.733,0,0,1-.088.3c-.042.092-.865,1.574-.865,1.574s-.909-1.574-.977-1.72l-.066-.183.039-.055Z" transform="translate(-43.277 -26.154)" fill="#fff"/>
      <path id="패스_71283" data-name="패스 71283" d="M220.132,49.384h.1v-.214h-1.745v.214a.9.9,0,0,1,.389.077,1.482,1.482,0,0,1,.4.425c.216.32,1.025,1.65,1.063,1.739a1.231,1.231,0,0,1,.135.614v1.022c0,.39-.214.39-.515.39v.218h2.058v-.217h-.152c-.282,0-.514-.023-.514-.406V52.239a1.426,1.426,0,0,1,.086-.586,19.6,19.6,0,0,1,1.152-1.916.885.885,0,0,1,.308-.282.485.485,0,0,1,.244-.072h.167v-.214h-1.547v.214h.159a.091.091,0,0,1,.092.1.744.744,0,0,1-.09.3c-.042.092-.864,1.574-.864,1.574s-.909-1.574-.978-1.72l-.067-.183.043-.055Z" transform="translate(-116.218 -26.154)" fill="#fff"/>
      <path id="패스_71284" data-name="패스 71284" d="M104.517,53.652v.215H102.78v-.215c.272,0,.554.022.554-.5V49.169h.292c.549.564,3.17,3.273,3.256,3.363V49.844c0-.477-.379-.461-.614-.461v-.214h1.6v.214c-.254,0-.505-.016-.505.461v4.024h-.315l-3.233-3.3,0,2.589c0,.449.261.5.524.5Z" transform="translate(-54.671 -26.154)" fill="#fff"/>
      <path id="패스_71285" data-name="패스 71285" d="M153.795,53.652v.215h-1.736v-.215c.274,0,.552.022.552-.5V49.169h.294c.549.564,3.171,3.273,3.255,3.363V49.844c0-.477-.378-.461-.614-.461v-.214h1.6v.214c-.255,0-.506-.016-.506.461v4.024h-.312l-3.233-3.3v2.589c0,.449.262.5.525.5Z" transform="translate(-80.883 -26.154)" fill="#fff"/>
      <path id="패스_71286" data-name="패스 71286" d="M144.394,49.384c.154,0,.425.044.425.324v2.015a2.064,2.064,0,0,1-.34,1.479,1.169,1.169,0,0,1-.81.315,1.079,1.079,0,0,1-.733-.239c-.235-.2-.461-.508-.461-1.466v-2.1c0-.305.147-.326.519-.326v-.214h-1.917v.215h.111c.154,0,.418.047.418.324v2.143a2.082,2.082,0,0,0,.554,1.647,2.025,2.025,0,0,0,1.387.432,1.867,1.867,0,0,0,1.3-.448,2.335,2.335,0,0,0,.594-1.869v-1.9c0-.3.148-.326.52-.326v-.214h-1.669v.215Z" transform="translate(-75.042 -26.154)" fill="#fff"/>
      <path id="패스_71287" data-name="패스 71287" d="M209.936,53.654v.213h2.071v-.215h-.176c-.254,0-.491-.022-.491-.313V49.591h.921c.417,0,.465.227.508.54h.252l-.139-.962h-3.959l-.139.962h.249c.043-.313.094-.54.509-.54h.92v3.754c0,.267-.118.308-.4.308Z" transform="translate(-111.057 -26.154)" fill="#fff"/>
      <path id="패스_71288" data-name="패스 71288" d="M189.963,51.489a.574.574,0,0,1-.407.1h-.433V49.553h.294c.326,0,.883.217.883,1.059a1.024,1.024,0,0,1-.337.877m2.313,2.154a1.182,1.182,0,0,1-.655-.4c-.311-.325-.665-.774-1.111-1.336l-.185-.23a1.742,1.742,0,0,0,.788-1.371,1.07,1.07,0,0,0-.432-.86,2.071,2.071,0,0,0-1.15-.276h-1.809v.215h.1c.151,0,.424.043.424.323v3.638c0,.268-.124.308-.415.308h-.114v.214h2.069v-.215h-.2c-.241,0-.464-.033-.464-.313V51.966h.552l.617.867a2.948,2.948,0,0,0,.852.908,1.27,1.27,0,0,0,.674.127h.623V53.66c-.117-.009-.166-.017-.166-.017" transform="translate(-99.852 -26.154)" fill="#fff"/>
      <path id="패스_71289" data-name="패스 71289" d="M173.855,49.386v-.213h-1.567v.213h.178l.122.09a.777.777,0,0,1-.052.311s-1.053,2.692-1.107,2.829c-.047-.116-1.121-2.975-1.121-2.975l-.03-.169a.146.146,0,0,1,.132-.088h.178v-.212H168.81v.212a.81.81,0,0,1,.369.081.894.894,0,0,1,.279.426l1.681,4.03h.2l1.856-4.179s.166-.362.489-.356Z" transform="translate(-89.794 -26.156)" fill="#fff"/>
      <path id="패스_71290" data-name="패스 71290" d="M0,16.5A16.5,16.5,0,1,0,16.5,0,16.518,16.518,0,0,0,0,16.5" transform="translate(0 0)" fill="#fff"/>
      <path id="패스_71291" data-name="패스 71291" d="M1.044,17.048A16.013,16.013,0,1,1,17.055,33.065,16.031,16.031,0,0,1,1.044,17.048" transform="translate(-0.555 -0.551)" fill="#002a5f"/>
      <path id="패스_71292" data-name="패스 71292" d="M21.989,33.658A11.669,11.669,0,1,1,33.661,21.99,11.669,11.669,0,0,1,21.989,33.658" transform="translate(-5.49 -5.489)" fill="#fff"/>
      <path id="패스_71293" data-name="패스 71293" d="M6.417,42.833a.45.45,0,1,0,.449-.448.451.451,0,0,0-.449.448" transform="translate(-3.413 -22.545)" fill="#fff"/>
      <path id="패스_71294" data-name="패스 71294" d="M63.407,42.96a.455.455,0,1,1-.455-.458.456.456,0,0,1,.455.458" transform="translate(-33.243 -22.608)" fill="#fff"/>
      <path id="패스_71295" data-name="패스 71295" d="M6.7,25.1a.965.965,0,0,1-1.314.527c-.76-.24-.736-.7-.657-.958a.772.772,0,0,1,.388-.46A1.164,1.164,0,0,1,6,24.18a1.057,1.057,0,0,1,.662.462A.606.606,0,0,1,6.7,25.1M6.04,23.7a1.105,1.105,0,0,0-.866.047,1.289,1.289,0,0,0-.6.785,1.272,1.272,0,0,0,.051.979,1.215,1.215,0,0,0,.713.588,1.163,1.163,0,0,0,1.514-.814A1.206,1.206,0,0,0,6.04,23.7" transform="translate(-2.393 -12.572)" fill="#fff"/>
      <path id="패스_71296" data-name="패스 71296" d="M13.026,14.773l-.417-.4.082-.085.19.123a.387.387,0,0,0,.481-.1.341.341,0,0,0,.034-.489.552.552,0,0,0-.529-.111l-.174.025a.923.923,0,0,1-.844-.178.636.636,0,0,1,.067-.932c.249-.26.388-.279.388-.279l.361.346-.088.094a.365.365,0,0,0-.237-.126.361.361,0,0,0-.312.126.291.291,0,0,0-.022.435c.084.079.186.111.509.06l.1-.017a.965.965,0,0,1,.916.179.635.635,0,0,1,.189.591.858.858,0,0,1-.246.443.882.882,0,0,1-.453.288" transform="translate(-6.211 -6.571)" fill="#fff"/>
      <path id="패스_71297" data-name="패스 71297" d="M56.829,17.531l.477-.327.067.1-.163.16a.386.386,0,0,0-.006.49.339.339,0,0,0,.471.134c.119-.081.2-.2.219-.494l.01-.173a.93.93,0,0,1,.349-.79.636.636,0,0,1,.9.26.811.811,0,0,1,.191.436l-.413.282-.073-.106a.363.363,0,0,0,.173-.207.352.352,0,0,0-.059-.329.289.289,0,0,0-.418-.115c-.1.068-.15.161-.167.486l-.005.105c-.029.469-.124.694-.367.86a.635.635,0,0,1-.616.063,1.062,1.062,0,0,1-.569-.837" transform="translate(-30.226 -8.794)" fill="#fff"/>
      <path id="패스_71298" data-name="패스 71298" d="M16.43,9.776c.122-.09.156-.053.252.076l.084-.066-.374-.5-.086.065c.094.127.123.17,0,.263l-.356.265-.467-.622.352-.262c.164-.122.238-.039.33.088l.088-.065-.284-.381-1.2.9.065.088c.08-.061.231-.191.36-.02l1,1.338c.15.2.076.233-.065.337l.071.093,1.223-.913-.311-.412-.088.065c.137.183.111.3-.014.395-.082.062-.384.286-.384.286l-.554-.741v0Z" transform="translate(-7.858 -4.593)" fill="#fff"/>
      <path id="패스_71299" data-name="패스 71299" d="M50.528,9.475c.127.085.1.129.012.26l.09.064.349-.524-.09-.06c-.088.133-.12.174-.247.09l-.37-.25.433-.645.364.244c.169.115.115.211.027.34l.089.061.264-.394-1.241-.832-.061.089c.084.057.256.154.137.334s-.929,1.387-.929,1.387c-.139.207-.194.147-.34.051l-.066.1,1.27.85.286-.428-.091-.063c-.127.19-.246.205-.375.119L49.64,10l.516-.77v0Z" transform="translate(-26.037 -4.164)" fill="#fff"/>
      <path id="패스_71300" data-name="패스 71300" d="M20.228,6.814c-.066-.133,0-.17.16-.254l-.051-.1-.845.433.051.1s.214-.152.3.02l.82,1.6c.07.131,0,.172-.16.256l.051.1.909-.467-.048-.1c-.136.071-.284.171-.364.012s-.825-1.6-.825-1.6" transform="translate(-10.369 -3.437)" fill="#fff"/>
      <path id="패스_71301" data-name="패스 71301" d="M28.839,4.612l-.185-.925c-.028-.147.041-.164.221-.2l-.022-.105-.808.162.022.1s.248-.09.286.1l.2.979a1.011,1.011,0,0,1-.021.749.58.58,0,0,1-.36.235.549.549,0,0,1-.381-.048c-.132-.069-.27-.2-.363-.666l-.206-1.022c-.028-.145.041-.164.224-.2l-.024-.106-.93.186.02.105s.25-.087.288.1L27,5.1a1.026,1.026,0,0,0,.429.746,1,1,0,0,0,.713.077.923.923,0,0,0,.585-.346,1.152,1.152,0,0,0,.108-.964" transform="translate(-14.089 -1.798)" fill="#fff"/>
      <path id="패스_71302" data-name="패스 71302" d="M41.731,4.32c.035-.147.106-.135.285-.094l.024-.105-.925-.215-.022.105s.26.022.218.211l-.406,1.753c-.033.145-.109.132-.288.09l-.025.105,1,.231.025-.1c-.151-.034-.327-.055-.287-.226s.4-1.753.4-1.753" transform="translate(-21.592 -2.077)" fill="#fff"/>
      <path id="패스_71303" data-name="패스 71303" d="M61.248,21.095c.134-.066.17,0,.251.16l.1-.046-.417-.852-.1.048s.151.216-.025.3l-1.613.795c-.135.065-.172,0-.254-.168l-.1.049.451.918.1-.047c-.067-.137-.164-.286-.005-.364l1.615-.794" transform="translate(-31.432 -10.828)" fill="#fff"/>
      <path id="패스_71304" data-name="패스 71304" d="M62.983,24.276l-.475.068.035.119c.157-.024.27-.033.329.165.011.037.033.109.131.439-.265.077-1.782.526-1.782.526-.143.043-.168-.031-.22-.207l-.105.03.291.982.1-.029c-.043-.148-.115-.313.054-.362l1.782-.527c.1.329.119.4.131.436.057.2-.042.254-.188.318l.037.119.435-.2Z" transform="translate(-32.391 -12.913)" fill="#fff"/>
      <path id="패스_71305" data-name="패스 71305" d="M54.935,12.575a.5.5,0,0,1-.425.189c-.059-.008-.092-.026-.174-.107l-.153-.151.706-.715.1.1a.455.455,0,0,1-.058.681m.539-.278a1,1,0,0,0-.311-.5l-.637-.631-.074.079s.213.155.076.293L53.262,12.82c-.1.106-.162.055-.294-.074l-.075.079.728.718.074-.073c-.109-.109-.25-.219-.125-.344l.479-.486.195.193-.086.52a1.451,1.451,0,0,0-.016.616.655.655,0,0,0,.194.279l.22.215.069-.07-.051-.063a.584.584,0,0,1-.091-.369c.005-.223.036-.5.073-.858l.018-.145a.861.861,0,0,0,.753-.208.528.528,0,0,0,.147-.452" transform="translate(-28.135 -5.941)" fill="#fff"/>
      <path id="패스_71306" data-name="패스 71306" d="M4.791,30.783a.713.713,0,0,1-.286-.067,9.746,9.746,0,0,1-.892-.655.436.436,0,0,1-.127-.162l-.022-.123.007-.084-.107-.011-.073.762.112.01.007-.079.052-.036.14.053.736.495s-.816.379-.892.4l-.092.024-.025-.023,0-.017,0-.067L3.227,31.2l-.078.861.106.009a.441.441,0,0,1,.054-.189.71.71,0,0,1,.227-.178c.168-.092.859-.43.9-.445a.639.639,0,0,1,.309-.039l.5.048c.193.016.188.123.175.27l.1.009.092-1.014-.1-.008c-.016.168-.016.329-.238.308l-.495-.047" transform="translate(-1.675 -15.788)" fill="#fff"/>
      <path id="패스_71307" data-name="패스 71307" d="M62.909,31.276a.653.653,0,0,1,.291.015,9.569,9.569,0,0,1,1,.472.436.436,0,0,1,.155.139l.044.117.008.082.108-.012-.074-.759-.112.01.01.078-.044.045a.382.382,0,0,1-.149-.023l-.817-.35s.731-.526.8-.565l.086-.041.029.018,0,.014.011.072.105-.012-.086-.858-.106.01a.444.444,0,0,1-.019.2.681.681,0,0,1-.189.217c-.148.121-.763.583-.8.607a.627.627,0,0,1-.3.1l-.5.049c-.193.021-.209-.086-.223-.234l-.1.01.1,1.012.1-.011c-.017-.169-.047-.327.176-.345l.5-.051" transform="translate(-33 -15.807)" fill="#fff"/>
      <path id="패스_71308" data-name="패스 71308" d="M9.869,17.675l-.08.133-2.231.5,1.09.673c.231.143.308-.037.389-.166l.094.058-.451.73-.094-.057c.071-.116.157-.226-.062-.361L6.845,18.151l.076-.123,2.262-.5-1.131-.7c-.2-.123-.289.041-.352.141l-.092-.057.418-.675.093.059c-.065.107-.141.205.059.33l1.693,1.044" transform="translate(-3.641 -8.639)" fill="#fff"/>
      <path id="패스_71309" data-name="패스 71309" d="M35.841,5.641l-.154-.01L34.191,3.9l-.078,1.279c-.017.27.176.256.33.264l-.007.11L33.577,5.5l.006-.112c.137.01.274.032.29-.225s.119-1.967.119-1.967l.143.01c.254.293,1.468,1.71,1.509,1.757,0,0,.066-1.09.08-1.327S35.55,3.4,35.435,3.4l.005-.108.792.047-.008.111c-.126-.008-.248-.028-.264.207s-.119,1.987-.119,1.987" transform="translate(-17.86 -1.702)" fill="#fff"/>
      <path id="패스_71310" data-name="패스 71310" d="M47.648,5.928l.026-.108-.692-.3-.044.1.081.034.042.06-.086.133L46.33,6.5l-.416.413c0-.059.042-.89.061-1.251l.017-.317.022-.083.074-.008.081.036.043-.1-.806-.352-.043.1a.417.417,0,0,1,.153.108.473.473,0,0,1,.042.249l-.035,2.161.091.041L46.84,6.355l.44-.4a.3.3,0,0,1,.292-.061Z" transform="translate(-24.129 -2.57)" fill="#fff"/>
      <path id="패스_71311" data-name="패스 71311" d="M34.5,62.126v.71h-.188v-.71h-.481v.057c.047,0,.093.083.093.17v1.531h-1V62.513h.661v-.321H32.419v.056c.048,0,.1.08.1.17v1.79h1.41v.513h.389V63.159H34.5v1.562h.416V62.126Z" transform="translate(-17.244 -33.046)" fill="#fff"/>
      <path id="패스_71312" data-name="패스 71312" d="M57.534,52.257c-.332-.278-1.578-1.312-1.6-1.326h0l-1.3,1.57.248.207,1.04-1.253s1.047.87,1.346,1.12l-.2.247-.7-.583-.255.306.7.582-.137.164-.7-.582-.3.356.046.036c.031-.037.124-.019.19.036l.528.438-.3.359.25.207,1.553-1.871-.251-.209c-.005.01-.07.091-.16.2" transform="translate(-29.06 -27.091)" fill="#fff"/>
      <path id="패스_71313" data-name="패스 71313" d="M23.524,60.037,22.441,62.4l.378.173L23.9,60.211h0Z" transform="translate(-11.937 -31.935)" fill="#fff"/>
      <path id="패스_71314" data-name="패스 71314" d="M22.391,59.473l-.024.052h0c.043.02.051.114.014.194l-.2.438-.4-.182-.135.3.4.18-.653,1.42.333.154,1.087-2.358,0,0Z" transform="translate(-11.38 -31.635)" fill="#fff"/>
      <path id="패스_71315" data-name="패스 71315" d="M19.985,59.767l-.012-.025.008-.008a2.1,2.1,0,0,0,.657-.819l-.548-.252-.022.051c0,.005.106.084.018.275h0a1.976,1.976,0,0,1-1.179.939l.1.249h0a2.034,2.034,0,0,0,.692-.26l.012-.007.008.013a2.665,2.665,0,0,1,.234.781l.34-.192a3.254,3.254,0,0,0-.308-.745" transform="translate(-10.058 -31.204)" fill="#fff"/>
      <path id="패스_71316" data-name="패스 71316" d="M46.562,62.98l1.568-.751.239.5.378-.18-.382-.8-1.945.934Z" transform="translate(-24.691 -32.848)" fill="#fff"/>
      <path id="패스_71317" data-name="패스 71317" d="M48.469,58.461l-.46.221.023.051c.045-.022.122.034.159.112l.548,1.138.374-.18-.2-.425.368-.177-.125-.264-.367.178Z" transform="translate(-25.537 -31.096)" fill="#fff"/>
      <path id="패스_71318" data-name="패스 71318" d="M45.728,60.723a.378.378,0,1,1,.165-.5.372.372,0,0,1-.165.5M44.9,60.7a.745.745,0,0,0,1.333-.641.613.613,0,0,0-.4-.323c.161-.077.272-.132.278-.136l-.139-.293-.526.254-.094-.2-.461.221.025.053h0c.039-.017.1.023.144.093l.009.013-.561.27.139.291c.009,0,.109-.051.254-.121a.623.623,0,0,0,0,.518" transform="translate(-23.673 -31.549)" fill="#fff"/>
      <path id="패스_71319" data-name="패스 71319" d="M10.244,53.71h0l-.337-.383-.043.037c.031.037,0,.125-.065.183l-.465.4,1.305,1.5.245-.213L9.853,54.053Z" transform="translate(-4.965 -28.366)" fill="#fff"/>
      <path id="패스_71320" data-name="패스 71320" d="M11.611,51.589a.388.388,0,1,1-.061.567.4.4,0,0,1,.061-.567m1.136,1.085-.17.147-.264-.3.064-.05.1-.106c.117.137.271.312.271.312m-.765-.042.35.4-.506.444.272.312,1.412-1.232-.336-.385-.043.038c.033.037,0,.126-.065.183l-.073.066s-.316-.359-.386-.441a.816.816,0,0,0-.2-.612.72.72,0,1,0-1.081.943.792.792,0,0,0,.657.281" transform="translate(-5.915 -27.196)" fill="#fff"/>
      <path id="패스_71321" data-name="패스 71321" d="M33.3,23.275a1.715,1.715,0,1,0,1.716,1.714A1.715,1.715,0,0,0,33.3,23.275" transform="translate(-16.8 -12.38)" fill="#002a5f"/>
      <path id="패스_71322" data-name="패스 71322" d="M26.4,48.509a17.35,17.35,0,0,0,4.145,2.616,17.248,17.248,0,0,0,4.144-2.617l-4.144-4.152Z" transform="translate(-14.042 -23.594)" fill="#002a5f"/>
      <path id="패스_71323" data-name="패스 71323" d="M25.667,23.606a3.349,3.349,0,1,1,3.353-3.349,3.351,3.351,0,0,1-3.353,3.349m8.435-.924V16.957s-4.882.157-8.435-2.576a14.737,14.737,0,0,1-8.434,2.576v5.725a15.65,15.65,0,0,0,.182,2.573,45.785,45.785,0,0,1,16.5,0,15.74,15.74,0,0,0,.182-2.573" transform="translate(-9.166 -7.649)" fill="#002a5f"/>
      <path id="패스_71324" data-name="패스 71324" d="M17.808,37.792c.037.176.078.356.125.532a12.137,12.137,0,0,0,2.548,4.942l5.493-5.5,5.493,5.5a12.181,12.181,0,0,0,2.549-4.942c.047-.176.088-.355.123-.532a45.28,45.28,0,0,0-16.331,0" transform="translate(-9.472 -19.707)" fill="#002a5f"/>
      <path id="패스_71325" data-name="패스 71325" d="M22.963,27.847h.789L23.8,27.8V26.18l-.048-.05h-.64a.2.2,0,0,0-.2.2V27.8Z" transform="translate(-12.187 -13.899)" fill="#fff"/>
      <path id="패스_71326" data-name="패스 71326" d="M20.629,27.847h.789l.049-.049v-1.47a.2.2,0,0,0-.2-.2h-.641l-.048.05V27.8Z" transform="translate(-10.947 -13.899)" fill="#fff"/>
      <path id="패스_71327" data-name="패스 71327" d="M22.452,26.729h-.166v1.607h-1l0,.018a.192.192,0,0,1-.382,0l0-.018h-1V26.729h-.166l-.051.049v1.705l.051.05h1a.406.406,0,0,0,.713,0h1l.05-.05V26.778Z" transform="translate(-10.472 -14.218)" fill="#fff"/>
      <path id="패스_71328" data-name="패스 71328" d="M47.523,29.421h-.651l-.057.057.213,1.362a.115.115,0,0,0,.113.1h.111l.112-.1.213-1.362Z" transform="translate(-24.902 -15.649)" fill="#fff"/>
      <path id="패스_71329" data-name="패스 71329" d="M46.944,25.657c.169-.147.559-.575.516-.815-.043-.262-.771-.636-.813-.92a.784.784,0,0,1,.1-.443l-.044-.01c-.015.01-.608.454-.612.761a.523.523,0,0,0,.229.375c.12.1.275.188.395.307a.478.478,0,0,1,.135.193c.059.164-.109.427-.213.551H46.4a1.163,1.163,0,0,0,.239-.418c.1-.367-.82-.459-.682-1.012l-.038-.012c-.01.006-.364.35-.365.589,0,.206.417.4.615.678l0,.176h-.372s-.089-.011-.052.074l.1.315a.079.079,0,0,0,.079.042h1.2a.082.082,0,0,0,.081-.042l.106-.319c.027-.076-.059-.07-.059-.07Z" transform="translate(-24.23 -12.483)" fill="#fff"/>
      <path id="패스_71330" data-name="패스 71330" d="M31.294,51.226c-.06.043-.369.248-.38.254l-.028.043.034.04.03-.008L31,51.533l.129-.053,0,.034v.481l0,.369-.048.067-.126.009-.037.043.051.036.2,0h.151l.205,0,.05-.036-.037-.043-.1-.009-.045-.067-.008-.369v-.306l.008-.408v-.023l-.041-.057Z" transform="translate(-16.429 -27.235)" fill="#fff"/>
      <path id="패스_71331" data-name="패스 71331" d="M33.09,51.49a.164.164,0,0,1,.177-.173.161.161,0,0,1,.159.178.229.229,0,0,1-.137.221c-.147-.083-.2-.141-.2-.227m-.221.033a.36.36,0,0,0,.217.3.421.421,0,0,0-.282.366c0,.218.174.35.439.35a.414.414,0,0,0,.464-.389.442.442,0,0,0-.274-.37.35.35,0,0,0,.217-.305c0-.171-.145-.277-.362-.277-.308,0-.42.192-.42.321m.17.662a.342.342,0,0,1,.172-.293c.137.081.256.154.256.3a.208.208,0,0,1-.211.227.223.223,0,0,1-.217-.235" transform="translate(-17.449 -27.235)" fill="#fff"/>
      <path id="패스_71332" data-name="패스 71332" d="M35.533,51.49a.166.166,0,0,1,.179-.173.158.158,0,0,1,.156.178.227.227,0,0,1-.136.221c-.145-.083-.2-.141-.2-.227m-.219.033a.358.358,0,0,0,.216.3.422.422,0,0,0-.282.366c0,.218.175.35.442.35a.413.413,0,0,0,.462-.389.443.443,0,0,0-.275-.37.344.344,0,0,0,.216-.305c0-.171-.143-.277-.362-.277-.306,0-.417.192-.417.321m.171.662a.343.343,0,0,1,.17-.293c.139.081.256.154.256.3a.208.208,0,0,1-.209.227.224.224,0,0,1-.217-.235" transform="translate(-18.749 -27.235)" fill="#fff"/>
      <path id="패스_71333" data-name="패스 71333" d="M38.364,51.239l-.106.008h-.406l-.053.041-.041.438.051.059c.112.015.4.109.4.37a.248.248,0,0,1-.25.279.176.176,0,0,1-.2-.2l-.037-.051-.043.047-.005.189v.022l.043.088h0a.455.455,0,0,0,.166.029.507.507,0,0,0,.568-.489c0-.282-.279-.43-.546-.479l.019-.162h.28c.119,0,.119.037.119.068l.039.044.039-.036.023-.216-.038-.057Z" transform="translate(-20.037 -27.253)" fill="#fff"/>
      <path id="패스_71334" data-name="패스 71334" d="M23.518,44.077a13.042,13.042,0,0,0,1.349,1.356l4.145-4.154,4.143,4.152A12.91,12.91,0,0,0,34.5,44.077l-5.493-5.5Z" transform="translate(-12.51 -20.518)" fill="#fff"/>
      <path id="패스_71335" data-name="패스 71335" d="M25.875,36.009a45.716,45.716,0,0,0-8.252.749q.038.237.086.481a45.257,45.257,0,0,1,16.332,0q.048-.244.087-.481a45.725,45.725,0,0,0-8.253-.749" transform="translate(-9.374 -19.154)" fill="#fff"/>
      <path id="패스_71336" data-name="패스 71336" d="M31.44,24.846a1.715,1.715,0,1,1,1.716-1.715,1.716,1.716,0,0,1-1.716,1.715M34.8,23.13a3.353,3.353,0,1,0-3.353,3.349A3.35,3.35,0,0,0,34.8,23.13" transform="translate(-14.941 -10.522)" fill="#fff"/>
    </g>
  </g>
</svg>
