<svg xmlns="http://www.w3.org/2000/svg" xmlns:xlink="http://www.w3.org/1999/xlink" width="294" height="91.393" viewBox="0 0 294 91.393">
  <defs>
    <linearGradient id="linear-gradient" x1="0.5" x2="0.761" y2="1" gradientUnits="objectBoundingBox">
      <stop offset="0" stop-color="#004e96"/>
      <stop offset="1" stop-color="#00203e"/>
    </linearGradient>
    <filter id="합치기_11" x="0" y="0" width="294" height="91.393" filterUnits="userSpaceOnUse">
      <feOffset dy="5" input="SourceAlpha"/>
      <feGaussianBlur stdDeviation="2.5" result="blur"/>
      <feFlood flood-opacity="0.102"/>
      <feComposite operator="in" in2="blur"/>
      <feComposite in="SourceGraphic"/>
    </filter>
  </defs>
  <g transform="matrix(1, 0, 0, 1, 0, 0)" filter="url(#합치기_11)">
    <path id="합치기_11-2" data-name="합치기 11" d="M7795.337,1755.5l-6.264-9.395c-.024-.036-.047-.073-.068-.109H7690a33,33,0,0,1,0-66h213a33,33,0,1,1,0,66h-98.006c-.021.037-.044.073-.068.109l-6.262,9.395a2,2,0,0,1-3.328,0Z" transform="translate(-7649.5 -1677.5)" fill="url(#linear-gradient)"/>
  </g>
  <path id="패스_71554" data-name="패스 71554" d="M15.508-15.957h-2.48v2.48H8.965a4.818,4.818,0,0,0-3.477-1.465A4.554,4.554,0,0,0,.762-10.312a4.534,4.534,0,0,0,4.727,4.59A4.763,4.763,0,0,0,8.965-7.187h4.063v4.219h2.48Zm.43,15.449H6.211v-3.77h-2.5V1.484H15.938ZM5.488-12.715a2.246,2.246,0,0,1,2.324,2.4A2.24,2.24,0,0,1,5.488-7.93a2.22,2.22,0,0,1-2.363-2.383A2.225,2.225,0,0,1,5.488-12.715Zm4.551,1.23h2.988v2.3H10.039a4.8,4.8,0,0,0,.137-1.133A5.069,5.069,0,0,0,10.039-11.484Zm13.477-.02v-2.949H21.094v3.066c0,3.008-.977,6.133-3.613,7.773L19-1.777a8.132,8.132,0,0,0,3.32-4.668,7.253,7.253,0,0,0,3.066,4.277L26.738-4.1C24.316-5.664,23.516-8.633,23.516-11.5Zm9.707-4.473H30.84V1.8h2.383Zm-3.73.254H27.168V-9.98h-2.3v2.031h2.3V.977h2.324Zm20.977-.254H48.105v6.855H46.387v-6.562H44.1V.938h2.285V-7.129h1.719V1.8h2.363Zm-8.242,2.051H35.605v11.7h1.23a34.221,34.221,0,0,0,6.406-.488l-.176-2.031a27.433,27.433,0,0,1-4.961.41v-7.578h4.121Zm20.7-.469H58.906v-1.68h-2.48v1.68H52.383v1.973H62.93Zm-5.273,2.539c-2.578,0-4.414,1.328-4.414,3.281s1.836,3.281,4.414,3.281,4.375-1.328,4.375-3.281S60.234-11.855,57.656-11.855Zm0,1.875c1.191,0,2.012.488,2.012,1.406,0,.9-.82,1.367-2.012,1.367s-1.992-.469-1.973-1.367C55.664-9.492,56.465-9.98,57.656-9.98Zm8.828-6h-2.5V-4.824h2.5V-9.336h2.4v-2.031h-2.4Zm0,11.895H54.512V-2.09h9.473V1.8h2.5Zm17.93-10.352H71.27v1.973H81.914a40.36,40.36,0,0,1-.605,7.734l2.441.215a43.451,43.451,0,0,0,.664-8.184ZM85.879-2.4H80.02V-7.988H77.559V-2.4H75.605V-7.988h-2.48V-2.4H69.668V-.371H85.879ZM105.9-15.2H93.555v1.973h9.863a20.839,20.839,0,0,1-.391,4.141H91.563V-7.09h6.855v2.559H93.2v1.953h10.215V1.8h2.5V-4.531h-5V-7.09h6.914V-9.082h-2.285a24.311,24.311,0,0,0,.352-4.727Zm18.32-.781h-2.363V1.8h2.363Zm-3.633.293h-2.344v5.8H115.9v2.012h2.344V.977h2.344Zm-6.113,4.473v-.957h2.7V-14.16H109.16v1.992h2.91v.957c0,3.008-.977,6.211-3.594,7.813l1.5,1.836a8.168,8.168,0,0,0,3.32-4.824,7.58,7.58,0,0,0,3.223,4.434l1.465-1.836C115.391-5.273,114.473-8.262,114.473-11.211Zm22.207-3.184h-4.023v-1.68h-2.48v1.68h-4.043v1.973H136.68Zm-5.273,2.539c-2.578,0-4.414,1.328-4.414,3.281s1.836,3.281,4.414,3.281,4.375-1.328,4.375-3.281S133.984-11.855,131.406-11.855Zm0,1.875c1.191,0,2.012.488,2.012,1.406,0,.9-.82,1.367-2.012,1.367s-1.992-.469-1.973-1.367C129.414-9.492,130.215-9.98,131.406-9.98Zm8.828-6h-2.5V-4.824h2.5V-9.336h2.4v-2.031h-2.4Zm0,11.895H128.262V-2.09h9.473V1.8h2.5Zm18.555-11.895h-2.363v6.855h-1.719v-6.562h-2.285V.938h2.285V-7.129h1.719V1.8h2.363Zm-8.242,2.051h-6.621v11.7h1.23a34.221,34.221,0,0,0,6.406-.488l-.176-2.031a27.433,27.433,0,0,1-4.961.41v-7.578h4.121Zm20.7-.469h-4.023v-1.68h-2.48v1.68H160.7v1.973H171.25Zm-5.273,2.539c-2.578,0-4.414,1.328-4.414,3.281s1.836,3.281,4.414,3.281,4.375-1.328,4.375-3.281S168.555-11.855,165.977-11.855Zm0,1.875c1.191,0,2.012.488,2.012,1.406,0,.9-.82,1.367-2.012,1.367S163.984-7.676,164-8.574C163.984-9.492,164.785-9.98,165.977-9.98Zm8.828-6h-2.5V-4.824h2.5V-9.336h2.4v-2.031h-2.4Zm0,11.895H162.832V-2.09H172.3V1.8h2.5Zm18.242-11.875h-2.5V-5.645h-3.4v1.7h3.4v1.406h2.5Zm.391,15.449H182.676V-2.949h2.5V-6.328c1.436-.107,2.891-.273,4.3-.508l-.137-1.777a101.94,101.94,0,0,1-11.406.527l.293,1.973c1.348,0,2.861-.01,4.453-.078v2.363H180.2V1.484h13.242Zm-9.727-14.844c-2.656-.02-4.473,1.289-4.473,3.184s1.836,3.125,4.473,3.125c2.578,0,4.434-1.23,4.434-3.125S186.289-15.371,183.711-15.352Zm0,1.816c1.191,0,2.051.488,2.07,1.367-.02.859-.879,1.328-2.07,1.328-1.27,0-2.129-.469-2.109-1.328C181.582-13.047,182.441-13.535,183.711-13.535Z" transform="translate(49.5 42.499)" fill="#fff"/>
</svg>
