<svg xmlns="http://www.w3.org/2000/svg" xmlns:xlink="http://www.w3.org/1999/xlink" width="54" height="54" viewBox="0 0 54 54">
  <defs>
    <clipPath id="clip-path">
      <rect id="사각형_14297" data-name="사각형 14297" width="25.976" height="26.828" fill="#0070bd"/>
    </clipPath>
  </defs>
  <circle id="타원_1324" data-name="타원 1324" cx="27" cy="27" r="27" fill="#d6ebff" opacity="0.537"/>
  <g id="그룹_37619" data-name="그룹 37619" transform="translate(14 14)">
    <rect id="사각형_14293" data-name="사각형 14293" width="4.161" height="15.211" transform="translate(20.411 11.617)" fill="#0070bd"/>
    <rect id="사각형_14294" data-name="사각형 14294" width="4.162" height="15.211" transform="translate(1.403 11.617)" fill="#0070bd"/>
    <g id="그룹_37618" data-name="그룹 37618" transform="translate(0 0)">
      <g id="그룹_37617" data-name="그룹 37617" clip-path="url(#clip-path)">
        <path id="패스_71368" data-name="패스 71368" d="M9.192,23.842a7.408,7.408,0,0,0-.339,2.224H4.688a11.509,11.509,0,0,1,1.332-5.4Z" transform="translate(-3.285 -14.482)" fill="#0070bd"/>
        <path id="패스_71369" data-name="패스 71369" d="M14.8,11.645a7.406,7.406,0,0,0-2.478,3.576l-.009-.009L9.136,12.041A11.613,11.613,0,0,1,12.2,8.353l2.58,3.27Z" transform="translate(-6.401 -5.852)" fill="#0070bd"/>
        <path id="패스_71370" data-name="패스 71370" d="M25.469,4.876a7.356,7.356,0,0,0-3.506,1.515l-.017-.022L19.366,3.1A11.534,11.534,0,0,1,24.13.855l1.328,3.99Z" transform="translate(-13.568 -0.599)" fill="#0070bd"/>
        <path id="패스_71371" data-name="패스 71371" d="M40.131.256,38.8,4.246a7.42,7.42,0,0,0-2.2,0L35.278.256a11.627,11.627,0,0,1,4.853,0" transform="translate(-24.717 0)" fill="#0070bd"/>
        <path id="패스_71372" data-name="패스 71372" d="M53.117,3.1,50.538,6.373l-.016.02a7.383,7.383,0,0,0-3.508-1.515l.011-.031L48.353.856A11.532,11.532,0,0,1,53.117,3.1" transform="translate(-32.939 -0.6)" fill="#0070bd"/>
        <path id="패스_71373" data-name="패스 71373" d="M64.389,12.041l-3.172,3.172-.009.009a7.4,7.4,0,0,0-2.476-3.577l.016-.02,2.578-3.272a11.616,11.616,0,0,1,3.063,3.688" transform="translate(-41.149 -5.852)" fill="#0070bd"/>
        <path id="패스_71374" data-name="패스 71374" d="M71.516,26.066H67.351c0-.063,0-.124,0-.187v-.017a.094.094,0,0,0,0-.022v-.015a.228.228,0,0,0,0-.035.37.37,0,0,0,0-.063c0-.019,0-.035,0-.054a.228.228,0,0,0,0-.035.257.257,0,0,0,0-.037c0-.02,0-.039,0-.06a.4.4,0,0,0,0-.046.508.508,0,0,0,0-.052c-.006-.072-.013-.143-.022-.213a0,0,0,0,0,0,0c-.015-.11-.03-.217-.046-.325-.011-.071-.024-.141-.039-.21a.114.114,0,0,0,0-.026c-.017-.085-.034-.169-.054-.251-.045-.191-.1-.378-.156-.564l.009-.009,3.172-3.172a11.509,11.509,0,0,1,1.332,5.4" transform="translate(-46.944 -14.482)" fill="#0070bd"/>
        <rect id="사각형_14295" data-name="사각형 14295" width="5.565" height="3.71" transform="translate(0 11.618)" fill="#0070bd"/>
        <rect id="사각형_14296" data-name="사각형 14296" width="5.565" height="3.71" transform="translate(20.411 11.618)" fill="#0070bd"/>
      </g>
    </g>
  </g>
</svg>
