<svg xmlns="http://www.w3.org/2000/svg" width="37.001" height="59" viewBox="0 0 37.001 59">
  <g id="그룹_5232" data-name="그룹 5232" transform="translate(-312 -108)">
    <path id="패스_14669" data-name="패스 14669" d="M12571.027,6777.7v-24.933s1.134-2.267,2.753-2.591,3.238,2.591,3.238,2.591v12.628a4.051,4.051,0,0,1,2.914-2.59c2.267-.485,3.076,3.886,3.076,3.886s1.78-2.59,3.4-2.1a4.734,4.734,0,0,1,2.753,4.533c-.324,1.457.809-2.267,3.4-1.619s2.267,4.047,2.267,4.047v14.733s-.809,6.961-5.666,7.285-12.143,0-12.143,0l-3.238-2.1-11.657-11.333s-.81-5.181,3.238-5.5A5.83,5.83,0,0,1,12571.027,6777.7Z" transform="translate(-12247 -6628)" fill="#006CD0"/>
    <path id="패스_14666" data-name="패스 14666" d="M33.633,104.624H26.142A9.118,9.118,0,0,1,19,101.138l-9.67-9.721a4.882,4.882,0,0,1,0-6.869l.16-.161a4.814,4.814,0,0,1,6.833,0l.538.54V62.786a4.141,4.141,0,1,1,8.281,0v8.679a4.048,4.048,0,0,1,1.732-.387h.105a4.1,4.1,0,0,1,3.853,2.737,4.045,4.045,0,0,1,1.966-.507H32.9a4.1,4.1,0,0,1,3.939,3.009,4.046,4.046,0,0,1,1.88-.461h.106a4.1,4.1,0,0,1,4.088,4.109V94.976a9.481,9.481,0,0,1-9.283,9.648M12.905,85.332a2.453,2.453,0,0,0-1.751.729l-.16.161a2.5,2.5,0,0,0,0,3.52l9.765,9.817.042.054a6.784,6.784,0,0,0,5.34,2.643h7.491a7.117,7.117,0,0,0,6.927-7.279V79.965a1.738,1.738,0,0,0-1.732-1.741h-.106a1.738,1.738,0,0,0-1.732,1.741H34.634V77.417A1.738,1.738,0,0,0,32.9,75.676H32.8a1.738,1.738,0,0,0-1.732,1.741H28.709v-2.23a1.738,1.738,0,0,0-1.732-1.741h-.105a1.738,1.738,0,0,0-1.732,1.741v1.976l-2.38-1.155.024-.827v-12.4a1.785,1.785,0,1,0-3.569,0V90.644l-4.559-4.583a2.453,2.453,0,0,0-1.751-.729" transform="translate(306.086 62.376)" fill="#006CD0"/>
    <path id="패스_14667" data-name="패스 14667" d="M25.644,24a1.389,1.389,0,0,1-.852-.289,1.284,1.284,0,0,1-.211-1.849,11.447,11.447,0,0,0,2.692-7.4A12.074,12.074,0,0,0,15,2.631,12.074,12.074,0,0,0,2.727,14.466a11.448,11.448,0,0,0,2.692,7.4,1.284,1.284,0,0,1-.211,1.849,1.4,1.4,0,0,1-1.917-.2A14.183,14.183,0,0,1,0,14.466C0,6.49,6.729,0,15,0S30,6.49,30,14.466a14.184,14.184,0,0,1-3.291,9.042A1.381,1.381,0,0,1,25.644,24" transform="translate(312 107.999)" fill="#006CD0"/>
    <path id="패스_14668" data-name="패스 14668" d="M26.013,37.607a.667.667,0,0,1-.608-.389,8.8,8.8,0,0,1-.8-3.681,9,9,0,0,1,18,0,8.817,8.817,0,0,1-.677,3.4.668.668,0,0,1-.87.359.66.66,0,0,1-.362-.864,7.515,7.515,0,0,0,.576-2.9,7.667,7.667,0,0,0-15.333,0,7.5,7.5,0,0,0,.679,3.135.659.659,0,0,1-.332.875.668.668,0,0,1-.275.059" transform="translate(293.393 89.393)" fill="#006CD0"/>
  </g>
</svg>