<svg xmlns="http://www.w3.org/2000/svg" xmlns:xlink="http://www.w3.org/1999/xlink" width="310" height="310" viewBox="0 0 310 310">
  <defs>
    <clipPath id="clip-path">
      <rect id="사각형_14434" data-name="사각형 14434" width="52.05" height="75.417" fill="none"/>
    </clipPath>
  </defs>
  <circle id="타원_1342" data-name="타원 1342" cx="155" cy="155" r="155" fill="#fff" opacity="0.87"/>
  <g id="그룹_37970" data-name="그룹 37970" transform="translate(7541 13551.709)">
    <path id="패스_71581" data-name="패스 71581" d="M-61.877-20.693h-2.844V2.285h2.844Zm-12.365,1.676c-3.479,0-5.992,3.148-5.992,8.1,0,5,2.514,8.125,5.992,8.125,3.453,0,5.967-3.123,5.992-8.125C-68.275-15.869-70.789-19.018-74.242-19.018Zm0,2.539c1.93,0,3.25,2.057,3.25,5.561,0,3.529-1.32,5.586-3.25,5.586-1.955,0-3.275-2.057-3.275-5.586C-77.518-14.422-76.2-16.479-74.242-16.479Zm27.879-2.057H-57.281V-3.326h10.918Zm-8.125,2.209h5.383v10.74h-5.383Zm15.082-4.367H-42.25V2.285h2.844Zm12.035,6.525V-16.1h5.027v-2.336H-35.293V-16.1h5.053v1.93c0,3.91-2.26,8.176-5.891,9.852l1.625,2.209a11.758,11.758,0,0,0,5.764-7.059A10.823,10.823,0,0,0-23-2.666L-21.455-4.9A10.15,10.15,0,0,1-27.371-14.168Zm10.436-6.525h-2.844V2.26h2.844ZM7.389-10.283H-13.584V-8.15H7.389ZM4.85-6.779h-16V-4.8h13.2v1.422H-11.121V2.006H5.535V.051H-8.3v-1.6H4.85ZM4.8-20.186H-10.994v1.955H1.98v1.4h-12.9v5.256H5.205v-1.93H-8.125v-1.5H4.8Zm23.486,1.447H15.793v2.311h4.824c-.114,2.768-2.044,5.307-5.611,6.373l1.447,2.209A8.853,8.853,0,0,0,22.09-12.67a8.623,8.623,0,0,0,5.484,4.418l1.346-2.209c-3.491-1.016-5.357-3.428-5.434-5.967h4.8ZM23.461-8.811H20.643v4.189c-2.095.051-4.1.051-5.84.051l.381,2.311A79.574,79.574,0,0,0,29.2-3.174L29-5.205c-1.765.241-3.656.394-5.535.482Zm13-2.666H33.135v-9.217H30.316V2.26h2.818V-9.115h3.326ZM58.5-7.77H37.527v2.336h9.039V2.26h2.793V-5.434H58.5ZM47.963-19.881c-4.9.025-8.252,2.006-8.227,5.154-.025,3.123,3.326,5.078,8.227,5.078,4.875,0,8.277-1.955,8.277-5.078C56.24-17.875,52.838-19.855,47.963-19.881Zm0,2.285c3.25,0,5.357,1.066,5.357,2.869,0,1.777-2.107,2.844-5.357,2.844s-5.357-1.066-5.332-2.844C42.605-16.529,44.713-17.6,47.963-17.6ZM81-2.742H71.855V-6.475h7.186V-8.785H65.33v-2.971H78.508v-7.363H62.461v2.285H75.715v2.844h-13.2v7.516h6.551v3.732H60.023V-.406H81ZM-61.42,17.455v-1.7h-3v1.7c-.025,3.529-3.479,7.084-8.227,7.947l1.244,2.361a12.264,12.264,0,0,0,8.506-6.221,12.008,12.008,0,0,0,8.48,6.221l1.27-2.361C-57.941,24.564-61.42,21.01-61.42,17.455ZM-52.3,32H-73.277V34.34H-52.3ZM-32.2,16.439H-48.369v2.285h13.406v.457c0,1.168,0,2.349-.051,3.58l-14.041.533.381,2.285,13.533-.711a39.421,39.421,0,0,1-.889,5.408l2.818.254A49.034,49.034,0,0,0-32.2,19.182Zm2.311,15.59H-50.807V34.34h20.922Zm22.5-7.186h-9.09V23.4h6.906v-1.93H-22.9v-1.5H-9.979V14.814H-25.771v1.93H-12.8v1.4H-25.7V23.4h6.424v1.447h-9.09v2.082H-7.389Zm-2.539,3.4h-16v1.98h13.2v1.422H-25.9v5.408H-9.242V35.1H-23.08V33.477H-9.928ZM18.281,14.307H15.488V37.26h2.793V25.783h3.529V23.447H18.281Zm-4.57,3.529H8.43v-3.2H5.611v3.2H.178V20.1H13.711ZM7.033,21.594c-3.352,0-5.814,2.234-5.789,5.408-.025,3.174,2.438,5.383,5.789,5.383,3.3,0,5.764-2.209,5.764-5.383S10.334,21.594,7.033,21.594Zm0,2.311A2.966,2.966,0,0,1,10.105,27a2.911,2.911,0,0,1-3.072,3.047A2.892,2.892,0,0,1,3.936,27,2.945,2.945,0,0,1,7.033,23.9Zm22.9-3.58V16.338H27.219v4.113c0,3.91-1.5,7.947-4.824,9.979l1.752,2.107a11.047,11.047,0,0,0,4.469-6.449A9.931,9.931,0,0,0,32.779,32l1.549-2.158C31.23,27.891,29.936,24.031,29.936,20.324ZM42.58,14.307H39.863V37.26H42.58Zm-4.773.406H35.141V22.2H31.865v2.336h3.275v11.6h2.666ZM66.219,32.156H61.395V26.291a5.329,5.329,0,0,0,2.844-4.672c0-3.656-3.605-6.068-8.557-6.068-4.926,0-8.531,2.412-8.506,6.068a5.3,5.3,0,0,0,2.92,4.723v5.814h-4.85v2.311H66.219ZM55.682,17.785c3.428,0,5.789,1.447,5.789,3.834,0,2.361-2.361,3.834-5.789,3.834s-5.764-1.473-5.738-3.834C49.918,19.232,52.254,17.785,55.682,17.785ZM52.889,32.156V27.383a13.884,13.884,0,0,0,2.793.279,12.6,12.6,0,0,0,2.844-.3v4.8ZM70.51,35.2a1.968,1.968,0,1,0-1.98-1.98A1.995,1.995,0,0,0,70.51,35.2Z" transform="translate(-7386 -13342)" fill="#222"/>
    <g id="그룹_37969" data-name="그룹 37969">
      <g id="그룹_37965" data-name="그룹 37965" transform="translate(-208 -267)">
        <path id="패스_71570" data-name="패스 71570" d="M-2232.745,280.285a1.5,1.5,0,0,1-1.061-.439,1.5,1.5,0,0,1,0-2.121l10.939-10.939-10.939-10.939a1.5,1.5,0,0,1,0-2.121,1.5,1.5,0,0,1,2.121,0l13.061,13.061-13.061,13.061A1.5,1.5,0,0,1-2232.745,280.285Z" transform="translate(-4852.255 -13414.785)" fill="#004e96"/>
        <path id="패스_71574" data-name="패스 71574" d="M-2232.745,280.285a1.5,1.5,0,0,1-1.061-.439,1.5,1.5,0,0,1,0-2.121l10.939-10.939-10.939-10.939a1.5,1.5,0,0,1,0-2.121,1.5,1.5,0,0,1,2.121,0l13.061,13.061-13.061,13.061A1.5,1.5,0,0,1-2232.745,280.285Z" transform="translate(-4867.255 -13414.785)" fill="#004e96"/>
        <path id="패스_71575" data-name="패스 71575" d="M-2232.745,280.285a1.5,1.5,0,0,1-1.061-.439,1.5,1.5,0,0,1,0-2.121l10.939-10.939-10.939-10.939a1.5,1.5,0,0,1,0-2.121,1.5,1.5,0,0,1,2.121,0l13.061,13.061-13.061,13.061A1.5,1.5,0,0,1-2232.745,280.285Z" transform="translate(-4882.255 -13414.785)" fill="#004e96"/>
      </g>
      <g id="그룹_37966" data-name="그룹 37966" transform="translate(-7491 -13427)">
        <path id="패스_71570-2" data-name="패스 71570" d="M-2220.745,280.285a1.5,1.5,0,0,1-1.061-.439l-13.061-13.061,13.061-13.061a1.5,1.5,0,0,1,2.121,0,1.5,1.5,0,0,1,0,2.121l-10.939,10.939,10.939,10.939a1.5,1.5,0,0,1,0,2.121A1.5,1.5,0,0,1-2220.745,280.285Z" transform="translate(2232.745 -254.785)" fill="#004e96"/>
        <path id="패스_71574-2" data-name="패스 71574" d="M-2220.745,280.285a1.5,1.5,0,0,1-1.061-.439l-13.061-13.061,13.061-13.061a1.5,1.5,0,0,1,2.121,0,1.5,1.5,0,0,1,0,2.121l-10.939,10.939,10.939,10.939a1.5,1.5,0,0,1,0,2.121A1.5,1.5,0,0,1-2220.745,280.285Z" transform="translate(2247.745 -254.785)" fill="#004e96"/>
        <path id="패스_71575-2" data-name="패스 71575" d="M-2220.745,280.285a1.5,1.5,0,0,1-1.061-.439l-13.061-13.061,13.061-13.061a1.5,1.5,0,0,1,2.121,0,1.5,1.5,0,0,1,0,2.121l-10.939,10.939,10.939,10.939a1.5,1.5,0,0,1,0,2.121A1.5,1.5,0,0,1-2220.745,280.285Z" transform="translate(2262.745 -254.785)" fill="#004e96"/>
      </g>
      <g id="그룹_37968" data-name="그룹 37968" transform="translate(-7412.025 -13464.709)">
        <g id="그룹_37967" data-name="그룹 37967" clip-path="url(#clip-path)">
          <path id="패스_71576" data-name="패스 71576" d="M52.25,50.3c.042,5.4.089,11.518-.037,15.661C51.9,76.436,43.449,84.952,33.382,84.952a17.78,17.78,0,0,1-10.819-3.785c-4.064-3.1-7.3-7.7-10.435-12.149-1.64-2.329-3.191-4.531-4.821-6.477a3.855,3.855,0,0,1-.584-.9c-.578-1.262-.673-2.256-.273-2.871a2.075,2.075,0,0,1,1.809-.757,6.29,6.29,0,0,1,2.854.773,40.322,40.322,0,0,1,5.273,3.67c.826.647,1.682,1.309,2.529,1.913a1.176,1.176,0,0,0,.694.226,1.512,1.512,0,0,0,1.456-1.451V30.862c0-.484-.032-.988-.063-1.525a12.172,12.172,0,0,1,.063-3.138c.368-1.766,1.346-2.818,2.629-2.818a3.259,3.259,0,0,1,2.923,2.891,9.148,9.148,0,0,1,.032,1.977c-.016.331-.037.657-.037.962v.006c.005.294.047,5.178.1,10.824l.1,11.529a1.5,1.5,0,0,0,3.007-.01V43.6a2.546,2.546,0,0,1,2.544-2.544h.31A2.546,2.546,0,0,1,35.217,43.6v7.959a1.5,1.5,0,0,0,1.5,1.5h.242a1.5,1.5,0,0,0,1.5-1.5V43.505A2.536,2.536,0,0,1,40.9,40.961c.073-.005.557-.021.557-.021a2.552,2.552,0,0,1,2.55,2.55v8.07a1.5,1.5,0,0,0,1.5,1.5h.242a1.5,1.5,0,0,0,1.5-1.5V44.142a2.617,2.617,0,0,1,2.623-2.6,2.247,2.247,0,0,1,1.8.883,2.561,2.561,0,0,1,.547,1.293c0,1.871.021,4.153.037,6.582" transform="translate(-3.284 -12.369)" fill="#fff"/>
          <path id="패스_71577" data-name="패스 71577" d="M51.895,47.095c.168,6.5.357,13.874-.352,18.9A21.518,21.518,0,0,1,30.4,84.52h-.005c-.647,0-1.309-.032-1.956-.095-9.237-.868-14.142-7.25-19.33-14l-.074-.095Q7.915,68.88,6.779,67.44c-1.63-2.077-3.312-4.222-4.894-6.382C.46,59.1-.944,56.51.838,53.8A4.618,4.618,0,0,1,4.823,51.49c3.328,0,7.234,3.144,10.115,5.478V27.6c0-.347-.005-.7-.01-1.072-.048-3.775-.106-8.469,4.71-9.216a8.208,8.208,0,0,1,1.21-.1,4.568,4.568,0,0,1,4.573,3.4,19.517,19.517,0,0,1,.752,6.34v9.063a2.365,2.365,0,0,1,1.767-1.067h2.15a3.716,3.716,0,0,1,2.418.83,3.589,3.589,0,0,1,1.083,1.577,3.594,3.594,0,0,1,1.083-1.577,3.715,3.715,0,0,1,2.418-.83H39.02a3.717,3.717,0,0,1,2.419.83,3.615,3.615,0,0,1,1.083,1.572,3.613,3.613,0,0,1,.594-1.072,3.44,3.44,0,0,1,2.708-1.215,4.312,4.312,0,0,1,.636.048c3.013.463,4.669,1.992,5.21,4.815a1.193,1.193,0,0,1,.105.531.927.927,0,0,1,0,.342c.011,1.819.063,3.99.121,6.3M48.93,62.7c.126-4.142.079-10.262.037-15.661-.016-2.429-.037-4.71-.037-6.582a2.562,2.562,0,0,0-.547-1.293,2.248,2.248,0,0,0-1.8-.883,2.617,2.617,0,0,0-2.623,2.6v7.418a1.5,1.5,0,0,1-1.5,1.5h-.242a1.5,1.5,0,0,1-1.5-1.5v-8.07a2.552,2.552,0,0,0-2.55-2.55s-.483.016-.557.021a2.536,2.536,0,0,0-2.439,2.545v8.054a1.5,1.5,0,0,1-1.5,1.5h-.242a1.5,1.5,0,0,1-1.5-1.5V40.334a2.547,2.547,0,0,0-2.545-2.544h-.31a2.546,2.546,0,0,0-2.544,2.544v7.959a1.5,1.5,0,0,1-3.007.01l-.1-11.529c-.053-5.646-.095-10.53-.1-10.824v-.005c0-.3.021-.631.037-.962a9.144,9.144,0,0,0-.032-1.976,3.259,3.259,0,0,0-2.923-2.891c-1.283,0-2.26,1.051-2.629,2.818a12.175,12.175,0,0,0-.063,3.139c.032.536.063,1.041.063,1.525V59.88a1.512,1.512,0,0,1-1.456,1.451,1.177,1.177,0,0,1-.694-.226c-.846-.6-1.7-1.267-2.528-1.914a40.385,40.385,0,0,0-5.273-3.67,6.3,6.3,0,0,0-2.854-.772,2.075,2.075,0,0,0-1.809.757c-.4.615-.3,1.608.274,2.87a3.845,3.845,0,0,0,.583.9c1.63,1.945,3.181,4.148,4.821,6.477C11.978,70.205,15.216,74.8,19.28,77.9A17.776,17.776,0,0,0,30.1,81.687c10.068,0,18.515-8.517,18.831-18.989" transform="translate(0 -9.103)" fill="#959595"/>
          <path id="패스_71578" data-name="패스 71578" d="M39.98,18.181a8.515,8.515,0,0,1-.471,2.494.938.938,0,0,0-.054.309.975.975,0,0,0,1.888.341,10.874,10.874,0,0,0,.588-2.892.977.977,0,0,0,.021-.252,1,1,0,0,0-.021-.252,9.848,9.848,0,0,0-19.693.252,9.716,9.716,0,0,0,.591,3.289.983.983,0,0,0,1.907-.333.96.96,0,0,0-.06-.329,7.633,7.633,0,0,1,.06-5.408,7.97,7.97,0,0,1,7.36-5.1,7.776,7.776,0,0,1,6.6,3.68,7.9,7.9,0,0,1,.763,1.54,8.737,8.737,0,0,1,.526,2.665" transform="translate(-11.763 -4.403)" fill="#004e96"/>
          <path id="패스_71579" data-name="패스 71579" d="M32.514.835a13.908,13.908,0,0,0-15.429,4.2c-5.1,6.193-3.375,14.478,1.751,19.084a.934.934,0,1,0,1.22-1.413,11.932,11.932,0,0,1-4.138-8.923,11.828,11.828,0,1,1,23.657,0,12.32,12.32,0,0,1-4.12,8.9,1,1,0,0,0,1.291,1.516,14.416,14.416,0,0,0,4.8-10.415A14,14,0,0,0,32.514.835" transform="translate(-7.415 0)" fill="#004e96"/>
        </g>
      </g>
    </g>
  </g>
</svg>
