<svg xmlns="http://www.w3.org/2000/svg" width="60" height="60" viewBox="0 0 60 60">
  <rect id="사각형_14228" data-name="사각형 14228" width="60" height="60" rx="30" fill="#006cd0"/>
  <g id="그룹_37555" data-name="그룹 37555" transform="translate(21 21)">
    <path id="타원_1295" data-name="타원 1295" d="M7.292-1A8.292,8.292,0,1,1-1,7.292,8.3,8.3,0,0,1,7.292-1Zm0,14.583A6.292,6.292,0,1,0,1,7.292,6.3,6.3,0,0,0,7.292,13.583Z" fill="#fff"/>
    <path id="선_1299" data-name="선 1299" d="M4.511,5.511A1,1,0,0,1,3.8,5.218L-.707.707a1,1,0,0,1,0-1.414,1,1,0,0,1,1.414,0L5.218,3.8a1,1,0,0,1-.707,1.707Z" transform="translate(12.989 12.989)" fill="#fff"/>
  </g>
</svg>
