<svg xmlns="http://www.w3.org/2000/svg" width="80" height="80" viewBox="0 0 80 80">
  <path id="패스_71362" data-name="패스 71362" d="M40,0A40,40,0,1,1,0,40,40,40,0,0,1,40,0Z" fill="#f2f7fd"/>
  <g id="Icon_ionic-ios-subway" data-name="Icon ionic-ios-subway" transform="translate(22.299 22.088)">
    <path id="패스_64" data-name="패스 64" d="M24.271,2.25H11.13A4.393,4.393,0,0,0,6.75,6.63V22.509a4.393,4.393,0,0,0,4.38,4.38H24.271a4.393,4.393,0,0,0,4.38-4.38V6.63A4.393,4.393,0,0,0,24.271,2.25Zm-10.4,1.643h7.666a.548.548,0,1,1,0,1.1H13.868a.548.548,0,1,1,0-1.1ZM11.678,24.7a1.916,1.916,0,1,1,1.916-1.916A1.913,1.913,0,0,1,11.678,24.7Zm12.046,0a1.916,1.916,0,1,1,1.916-1.916A1.913,1.913,0,0,1,23.724,24.7Zm2.738-10.4a1.1,1.1,0,0,1-1.1,1.1H10.049A1.11,1.11,0,0,1,8.94,14.3V7.739A1.122,1.122,0,0,1,10.049,6.63H25.366a1.11,1.11,0,0,1,1.1,1.109Z" fill="#006cd0"/>
    <path id="패스_65" data-name="패스 65" d="M27.159,31.958l-3.422-3.285a.958.958,0,0,0-1.328,1.383l.417.4H12.635l.417-.4a.958.958,0,0,0-1.328-1.383L8.3,31.958a.954.954,0,0,0-.027,1.355.937.937,0,0,0,.691.294.954.954,0,0,0,.664-.267l1.006-.965H24.818l1.006.965a.954.954,0,0,0,.664.267.937.937,0,0,0,.691-.294A.948.948,0,0,0,27.159,31.958Z" transform="translate(-0.033 -0.696)" fill="#006cd0"/>
  </g>
</svg>
