<svg id="그룹_37491" data-name="그룹 37491" xmlns="http://www.w3.org/2000/svg" xmlns:xlink="http://www.w3.org/1999/xlink" width="194.359" height="59.604" viewBox="0 0 194.359 59.604">
  <defs>
    <clipPath id="clip-path">
      <rect id="사각형_11924" data-name="사각형 11924" width="194.359" height="59.604" fill="none"/>
    </clipPath>
  </defs>
  <g id="그룹_37490" data-name="그룹 37490" transform="translate(0 0)" clip-path="url(#clip-path)">
    <path id="패스_71053" data-name="패스 71053" d="M159.68,15.145V21.38h-1.641V15.145h-4.232v.494h.005c.427,0,.823.726.823,1.494V30.545H145.9v-12h5.813V15.708H141.428v.506h0c.421,0,.827.72.827,1.484V33.379h12.379v4.5h3.4V24.186h1.641V37.878h3.654V15.145H159.68Z" transform="translate(-21.873 -2.275)" fill="#464545"/>
    <path id="패스_71054" data-name="패스 71054" d="M222.72,34.033V15.86H204.808v2.833h14.256V34.033H216.15V26.042h-3.485v7.991h-1.971V26.042h-4.071v.5h.008c.425,0,.824.716.824,1.485v6H203.6v2.842h21.33V34.033Z" transform="translate(-31.489 -2.386)" fill="#464545"/>
    <path id="패스_71055" data-name="패스 71055" d="M131.585,15.145V37.877h3.654V15.145h-3.654Z" transform="translate(-20.351 -2.274)" fill="#464545"/>
    <path id="패스_71056" data-name="패스 71056" d="M124.279,15.145v.494h.007c.417,0,.827.726.827,1.494V21.38h-3.633v2.806h3.633V37.878h3.419V15.145h-4.252Z" transform="translate(-18.788 -2.275)" fill="#464545"/>
    <path id="패스_71057" data-name="패스 71057" d="M116.255,24.982l-.194-.149.043-.1a18.527,18.527,0,0,0,2.232-8.926V15.8h-5.286v.507l0,0c.047,0,1.156.264,1.156,2.116,0,.119.016,6.277-5.936,11.8.166.154,1.563,1.5,1.686,1.609l.011,0a17.728,17.728,0,0,0,4.555-4.6l.078-.1.1.084a23.137,23.137,0,0,1,4.727,5.359c.213-.289,1.9-2.642,2-2.785a28.234,28.234,0,0,0-5.176-4.8" transform="translate(-16.746 -2.377)" fill="#464545"/>
    <path id="패스_71058" data-name="패스 71058" d="M175.076,35.709h15.252v4.909h3.656v-7.75H175.076Z" transform="translate(-27.078 -5.035)" fill="#464545"/>
    <path id="패스_71059" data-name="패스 71059" d="M196.624,15.116h-4.485v.5h0c.426,0,.827.725.827,1.488V28.163h3.657v-4h3.585v-2.8h-3.585Z" transform="translate(-29.717 -2.27)" fill="#464545"/>
    <path id="패스_71060" data-name="패스 71060" d="M179.836,25.787a3.136,3.136,0,0,1-2.881-3.343,2.912,2.912,0,1,1,5.759,0,3.142,3.142,0,0,1-2.878,3.343m-6.482-3.167c0,3.055,2.91,5.549,6.482,5.549s6.477-2.495,6.477-5.549a5.223,5.223,0,0,0-2.193-4.148h2.954V15.638h-5.109V13.712h-4.477v.5h.007c.366,0,.733.6.794,1.291l.012.138h-5.454v2.834h2.7a5.228,5.228,0,0,0-2.2,4.148" transform="translate(-26.733 -2.051)" fill="#464545"/>
    <path id="패스_71061" data-name="패스 71061" d="M87.59,33.134H83.111v.5c.423,0,.831.721.831,1.482v5.39H101.37V37.672H87.59Z" transform="translate(-12.854 -5.076)" fill="#464545"/>
    <path id="패스_71062" data-name="패스 71062" d="M83.389,22.011a3.229,3.229,0,1,1,6.37,0,3.229,3.229,0,1,1-6.37,0M96.9,20.83V22.8H93.366a6.251,6.251,0,0,0,.056-.781A5.8,5.8,0,0,0,93.3,20.83Zm-4.7,4.806h4.7v5.917h3.65V15.138H96.075v.494h0c.424,0,.827.732.827,1.491V18H91.875a7.056,7.056,0,0,0-5.3-2.334,6.617,6.617,0,0,0-6.838,6.352,6.615,6.615,0,0,0,6.838,6.35A7,7,0,0,0,92.2,25.636" transform="translate(-12.332 -2.273)" fill="#464545"/>
    <path id="패스_71063" data-name="패스 71063" d="M96.1,57.02c-1.922,0-3.267-1.636-3.267-3.986,0-2.893,1.629-3.325,2.6-3.325,1.833,0,3.112,1.594,3.112,3.875,0,3.1-1.709,3.435-2.444,3.435m-.353-8.037a4.317,4.317,0,0,0-4.626,4.391,4.266,4.266,0,0,0,4.517,4.394,4.416,4.416,0,0,0,4.641-4.588c0-2.589-1.735-4.2-4.533-4.2" transform="translate(-14.093 -7.544)" fill="#464545"/>
    <path id="패스_71064" data-name="패스 71064" d="M119.8,51.128h-.477a1.474,1.474,0,0,0-.261-.942,1.284,1.284,0,0,0-1.116-.5c-.732,0-1.2.4-1.2,1.027,0,.426.173.776,1.123,1.5l.308.228c1.353,1.053,1.833,1.8,1.833,2.872a2.315,2.315,0,0,1-1.073,1.991,3.9,3.9,0,0,1-3.7,0V55.192h.44s.089.627.149.815a1.425,1.425,0,0,0,1.467,1.035,1.242,1.242,0,0,0,1.372-1.149c0-.524-.178-1.006-1.04-1.672l-.5-.393a3.379,3.379,0,0,1-1.663-2.674c0-1.277,1.069-2.169,2.634-2.169a2.98,2.98,0,0,1,1.712.323Z" transform="translate(-17.822 -7.544)" fill="#464545"/>
    <path id="패스_71065" data-name="패스 71065" d="M201.783,51.128h-.473a1.464,1.464,0,0,0-.265-.942,1.286,1.286,0,0,0-1.116-.5c-.731,0-1.205.4-1.205,1.027,0,.426.174.776,1.124,1.5l.307.228c1.358,1.053,1.839,1.8,1.839,2.872a2.323,2.323,0,0,1-1.081,1.991,3.886,3.886,0,0,1-3.693,0V55.192h.433s.09.627.151.815a1.427,1.427,0,0,0,1.468,1.035,1.242,1.242,0,0,0,1.37-1.149c0-.524-.177-1.006-1.039-1.672l-.5-.393a3.382,3.382,0,0,1-1.66-2.674c0-1.277,1.069-2.169,2.635-2.169a2.955,2.955,0,0,1,1.708.323Z" transform="translate(-30.502 -7.544)" fill="#464545"/>
    <path id="패스_71066" data-name="패스 71066" d="M127.08,49.921c.752,0,.779.412.779.979h.39V49.169h-5.458v.388h.253c.371,0,.841.111.841.744v6.087c0,.816-.23.871-.745.869h-.183v.387h5.574V55.775h-.4c0,.83-.328,1.119-.9,1.119h-1.747V53.507h1.625c.564,0,.577.187.577.767h.392V51.987h-.392c0,.583-.014.769-.577.769h-1.625V49.921Z" transform="translate(-18.991 -7.573)" fill="#464545"/>
    <path id="패스_71067" data-name="패스 71067" d="M183.593,49.921c.751,0,.781.412.781.979h.391V49.169H179.3v.388h.25c.376,0,.844.111.844.744,0,.788.006,6.087.006,6.087,0,.816-.238.871-.751.869h-.181v.387h5.572V55.775h-.4c0,.83-.329,1.119-.9,1.119h-1.748V53.507h1.63c.556,0,.572.187.572.767h.39V51.987h-.39c0,.583-.016.769-.572.769h-1.63V49.921Z" transform="translate(-27.731 -7.573)" fill="#464545"/>
    <path id="패스_71068" data-name="패스 71068" d="M135.187,57.258c-.435,0-.813-.064-.813-.561V50.131c0-.547.259-.575.93-.575v-.387H131.84v.388h.2c.278,0,.755.076.755.573V56.7c0,.543-.281.558-.955.558v.387h3.738v-.384Z" transform="translate(-20.391 -7.573)" fill="#464545"/>
    <path id="패스_71069" data-name="패스 71069" d="M167.683,57.258c-.431,0-.812-.064-.812-.561V50.131c0-.547.257-.575.931-.575v-.387h-3.46v.388h.2c.279,0,.753.076.753.573V56.7c0,.543-.283.558-.951.558v.387h3.732v-.384Z" transform="translate(-25.417 -7.573)" fill="#464545"/>
    <path id="패스_71070" data-name="패스 71070" d="M207.312,57.258c-.437,0-.815-.064-.815-.561V50.131c0-.547.26-.575.932-.575v-.387h-3.46v.388h.2c.283,0,.756.076.756.573V56.7c0,.543-.281.558-.952.558v.387H207.7v-.384Z" transform="translate(-31.546 -7.573)" fill="#464545"/>
    <path id="패스_71071" data-name="패스 71071" d="M84.333,49.557l.181,0v-.386H81.359v.386a1.637,1.637,0,0,1,.7.139,2.643,2.643,0,0,1,.724.767c.388.577,1.847,2.975,1.918,3.137a2.191,2.191,0,0,1,.243,1.108V56.55c0,.7-.383.7-.928.7v.393h3.714v-.391h-.272c-.509,0-.931-.041-.931-.733V54.706a2.531,2.531,0,0,1,.158-1.057,35.151,35.151,0,0,1,2.079-3.456,1.64,1.64,0,0,1,.556-.508.877.877,0,0,1,.44-.13h.3v-.386H87.275v.386h.286c.12,0,.166.088.166.186a1.321,1.321,0,0,1-.158.535c-.075.165-1.562,2.839-1.562,2.839s-1.641-2.839-1.764-3.1l-.12-.331.071-.1Z" transform="translate(-12.583 -7.573)" fill="#464545"/>
    <path id="패스_71072" data-name="패스 71072" d="M221.458,49.557l.181,0v-.386h-3.151v.386a1.636,1.636,0,0,1,.7.139,2.675,2.675,0,0,1,.721.767c.39.577,1.851,2.975,1.921,3.137a2.218,2.218,0,0,1,.243,1.108V56.55c0,.7-.387.7-.931.7v.393h3.716v-.391h-.275c-.509,0-.928-.041-.928-.733V54.706a2.568,2.568,0,0,1,.156-1.057,35.336,35.336,0,0,1,2.08-3.456,1.6,1.6,0,0,1,.557-.508.877.877,0,0,1,.44-.13h.3l0-.386H224.4v.386h.287a.163.163,0,0,1,.167.186,1.341,1.341,0,0,1-.162.535c-.075.165-1.56,2.839-1.56,2.839s-1.642-2.839-1.766-3.1l-.121-.331.077-.1Z" transform="translate(-33.792 -7.573)" fill="#464545"/>
    <path id="패스_71073" data-name="패스 71073" d="M105.916,57.255v.388H102.78v-.388c.492,0,1,.039,1-.9V49.169h.527c.991,1.017,5.725,5.9,5.88,6.065V50.386c0-.86-.685-.831-1.108-.831v-.386h2.892v.386c-.459,0-.912-.03-.912.831v7.258h-.568l-5.839-5.96.006,4.67c0,.81.472.9.946.9Z" transform="translate(-15.896 -7.573)" fill="#464545"/>
    <path id="패스_71074" data-name="패스 71074" d="M155.194,57.255v.388h-3.135v-.388c.495,0,1,.039,1-.9V49.169h.531c.992,1.017,5.727,5.9,5.878,6.065V50.386c0-.86-.682-.831-1.108-.831v-.386h2.893v.386c-.46,0-.913-.03-.913.831v7.258h-.564l-5.838-5.96,0,4.67c0,.81.473.9.948.9Z" transform="translate(-23.518 -7.573)" fill="#464545"/>
    <path id="패스_71075" data-name="패스 71075" d="M147.067,49.557c.279,0,.767.08.767.585v3.634a3.719,3.719,0,0,1-.614,2.667,2.113,2.113,0,0,1-1.463.569,1.95,1.95,0,0,1-1.323-.431c-.424-.352-.832-.917-.832-2.644V50.142c0-.55.266-.588.938-.588v-.386h-3.463v.388h.2c.279,0,.754.085.754.585v3.865a3.753,3.753,0,0,0,1,2.97,3.66,3.66,0,0,0,2.5.778,3.374,3.374,0,0,0,2.343-.808,4.209,4.209,0,0,0,1.072-3.37V50.142c0-.546.268-.588.939-.588v-.386h-3.014v.388Z" transform="translate(-21.819 -7.573)" fill="#464545"/>
    <path id="패스_71076" data-name="패스 71076" d="M210.863,57.258v.385h3.74v-.388h-.319c-.459,0-.886-.041-.886-.565v-6.76h1.664c.752,0,.84.409.918.973h.456l-.251-1.735h-7.149l-.25,1.735h.451c.078-.565.169-.973.92-.973h1.662V56.7c0,.481-.213.556-.731.556Z" transform="translate(-32.291 -7.573)" fill="#464545"/>
    <path id="패스_71077" data-name="패스 71077" d="M191.77,53.353a1.039,1.039,0,0,1-.735.171h-.781V49.861h.531c.588,0,1.594.391,1.594,1.911a1.846,1.846,0,0,1-.609,1.581m4.177,3.885a2.136,2.136,0,0,1-1.183-.723c-.561-.586-1.2-1.4-2.007-2.41l-.334-.415a3.14,3.14,0,0,0,1.423-2.473,1.929,1.929,0,0,0-.779-1.552,3.744,3.744,0,0,0-2.076-.5h-3.266v.388h.185c.273,0,.765.078.765.583V56.7c0,.484-.223.555-.749.555h-.205v.387h3.736v-.388h-.364c-.435,0-.838-.059-.838-.565V54.214h1l1.115,1.564a5.32,5.32,0,0,0,1.539,1.637,2.3,2.3,0,0,0,1.217.229h1.124v-.375c-.211-.016-.3-.03-.3-.03" transform="translate(-29.033 -7.573)" fill="#464545"/>
    <path id="패스_71078" data-name="패스 71078" d="M177.921,49.558v-.385h-2.829v.385h.321l.22.162a1.4,1.4,0,0,1-.095.561s-1.9,4.855-2,5.1c-.085-.209-2.024-5.366-2.024-5.366l-.055-.3a.263.263,0,0,1,.238-.158h.321v-.382h-3.21v.382a1.464,1.464,0,0,1,.666.147,1.612,1.612,0,0,1,.5.768l3.036,7.268h.359l3.352-7.538s.3-.653.883-.642Z" transform="translate(-26.108 -7.574)" fill="#464545"/>
    <path id="패스_71079" data-name="패스 71079" d="M0,29.756A29.8,29.8,0,1,0,29.794,0,29.811,29.811,0,0,0,0,29.756" transform="translate(0 0.084)" fill="#fff"/>
    <path id="패스_71080" data-name="패스 71080" d="M1.044,29.916A28.919,28.919,0,1,1,29.96,58.805,28.934,28.934,0,0,1,1.044,29.916" transform="translate(-0.161 -0.077)" fill="#002a5f"/>
    <path id="패스_71081" data-name="패스 71081" d="M31.393,52.415A21.048,21.048,0,1,1,52.473,31.37a21.06,21.06,0,0,1-21.08,21.045" transform="translate(-1.596 -1.523)" fill="#fff"/>
    <path id="패스_71082" data-name="패스 71082" d="M6.417,43.193a.812.812,0,1,0,.812-.808.814.814,0,0,0-.812.808" transform="translate(-0.992 -6.517)" fill="#fff"/>
    <path id="패스_71083" data-name="패스 71083" d="M64.141,43.328a.823.823,0,1,1-.822-.826.822.822,0,0,1,.822.826" transform="translate(-9.666 -6.535)" fill="#fff"/>
    <path id="패스_71084" data-name="패스 71084" d="M8.476,26.284a1.743,1.743,0,0,1-2.373.95C4.73,26.8,4.774,25.965,4.916,25.506a1.393,1.393,0,0,1,.7-.83,2.1,2.1,0,0,1,1.6-.058,1.909,1.909,0,0,1,1.2.834,1.092,1.092,0,0,1,.064.832M7.282,23.753a2,2,0,0,0-1.565.084,2.326,2.326,0,0,0-1.086,1.416,2.291,2.291,0,0,0,.091,1.765A2.193,2.193,0,0,0,6.011,28.08a2.1,2.1,0,0,0,2.734-1.467,2.174,2.174,0,0,0-1.462-2.86" transform="translate(-0.696 -3.597)" fill="#fff"/>
    <path id="패스_71085" data-name="패스 71085" d="M14.114,16.717,13.361,16l.149-.153.343.222a.7.7,0,0,0,.869-.172.614.614,0,0,0,.062-.881,1,1,0,0,0-.956-.2l-.314.046a1.668,1.668,0,0,1-1.524-.321,1.147,1.147,0,0,1,.122-1.682c.45-.469.7-.5.7-.5l.652.625-.159.169a.66.66,0,0,0-.428-.227.653.653,0,0,0-.564.227.524.524,0,0,0-.04.784c.152.143.336.2.919.108l.188-.03a1.744,1.744,0,0,1,1.655.323,1.145,1.145,0,0,1,.342,1.065,1.547,1.547,0,0,1-.445.8,1.593,1.593,0,0,1-.818.519" transform="translate(-1.806 -1.84)" fill="#fff"/>
    <path id="패스_71086" data-name="패스 71086" d="M56.832,18.334l.861-.59.121.181-.294.289a.7.7,0,0,0-.01.883.612.612,0,0,0,.85.242c.216-.147.364-.353.4-.891l.019-.312a1.676,1.676,0,0,1,.631-1.425,1.149,1.149,0,0,1,1.622.469,1.462,1.462,0,0,1,.346.787l-.746.508-.132-.192a.655.655,0,0,0,.313-.373.634.634,0,0,0-.106-.593.523.523,0,0,0-.756-.207c-.177.122-.271.291-.3.877l-.009.19c-.052.846-.224,1.252-.664,1.551a1.148,1.148,0,0,1-1.113.114,1.915,1.915,0,0,1-1.027-1.51" transform="translate(-8.789 -2.491)" fill="#fff"/>
    <path id="패스_71087" data-name="패스 71087" d="M17.766,10.693c.22-.163.282-.1.456.137l.152-.118-.675-.9-.156.117c.17.23.222.307,0,.474l-.643.479-.844-1.121s.5-.373.637-.472c.3-.22.429-.071.6.158l.159-.117-.513-.688-2.163,1.617.117.158c.145-.11.417-.345.65-.035l1.8,2.413c.271.36.137.42-.118.609l.128.167,2.209-1.647L19,11.173l-.158.117c.247.33.2.542-.025.712-.149.112-.694.515-.694.515l-1-1.336,0,0Z" transform="translate(-2.285 -1.261)" fill="#fff"/>
    <path id="패스_71088" data-name="패스 71088" d="M51.8,10.8c.23.153.183.233.021.469l.162.116.63-.945-.163-.109c-.16.24-.216.313-.445.162l-.668-.451.781-1.164s.519.35.658.441c.306.207.207.381.049.614l.161.11.478-.71-2.242-1.5-.11.161c.152.1.462.279.247.6s-1.677,2.5-1.677,2.5c-.25.373-.35.266-.614.091l-.119.175,2.293,1.532.516-.773-.165-.113c-.23.342-.445.371-.678.215L50.2,11.74l.932-1.388,0-.005Z" transform="translate(-7.571 -1.135)" fill="#fff"/>
    <path id="패스_71089" data-name="패스 71089" d="M20.821,7.1c-.119-.24-.007-.307.289-.458l-.091-.176-1.526.781.091.174s.386-.274.548.035l1.48,2.888c.126.236.006.311-.289.462l.091.172,1.641-.843-.087-.173c-.245.127-.513.308-.658.022S20.821,7.1,20.821,7.1" transform="translate(-3.015 -0.922)" fill="#fff"/>
    <path id="패스_71090" data-name="패스 71090" d="M30.735,5.6,30.4,3.933c-.05-.265.074-.3.4-.363l-.041-.19-1.46.293.039.189s.447-.162.517.181l.353,1.766a1.822,1.822,0,0,1-.037,1.351,1.048,1.048,0,0,1-.651.423.993.993,0,0,1-.687-.087c-.238-.124-.488-.361-.655-1.2L27.8,4.452c-.051-.261.074-.3.4-.363L28.167,3.9l-1.68.335.036.19s.451-.156.521.182l.378,1.874A1.85,1.85,0,0,0,28.2,7.826a1.807,1.807,0,0,0,1.288.138A1.667,1.667,0,0,0,30.54,7.34,2.075,2.075,0,0,0,30.735,5.6" transform="translate(-4.097 -0.442)" fill="#fff"/>
    <path id="패스_71091" data-name="패스 71091" d="M42.65,4.652c.063-.265.192-.243.515-.169l.044-.19-1.67-.388L41.5,4.1s.47.039.394.38l-.733,3.163c-.06.261-.2.237-.521.163l-.046.19,1.8.416.046-.186c-.272-.062-.59-.1-.519-.407s.73-3.163.73-3.163" transform="translate(-6.278 -0.524)" fill="#fff"/>
    <path id="패스_71092" data-name="패스 71092" d="M62.986,21.688c.243-.119.307-.008.453.289l.175-.084-.752-1.537-.176.087s.272.389-.046.545c-.152.076-2.914,1.434-2.914,1.434-.243.117-.31,0-.458-.3l-.177.088.815,1.656.172-.084c-.122-.247-.3-.517-.009-.657s2.916-1.432,2.916-1.432" transform="translate(-9.139 -3.086)" fill="#fff"/>
    <path id="패스_71093" data-name="패스 71093" d="M64.666,24.276l-.857.123.063.215c.283-.043.488-.059.593.3.02.067.059.2.236.792-.479.139-3.219.948-3.219.948-.259.078-.3-.056-.4-.373l-.19.054L61.42,28.1l.185-.052c-.078-.268-.208-.565.1-.653l3.217-.951c.177.593.216.725.236.786.1.359-.076.458-.339.574l.067.215.785-.357Z" transform="translate(-9.418 -3.697)" fill="#fff"/>
    <path id="패스_71094" data-name="패스 71094" d="M56.581,13.7a.9.9,0,0,1-.767.341c-.107-.014-.166-.046-.314-.193l-.276-.272,1.275-1.29.186.187a.82.82,0,0,1-.1,1.228m.974-.5a1.8,1.8,0,0,0-.561-.895L55.843,11.17l-.134.142s.384.279.138.529l-2.287,2.306c-.189.191-.293.1-.531-.134l-.135.142,1.315,1.294.134-.132c-.2-.2-.451-.394-.225-.621l.866-.876.352.348-.155.938a2.613,2.613,0,0,0-.029,1.11,1.181,1.181,0,0,0,.35.5l.4.388.124-.127-.092-.114a1.052,1.052,0,0,1-.165-.666c.009-.4.064-.906.133-1.547l.032-.261a1.556,1.556,0,0,0,1.359-.375.952.952,0,0,0,.265-.815" transform="translate(-8.181 -1.655)" fill="#fff"/>
    <path id="패스_71095" data-name="패스 71095" d="M6.114,31.669a1.29,1.29,0,0,1-.516-.121,17.6,17.6,0,0,1-1.61-1.181.786.786,0,0,1-.229-.293l-.039-.222.014-.151-.193-.02L3.41,31.055l.2.019.014-.142.095-.064.254.1,1.329.892s-1.473.684-1.61.73l-.167.044-.045-.041-.007-.03.007-.122-.192-.023-.14,1.553.191.017a.794.794,0,0,1,.1-.341,1.283,1.283,0,0,1,.41-.321c.3-.166,1.552-.776,1.634-.8a1.156,1.156,0,0,1,.559-.071s.56.052.91.087.339.222.316.487l.182.017.167-1.829L7.438,31.2c-.029.3-.029.593-.43.556l-.894-.084" transform="translate(-0.487 -4.538)" fill="#fff"/>
    <path id="패스_71096" data-name="패스 71096" d="M63.61,32.529a1.182,1.182,0,0,1,.525.028,17.287,17.287,0,0,1,1.8.851.786.786,0,0,1,.28.251l.08.211.014.149L66.509,34l-.134-1.369-.2.019.018.14-.08.082a.691.691,0,0,1-.269-.041l-1.475-.632s1.32-.949,1.446-1.02l.156-.074.053.032.008.025.02.129.19-.021-.155-1.548-.191.019a.8.8,0,0,1-.035.355,1.23,1.23,0,0,1-.341.392c-.267.218-1.377,1.052-1.45,1.094a1.133,1.133,0,0,1-.536.173l-.907.088c-.349.038-.378-.154-.4-.421l-.183.019.181,1.826.176-.019c-.031-.306-.085-.589.319-.622l.9-.091" transform="translate(-9.595 -4.544)" fill="#fff"/>
    <path id="패스_71097" data-name="패스 71097" d="M12.307,18.827l-.145.24-4.03.906L10.1,21.187c.417.257.557-.068.7-.3l.169.1-.815,1.316-.17-.1c.128-.209.283-.408-.112-.651L6.845,19.685l.137-.222,4.085-.894L9.023,17.307c-.362-.222-.522.073-.635.254l-.167-.1.754-1.217.167.106c-.118.193-.255.371.107.6s3.057,1.884,3.057,1.884" transform="translate(-1.059 -2.445)" fill="#fff"/>
    <path id="패스_71098" data-name="패스 71098" d="M37.666,7.6l-.279-.018-2.7-3.117-.14,2.307c-.031.487.319.462.6.475l-.014.2-1.55-.091.01-.2c.248.018.5.057.523-.405s.216-3.548.216-3.548l.258.018c.459.529,2.652,3.084,2.725,3.169,0,0,.12-1.965.144-2.393s-.311-.426-.52-.44l.009-.194,1.43.085-.014.2c-.228-.014-.448-.051-.476.373S37.666,7.6,37.666,7.6" transform="translate(-5.193 -0.414)" fill="#fff"/>
    <path id="패스_71099" data-name="패스 71099" d="M49.49,6.81l.046-.194-1.249-.547-.079.183.146.062.076.108-.155.24L47.109,7.832l-.752.745c0-.106.075-1.6.11-2.257l.03-.572.039-.15.134-.014.146.065.077-.183L45.44,4.831,45.362,5a.753.753,0,0,1,.276.194.852.852,0,0,1,.076.449l-.063,3.9.165.073,2.214-2.041.8-.719a.547.547,0,0,1,.527-.11Z" transform="translate(-7.016 -0.668)" fill="#fff"/>
    <path id="패스_71100" data-name="패스 71100" d="M36.179,62.126v1.281H35.84V62.126h-.869v.1c.085,0,.167.15.167.306V65.3h-1.8V62.824h1.194v-.579H32.419v.1c.087,0,.172.144.172.306v3.229h2.547v.924h.7V63.988h.339v2.817h.752v-4.68Z" transform="translate(-5.014 -9.591)" fill="#fff"/>
    <path id="패스_71101" data-name="패스 71101" d="M59.872,53.322c-.6-.5-2.85-2.366-2.882-2.391h0l-2.354,2.833.447.373,1.878-2.26s1.89,1.569,2.43,2.019c-.2.25-.363.446-.363.446L57.757,53.29l-.46.551,1.269,1.05-.247.3-1.271-1.05-.533.642.083.065c.057-.067.224-.035.343.064l.954.789-.538.647.452.373,2.8-3.375-.453-.377c-.009.018-.127.165-.289.356" transform="translate(-8.45 -7.848)" fill="#fff"/>
    <path id="패스_71102" data-name="패스 71102" d="M24.4,60.037l-1.957,4.256.683.312,1.959-4.253h0Z" transform="translate(-3.471 -9.266)" fill="#fff"/>
    <path id="패스_71103" data-name="패스 71103" d="M23.2,59.473l-.043.095h0c.078.036.091.205.025.35l-.363.789-.714-.328-.243.533.714.325L21.394,63.8l.6.278,1.963-4.253,0,0Z" transform="translate(-3.309 -9.178)" fill="#fff"/>
    <path id="패스_71104" data-name="패스 71104" d="M20.853,60.655l-.021-.046.014-.014a3.792,3.792,0,0,0,1.187-1.477l-.99-.454L21,58.755c.008.009.192.151.032.5v0a3.567,3.567,0,0,1-2.129,1.694l.177.448h0a3.676,3.676,0,0,0,1.25-.469l.021-.014.015.024a4.8,4.8,0,0,1,.423,1.408L21.41,62a5.865,5.865,0,0,0-.557-1.343" transform="translate(-2.924 -9.052)" fill="#fff"/>
    <path id="패스_71105" data-name="패스 71105" d="M46.676,63.965l2.832-1.355.431.908.682-.325-.69-1.439-3.512,1.684Z" transform="translate(-7.179 -9.533)" fill="#fff"/>
    <path id="패스_71106" data-name="패스 71106" d="M48.839,58.461l-.83.4.042.093c.082-.039.22.061.287.2l.989,2.052L50,60.882l-.369-.767.664-.32-.227-.476-.664.321Z" transform="translate(-7.425 -9.02)" fill="#fff"/>
    <path id="패스_71107" data-name="패스 71107" d="M46.713,61.857a.682.682,0,1,1,.3-.9.671.671,0,0,1-.3.9m-1.5-.036a1.346,1.346,0,0,0,2.408-1.156,1.107,1.107,0,0,0-.728-.582c.291-.138.492-.237.5-.245l-.25-.528-.95.458-.17-.357-.832.4.046.1v0c.07-.031.186.042.26.168l.017.023-1.013.487.252.524c.016,0,.2-.092.458-.218a1.122,1.122,0,0,0,0,.934" transform="translate(-6.883 -9.153)" fill="#fff"/>
    <path id="패스_71108" data-name="패스 71108" d="M10.976,54.018h0l-.608-.691-.077.067c.057.067,0,.226-.117.329l-.839.729,2.358,2.7.442-.383L10.27,54.636Z" transform="translate(-1.444 -8.221)" fill="#fff"/>
    <path id="패스_71109" data-name="패스 71109" d="M12.008,51.96a.7.7,0,1,1-.11,1.022.732.732,0,0,1,.11-1.022m2.051,1.958-.307.266s-.261-.3-.477-.546l.115-.09.178-.192c.21.247.49.562.49.562m-1.381-.075c.216.247.632.727.632.727l-.915.8.491.563,2.55-2.222-.607-.695-.078.068c.059.066,0,.227-.118.331l-.132.119s-.571-.648-.7-.8a1.47,1.47,0,0,0-.361-1.1,1.3,1.3,0,1,0-1.953,1.7,1.431,1.431,0,0,0,1.187.507" transform="translate(-1.72 -7.878)" fill="#fff"/>
    <path id="패스_71110" data-name="패스 71110" d="M34.681,23.275a3.093,3.093,0,1,0,3.1,3.092,3.1,3.1,0,0,0-3.1-3.092" transform="translate(-4.885 -3.541)" fill="#002a5f"/>
    <path id="패스_71111" data-name="패스 71111" d="M26.4,51.847a31.339,31.339,0,0,0,7.485,4.718,31.154,31.154,0,0,0,7.485-4.72l-7.485-7.489Z" transform="translate(-4.083 -6.824)" fill="#002a5f"/>
    <path id="패스_71112" data-name="패스 71112" d="M32.466,31.021a6.04,6.04,0,1,1,6.055-6.041,6.047,6.047,0,0,1-6.055,6.041M47.7,29.353V19.027s-8.816.283-15.233-4.646c-6.418,4.929-15.231,4.646-15.231,4.646V29.353a28.192,28.192,0,0,0,.329,4.64,82.79,82.79,0,0,1,29.807,0,28.354,28.354,0,0,0,.328-4.64" transform="translate(-2.665 -2.156)" fill="#002a5f"/>
    <path id="패스_71113" data-name="패스 71113" d="M17.808,38.389c.067.318.14.642.225.959a21.881,21.881,0,0,0,4.6,8.915l9.921-9.927,9.92,9.927a21.96,21.96,0,0,0,4.6-8.915c.085-.317.158-.641.222-.959a81.877,81.877,0,0,0-29.494,0" transform="translate(-2.754 -5.686)" fill="#002a5f"/>
    <path id="패스_71114" data-name="패스 71114" d="M23,29.228h1.425l.086-.089V26.22l-.086-.09H23.272a.359.359,0,0,0-.36.358v2.651Z" transform="translate(-3.544 -3.985)" fill="#fff"/>
    <path id="패스_71115" data-name="패스 71115" d="M20.667,29.228h1.425l.089-.089V26.488a.357.357,0,0,0-.357-.358H20.667l-.086.09v2.919Z" transform="translate(-3.183 -3.985)" fill="#fff"/>
    <path id="패스_71116" data-name="패스 71116" d="M24.681,26.729h-.3v2.9h-1.8l0,.032a.347.347,0,0,1-.691,0l-.005-.032h-1.8v-2.9h-.3l-.092.089v3.076l.092.089h1.8a.734.734,0,0,0,1.288,0h1.808l.09-.089V26.818Z" transform="translate(-3.045 -4.079)" fill="#fff"/>
    <path id="패스_71117" data-name="패스 71117" d="M48.093,29.421H46.917l-.1.1.385,2.457a.207.207,0,0,0,.2.18h.2l.2-.18.385-2.457Z" transform="translate(-7.24 -4.498)" fill="#fff"/>
    <path id="패스_71118" data-name="패스 71118" d="M48.066,27.416c.3-.265,1.01-1.037.932-1.471-.078-.472-1.392-1.147-1.468-1.66a1.413,1.413,0,0,1,.172-.8l-.079-.018c-.027.019-1.1.819-1.1,1.373a.944.944,0,0,0,.413.677c.216.179.5.339.713.554a.863.863,0,0,1,.244.349c.106.3-.2.77-.385.995H47.08a2.1,2.1,0,0,0,.431-.755c.174-.662-1.48-.828-1.233-1.826l-.069-.021c-.018.01-.657.632-.659,1.062-.006.372.753.718,1.11,1.222l0,.317h-.672s-.161-.02-.094.133l.183.569a.142.142,0,0,0,.142.076H48.39a.148.148,0,0,0,.145-.076l.191-.576c.048-.138-.106-.127-.106-.127Z" transform="translate(-7.045 -3.571)" fill="#fff"/>
    <path id="패스_71119" data-name="패스 71119" d="M31.622,51.247c-.109.078-.666.447-.686.458l-.05.078.062.073L31,51.839l.093-.04.232-.1.008.062v.867l-.008.666-.087.121-.227.017-.066.077.092.065.362,0h.273l.371,0,.09-.065-.068-.077-.189-.017L31.8,53.3l-.014-.666v-.551l.014-.736V51.3l-.074-.1Z" transform="translate(-4.777 -7.89)" fill="#fff"/>
    <path id="패스_71120" data-name="패스 71120" d="M33.32,51.721a.3.3,0,0,1,.32-.312.291.291,0,0,1,.287.322.413.413,0,0,1-.248.4c-.265-.149-.359-.255-.359-.409m-.4.06a.649.649,0,0,0,.392.549.759.759,0,0,0-.509.66c0,.393.314.631.793.631a.747.747,0,0,0,.839-.7.8.8,0,0,0-.5-.667.631.631,0,0,0,.392-.55c0-.309-.261-.5-.653-.5-.557,0-.758.346-.758.579m.307,1.195a.617.617,0,0,1,.311-.529c.248.147.462.279.462.543a.375.375,0,0,1-.381.409.4.4,0,0,1-.391-.423" transform="translate(-5.074 -7.89)" fill="#fff"/>
    <path id="패스_71121" data-name="패스 71121" d="M35.763,51.721a.3.3,0,0,1,.323-.312.286.286,0,0,1,.282.322.409.409,0,0,1-.245.4c-.261-.149-.36-.255-.36-.409m-.4.06a.645.645,0,0,0,.391.549.761.761,0,0,0-.51.66c0,.393.315.631.8.631a.746.746,0,0,0,.833-.7.8.8,0,0,0-.5-.667.62.62,0,0,0,.39-.55c0-.309-.258-.5-.653-.5-.553,0-.753.346-.753.579m.309,1.195a.619.619,0,0,1,.307-.529c.252.147.462.279.462.543a.375.375,0,0,1-.378.409.4.4,0,0,1-.391-.423" transform="translate(-5.452 -7.89)" fill="#fff"/>
    <path id="패스_71122" data-name="패스 71122" d="M38.923,51.242l-.192.014H38l-.1.074-.074.789.093.106c.2.027.719.2.719.667a.447.447,0,0,1-.451.5.317.317,0,0,1-.364-.355l-.068-.092-.078.085-.009.341v.041l.077.158h0a.822.822,0,0,0,.3.053.916.916,0,0,0,1.025-.881c0-.508-.5-.776-.987-.865l.035-.292h.506c.215,0,.215.066.215.123l.071.08.071-.064.041-.39-.069-.1Z" transform="translate(-5.826 -7.895)" fill="#fff"/>
    <path id="패스_71123" data-name="패스 71123" d="M23.518,48.5a23.538,23.538,0,0,0,2.435,2.447l7.485-7.492,7.483,7.489A23.3,23.3,0,0,0,43.359,48.5l-9.92-9.927Z" transform="translate(-3.637 -5.923)" fill="#fff"/>
    <path id="패스_71124" data-name="패스 71124" d="M32.526,36.009a82.664,82.664,0,0,0-14.9,1.352q.068.427.156.867a81.834,81.834,0,0,1,29.5,0q.086-.439.156-.867a82.681,82.681,0,0,0-14.9-1.352" transform="translate(-2.726 -5.524)" fill="#fff"/>
    <path id="패스_71125" data-name="패스 71125" d="M34.141,28.916a3.093,3.093,0,1,1,3.1-3.093,3.1,3.1,0,0,1-3.1,3.093m6.059-3.1a6.056,6.056,0,1,0-6.055,6.041A6.047,6.047,0,0,0,40.2,25.82" transform="translate(-4.344 -2.997)" fill="#fff"/>
  </g>
</svg>
