<svg xmlns="http://www.w3.org/2000/svg" width="105.28" height="27.52" viewBox="0 0 105.28 27.52">
  <path id="패스_71554" data-name="패스 71554" d="M15.6-9.72h5.68a4.746,4.746,0,0,1-1.64,2.96A5.714,5.714,0,0,1,15.8-5.52a6.311,6.311,0,0,1-4.88-2.04A8.346,8.346,0,0,1,8.8-13.32a9,9,0,0,1,2.32-6.12,6.444,6.444,0,0,1,4.56-1.84,5.594,5.594,0,0,1,3.72,1.32,6.529,6.529,0,0,1,1.92,2.68L27.92-20a13.073,13.073,0,0,0-4.76-5.48,14.262,14.262,0,0,0-7.2-1.8A14.274,14.274,0,0,0,5.6-23.36a13.9,13.9,0,0,0-4,10A13.445,13.445,0,0,0,5.44-3.72,13.779,13.779,0,0,0,15.68.24a13.024,13.024,0,0,0,9.4-3.36c3.2-2.96,4.28-6.72,4.28-12H15.6ZM33.76-26.68V0h6.92V-26.68ZM64.2,0h7.4L61.56-26.68H54L43.76,0h7.32l1.8-4.48h9.68ZM54.8-9.76l2.92-8.64,3,8.64ZM80.36,0l2.28-15.36L88.8,0h2.76L98-15.36,99.96,0h6.92l-4-26.68H95.96L90.24-12.44l-5.4-14.24H78L73.48,0Z" transform="translate(-1.6 27.28)" fill="#222"/>
</svg>
