<svg xmlns="http://www.w3.org/2000/svg" xmlns:xlink="http://www.w3.org/1999/xlink" width="158.693" height="38.471" viewBox="0 0 158.693 38.471">
  <defs>
    <clipPath id="clip-path">
      <rect id="사각형_11926" data-name="사각형 11926" width="158.693" height="38.471" fill="none"/>
    </clipPath>
  </defs>
  <g id="그룹_37496" data-name="그룹 37496" transform="translate(0.117)">
    <path id="패스_71161" data-name="패스 71161" d="M3.308,51.056l-.784,1.356,1.086.612,1.564-.9Z" transform="translate(-1.305 -25.766)" fill="#1f60a9"/>
    <path id="패스_71162" data-name="패스 71162" d="M5.181,56.167H6.749l.01-2.145-1.564.9Z" transform="translate(-2.679 -27.275)" fill="#1f60a9"/>
    <path id="패스_71163" data-name="패스 71163" d="M60.62,19.348H59.053L59.044,21.5l1.564-.9Z" transform="translate(-30.532 -9.608)" fill="#1f60a9"/>
    <path id="패스_71164" data-name="패스 71164" d="M61.345,24.651l.787-1.357-1.085-.61-1.564.9Z" transform="translate(-30.387 -11.309)" fill="#1f60a9"/>
    <path id="패스_71165" data-name="패스 71165" d="M59.482,52.075l1.565.9,1.085-.612-.787-1.355Z" transform="translate(-30.387 -25.744)" fill="#1f60a9"/>
    <path id="패스_71166" data-name="패스 71166" d="M59.044,53.975l.009,2.146h1.567l-.013-1.246Z" transform="translate(-30.533 -27.252)" fill="#1f60a9"/>
    <path id="패스_71167" data-name="패스 71167" d="M5.173,23.543l-1.564-.9-1.086.61.784,1.357Z" transform="translate(-1.305 -11.286)" fill="#1f60a9"/>
    <path id="패스_71168" data-name="패스 71168" d="M6.758,21.451l-.009-2.145-1.568,0,.014,1.244Z" transform="translate(-2.679 -9.585)" fill="#1f60a9"/>
    <path id="패스_71169" data-name="패스 71169" d="M35.3,4.321l-1.069.635V6.761l1.851-1.082Z" transform="translate(-17.699 -1.984)" fill="#1f60a9"/>
    <path id="패스_71170" data-name="패스 71170" d="M31.362,4.956,30.29,4.321,29.506,5.68l1.856,1.082Z" transform="translate(-15.258 -1.984)" fill="#1f60a9"/>
    <path id="패스_71171" data-name="패스 71171" d="M30.1,9.867,27.85,8.527l-.777,1.347,3.031,1.8Z" transform="translate(-13.999 -4.159)" fill="#1f60a9"/>
    <path id="패스_71172" data-name="패스 71172" d="M36.476,8.527l-2.25,1.338v1.8l3.028-1.795Z" transform="translate(-17.699 -4.159)" fill="#1f60a9"/>
    <path id="패스_71173" data-name="패스 71173" d="M34.227,70.114l1.069.633.782-1.36-1.851-1.08Z" transform="translate(-17.699 -34.517)" fill="#1f60a9"/>
    <path id="패스_71174" data-name="패스 71174" d="M30.29,70.744l1.072-.635V68.3l-1.856,1.082Z" transform="translate(-15.258 -34.515)" fill="#1f60a9"/>
    <g id="그룹_37495" data-name="그룹 37495" transform="translate(-0.117 0)">
      <g id="그룹_37494" data-name="그룹 37494" clip-path="url(#clip-path)">
        <path id="패스_71175" data-name="패스 71175" d="M33.756,1c0,.553-.3,1-.677,1S32.4,1.555,32.4,1s.3-1,.677-1,.677.448.677,1" transform="translate(-16.439 0.251)" fill="#1f60a9"/>
        <path id="패스_71176" data-name="패스 71176" d="M33.756,74.635c0,.553-.3,1-.677,1s-.677-.448-.677-1,.3-1,.677-1,.677.45.677,1" transform="translate(-16.439 -37.3)" fill="#1f60a9"/>
        <path id="패스_71177" data-name="패스 71177" d="M65.038,20.236c-.478.277-1.017.238-1.2-.087s.049-.812.526-1.088,1.018-.239,1.206.085-.049.814-.528,1.09" transform="translate(-32.467 -9.375)" fill="#1f60a9"/>
        <path id="패스_71178" data-name="패스 71178" d="M1.27,57.054c-.479.276-1.019.238-1.206-.088s.049-.811.528-1.089,1.017-.238,1.2.087-.049.814-.527,1.09" transform="translate(0.117 -28.151)" fill="#1f60a9"/>
        <path id="패스_71179" data-name="패스 71179" d="M1.268,19.061c.479.276.714.763.528,1.089s-.727.365-1.2.086-.715-.763-.528-1.088.726-.364,1.2-.087" transform="translate(0.117 -9.376)" fill="#1f60a9"/>
        <path id="패스_71180" data-name="패스 71180" d="M65.038,55.877c.479.277.714.764.527,1.089s-.726.364-1.2.088-.714-.764-.526-1.09.726-.365,1.2-.087" transform="translate(-32.467 -28.151)" fill="#1f60a9"/>
        <path id="패스_71181" data-name="패스 71181" d="M53.182,45.627l2.981-1.685-.781-1.368L52.39,44.263Z" transform="translate(-26.653 -21.461)" fill="#1f60a9"/>
        <path id="패스_71182" data-name="패스 71182" d="M49.269,51.372l.037,3.468,1.574-.006-.038-3.463Z" transform="translate(-25.058 -25.948)" fill="#1f60a9"/>
        <path id="패스_71183" data-name="패스 71183" d="M11.2,44.329l-3.03-1.71-.78,1.369,3.022,1.706Z" transform="translate(-3.659 -21.484)" fill="#1f60a9"/>
        <path id="패스_71184" data-name="패스 71184" d="M14.97,51.372l-.037,3.485,1.572.007.037-3.491Z" transform="translate(-7.514 -25.948)" fill="#1f60a9"/>
        <path id="패스_71185" data-name="패스 71185" d="M54.184,19.332l-.039,3.431h.247l1.333-.771.032-2.659Z" transform="translate(-27.55 -9.608)" fill="#1f60a9"/>
        <path id="패스_71186" data-name="패스 71186" d="M56.263,25.519l-1.395.807-.092.161,3.013,1.7.787-1.367Z" transform="translate(-27.872 -12.763)" fill="#1f60a9"/>
        <path id="패스_71187" data-name="패스 71187" d="M57.825,46.811l-2.98,1.679.13.222,1.324.765,2.313-1.3Z" transform="translate(-27.907 -23.622)" fill="#1f60a9"/>
        <path id="패스_71188" data-name="패스 71188" d="M55.725,52.175l-1.389-.8h-.192l.04,3.463h1.574Z" transform="translate(-27.549 -25.948)" fill="#1f60a9"/>
        <path id="패스_71189" data-name="패스 71189" d="M30.029,62.78l-2.957,1.755.787,1.367,2.283-1.36V62.976Z" transform="translate(-13.716 -31.765)" fill="#1f60a9"/>
        <path id="패스_71190" data-name="패스 71190" d="M34.227,62.968v1.578L36.505,65.9l.788-1.367L34.336,62.78Z" transform="translate(-17.372 -31.766)" fill="#1f60a9"/>
        <path id="패스_71191" data-name="패스 71191" d="M11.51,51.372l-1.429.828-.033,2.657h1.574l.039-3.485Z" transform="translate(-5.018 -25.948)" fill="#1f60a9"/>
        <path id="패스_71192" data-name="패스 71192" d="M8.755,48.558l-3.024-1.7-.787,1.367,2.315,1.3,1.411-.818Z" transform="translate(-2.41 -23.644)" fill="#1f60a9"/>
        <path id="패스_71193" data-name="패스 71193" d="M8.7,26.3l-1.437-.833-2.315,1.3.787,1.367,3.037-1.711Z" transform="translate(-2.41 -12.739)" fill="#1f60a9"/>
        <path id="패스_71194" data-name="패스 71194" d="M11.661,22.74l-.039-3.453H10.048l.033,2.658,1.374.794Z" transform="translate(-5.017 -9.585)" fill="#1f60a9"/>
        <path id="패스_71195" data-name="패스 71195" d="M27.591,58.548l-2.969,1.761.791,1.361,2.961-1.755Z" transform="translate(-12.465 -29.607)" fill="#1f60a9"/>
        <path id="패스_71196" data-name="패스 71196" d="M35.284,59.927l2.956,1.751.792-1.361-2.957-1.752Z" transform="translate(-17.912 -29.616)" fill="#1f60a9"/>
        <path id="패스_71197" data-name="패스 71197" d="M53.128,28.933,52.345,30.3,55.359,32l.781-1.367Z" transform="translate(-26.63 -14.504)" fill="#1f60a9"/>
        <path id="패스_71198" data-name="패스 71198" d="M50.842,22.757l.037-3.43-1.573-.007-.037,3.437Z" transform="translate(-25.058 -9.602)" fill="#1f60a9"/>
        <path id="패스_71199" data-name="패스 71199" d="M36.03,15.89l2.981-1.768-.792-1.36-2.977,1.764Z" transform="translate(-17.891 -6.258)" fill="#1f60a9"/>
        <path id="패스_71200" data-name="패스 71200" d="M28.389,14.527l-2.976-1.764-.791,1.36L27.6,15.891Z" transform="translate(-12.464 -6.258)" fill="#1f60a9"/>
        <path id="패스_71201" data-name="패스 71201" d="M10.422,28.862,7.389,30.573l.78,1.369,3.039-1.715Z" transform="translate(-3.659 -14.468)" fill="#1f60a9"/>
        <path id="패스_71202" data-name="패스 71202" d="M16.542,22.734l-.037-3.459-1.572.007.036,3.452Z" transform="translate(-7.513 -9.579)" fill="#1f60a9"/>
        <path id="패스_71203" data-name="패스 71203" d="M49.933,40.484l.794,1.364,3-1.692-.544-.942h-1Z" transform="translate(-25.397 -19.748)" fill="#1f60a9"/>
        <path id="패스_71204" data-name="패스 71204" d="M40.622,18.8l.549-.953-.5-.879L37.684,18.74l.764,1.321Z" transform="translate(-19.139 -8.405)" fill="#1f60a9"/>
        <path id="패스_71205" data-name="패스 71205" d="M44.406,22.755h1.567l.038-3.439-1.086,0-.518.9Z" transform="translate(-22.573 -9.6)" fill="#1f60a9"/>
        <path id="패스_71206" data-name="패스 71206" d="M50.735,33.159l-.751,1.308,2.158,1.247h1.113l.494-.854Z" transform="translate(-25.423 -16.66)" fill="#1f60a9"/>
        <path id="패스_71207" data-name="패스 71207" d="M44.406,51.372v2.467l.574,1,1.03.007-.039-3.469Z" transform="translate(-22.573 -25.948)" fill="#1f60a9"/>
        <path id="패스_71208" data-name="패스 71208" d="M38.523,54.359l-.787,1.356,2.957,1.754.526-.9-.561-.972Z" transform="translate(-19.165 -27.471)" fill="#1f60a9"/>
        <path id="패스_71209" data-name="패스 71209" d="M23.191,55.548l-.535.927.554.954,2.973-1.763-.794-1.386Z" transform="translate(-11.46 -27.431)" fill="#1f60a9"/>
        <path id="패스_71210" data-name="패스 71210" d="M21.378,51.372H19.843l-.037,3.492H20.8l.579-1.006Z" transform="translate(-10.004 -25.948)" fill="#1f60a9"/>
        <path id="패스_71211" data-name="패스 71211" d="M11.405,39.214H10.36l-.549.965,3.03,1.711.8-1.386Z" transform="translate(-4.897 -19.748)" fill="#1f60a9"/>
        <path id="패스_71212" data-name="패스 71212" d="M13.605,34.4l-.757-1.316L9.812,34.8l.506.877h1.093Z" transform="translate(-4.897 -16.623)" fill="#1f60a9"/>
        <path id="패스_71213" data-name="패스 71213" d="M23.792,19.143l1.646.948.776-1.349-2.984-1.769-.536.931.513.891Z" transform="translate(-11.478 -8.405)" fill="#1f60a9"/>
        <path id="패스_71214" data-name="패스 71214" d="M21.378,22.733V20.181l-.524-.908H19.806l.037,3.461Z" transform="translate(-10.004 -9.578)" fill="#1f60a9"/>
        <path id="패스_71215" data-name="패스 71215" d="M24.075,23.3a.731.731,0,0,1,.537-.031l.845.268.375-.654-1.965-1.132v1.73a.533.533,0,0,1,.209-.18" transform="translate(-12.078 -10.843)" fill="#1f60a9"/>
        <path id="패스_71216" data-name="패스 71216" d="M40.732,23.378l.236.017a1.028,1.028,0,0,1,.607.262v-1.9l-1.906,1.1.3.522Z" transform="translate(-20.152 -10.843)" fill="#1f60a9"/>
        <path id="패스_71217" data-name="패스 71217" d="M24.571,53.057a1.743,1.743,0,0,1-.232.015.461.461,0,0,1-.068,0,.258.258,0,0,1-.075-.011.638.638,0,0,1-.28-.148.467.467,0,0,1-.049-.055v1.459L25.8,53.2l-.186-.326a7.641,7.641,0,0,1-1.046.187" transform="translate(-12.078 -26.704)" fill="#1f60a9"/>
        <path id="패스_71218" data-name="패스 71218" d="M41.245,53.011a.225.225,0,0,1-.074.014.557.557,0,0,1-.1,0c-.063-.007-.132-.012-.178-.021-.22-.024-.461-.063-.732-.12-.062-.014-.128-.032-.192-.049l-.2.337,1.853,1.077V52.74a.613.613,0,0,1-.383.271" transform="translate(-20.207 -26.645)" fill="#1f60a9"/>
        <path id="패스_71219" data-name="패스 71219" d="M33.3,50.515a5.285,5.285,0,0,1-.487-.205c-.112-.053-.221-.11-.325-.169a.2.2,0,0,0-.027-.016c-.076-.044-.147-.084-.217-.13-.087-.059-.173-.117-.254-.178-.01-.007-.018-.014-.027-.02-.089-.069-.173-.136-.254-.207a3.921,3.921,0,0,1-.776-.937,3.9,3.9,0,0,1-.781.941c-.092.078-.184.155-.286.228l-.012.011a5.014,5.014,0,0,1-.5.321c-.048.027-.1.053-.148.078s-.1.054-.16.081c-.153.074-.313.14-.479.2-.1.035-.19.067-.284.1l2.69,4.7,2.689-4.676c-.12-.037-.24-.073-.362-.119" transform="translate(-14.334 -24.561)" fill="#0c2d83"/>
        <path id="패스_71220" data-name="패스 71220" d="M48.852,38.766l1.932-1.109-1.9-1.1L48.23,37.7Z" transform="translate(-24.527 -18.394)" fill="#1f60a9"/>
        <path id="패스_71221" data-name="패스 71221" d="M15.968,36.5l-1.935,1.123L16,38.767l.634-1.1Z" transform="translate(-7.053 -18.366)" fill="#1f60a9"/>
        <path id="패스_71222" data-name="패스 71222" d="M33.345,21.24H28.531c0,.014,0,.025,0,.038v.02a6.657,6.657,0,0,1-.113,1.167c-.018.121-.036.242-.056.355,0,.011,0,.022-.005.031-.031.193-.068.373-.106.55,0,.009-.006.02-.008.029-.024.112-.052.221-.08.323a8.288,8.288,0,0,1-.452,1.315,8.967,8.967,0,0,0,.906,1.171.121.121,0,0,1,.028.026.518.518,0,0,1,.156.365.469.469,0,0,1-.02.134.514.514,0,0,1-.14.237.1.1,0,0,0-.015.014.6.6,0,0,1-.789.007l-.006.006a9.513,9.513,0,0,1-.742-.855,3.375,3.375,0,0,1-.711.769l-.008-.006a.584.584,0,0,1-.388.143.574.574,0,0,1-.543-.364.576.576,0,0,1-.48.245.606.606,0,0,1-.344-.105.03.03,0,0,0-.007-.007.554.554,0,0,1-.141-.153,3.837,3.837,0,0,1-.5-2.728h0a.03.03,0,0,1,0-.009.477.477,0,0,1,.073-.2.592.592,0,0,1,.979,0,.5.5,0,0,1,.077.267.474.474,0,0,1-.013.109,4,4,0,0,0,.363,2.039.477.477,0,0,1,.046.094.654.654,0,0,1,.116-.128,5.541,5.541,0,0,0,.767-1,7.6,7.6,0,0,1-.663-1.379c-.04-.106-.074-.213-.106-.323,0-.009,0-.02-.01-.029a5.5,5.5,0,0,1-.129-.55.127.127,0,0,1-.005-.031c-.022-.118-.039-.235-.049-.355-.008-.094-.014-.186-.018-.28h0c0-.008,0-.015,0-.022a.57.57,0,0,1,1.132-.043h0a3.326,3.326,0,0,0,.063.345c.022.1.053.22.091.355,0,.011.007.022.007.031.048.162.106.349.181.55,0,.009.006.02.01.029.037.1.077.2.12.3.031-.1.06-.2.086-.3,0-.009,0-.02.007-.029.05-.191.09-.372.123-.55,0-.009,0-.021,0-.031.024-.121.042-.241.057-.355a5.125,5.125,0,0,0,.07-.941A.23.23,0,0,0,27.1,21.3H25.9l-.075,0a.545.545,0,0,1-.543-.539.905.905,0,0,1,.017-.221.451.451,0,0,1,.443-.342l.1.006h.318l-2.7-4.674L20.608,20.5a.536.536,0,0,1,.3.652.623.623,0,0,1-.794.308l-.708-.221H13.6l3.293,5.732L13.6,32.679h6.068a6.1,6.1,0,0,0,.623-.157,3.793,3.793,0,0,0,1.59-.859,2.486,2.486,0,0,0,.287-.331l.019-.03a2.505,2.505,0,0,0,.273-.531c0-.009.007-.021.012-.031a2.974,2.974,0,0,0,.089-.313c.015-.063.028-.133.038-.2H19.311a.648.648,0,0,1-.667-.621v-.055a.648.648,0,0,1,.667-.621h3.414v-.806a.665.665,0,0,1,.7-.619h.063a.667.667,0,0,1,.7.619v.806h3.39a.649.649,0,0,1,.668.621v.055a.649.649,0,0,1-.668.621H24.258c.011.067.024.136.039.2a2.757,2.757,0,0,0,.089.313c0,.01.008.022.011.031a2.721,2.721,0,0,0,.27.531c.008.009.014.02.022.03a1.907,1.907,0,0,0,.285.346,4.021,4.021,0,0,0,1.741.879c.168.048.293.087.411.122h6.218l-3.288-5.707Zm-14.923.782a.5.5,0,0,1,.206-.245.726.726,0,0,1,.592-.064l1.313.426a.667.667,0,0,1,.4.339.474.474,0,0,1,.019.355s0,.007,0,.007a.26.26,0,0,1-.006.026.639.639,0,0,1-.788.279l-.869-.279-.1-.033-.347-.111a.684.684,0,0,1-.344-.244.737.737,0,0,1-.043-.065.475.475,0,0,1-.031-.393m2.136,2.136a4.287,4.287,0,0,1-1.248,2.785.614.614,0,0,1-.46.2.6.6,0,0,1-.319-.087.558.558,0,0,1-.248-.293l0-.006a.53.53,0,0,1,.183-.576l.035-.034a3.109,3.109,0,0,0,.893-2.122h.013a.5.5,0,0,1,.132-.275.621.621,0,0,1,.446-.185.631.631,0,0,1,.448.185.485.485,0,0,1,.133.332.4.4,0,0,1-.006.073M21.652,26.7a.543.543,0,0,1-.14.153l-.007.007a.608.608,0,0,1-.344.105.548.548,0,0,1-.567-.524.518.518,0,0,1,.078-.268,3.966,3.966,0,0,0,.362-2.039.534.534,0,0,1-.013-.109.493.493,0,0,1,.08-.267.591.591,0,0,1,.977,0,.477.477,0,0,1,.073.2h0a.03.03,0,0,1,0,.009h0a3.818,3.818,0,0,1-.5,2.728m2.09-3.294v3.249a.669.669,0,0,1-.691.64h-.009a.668.668,0,0,1-.689-.64V23.022h-.492a.788.788,0,0,1-.5-.17l-.035-.031a.469.469,0,0,1-.153-.338v-.018a.637.637,0,0,1,.689-.523h.492V20.2a.6.6,0,0,1,.128-.37.706.706,0,0,1,.561-.268h.009a.668.668,0,0,1,.691.639v.182h.664a.556.556,0,1,1,0,1.08h-.664v.482h.717a.636.636,0,0,1,.687.523c0,.007,0,.012,0,.018a.473.473,0,0,1-.154.338.443.443,0,0,1-.037.031.773.773,0,0,1-.5.17h-.717Z" transform="translate(-6.831 -7.67)" fill="#0c2d83"/>
        <path id="패스_71223" data-name="패스 71223" d="M100.114,28.695H85V30.3h6.436v1.275H85.573v1.606H97.245v3.394h2.46v-5H93.894V30.3h6.374V28.695Z" transform="translate(-43.314 -14.383)" fill="#0c2d83"/>
        <path id="패스_71224" data-name="패스 71224" d="M93.891,17.628H91.85l-.046.079c-1.4,2.438-4.99,2.758-6.058,2.8l-.15.006-.02.161V22.1l.156,0c4.165-.1,6.192-1.228,7.18-2.2.988.974,3.017,2.105,7.181,2.2l.156,0V20.495l-.178-.007c-1.369-.051-4.7-.422-6.049-2.781l-.045-.079Z" transform="translate(-43.61 -8.739)" fill="#0c2d83"/>
        <path id="패스_71225" data-name="패스 71225" d="M135.223,18.175h-2.168v1.246h-3.011v-.965h-8.6v6.088h8.6v-.962h3.011v1.927a7.735,7.735,0,0,0-3.162-.647c-3.022,0-5.481,1.559-5.481,3.476s2.459,3.476,5.481,3.476,5.471-1.554,5.48-3.464l.005-10.175ZM127.7,22.923h-3.921V20.076H127.7Zm5.35-.929h-3.011v-.985h3.011Zm-6.169,6.344c0-.993,1.35-1.8,3.007-1.8s3.007.808,3.007,1.8-1.348,1.8-3.007,1.8-3.007-.806-3.007-1.8" transform="translate(-61.937 -9.018)" fill="#0c2d83"/>
        <path id="패스_71226" data-name="패스 71226" d="M154.8,22.161a4.479,4.479,0,0,0,4.733,4.164,4.929,4.929,0,0,0,3.877-1.794h3.4V31.12h2.377V18.079h-2.377v1.682h-3.427A4.937,4.937,0,0,0,159.531,18a4.48,4.48,0,0,0-4.733,4.163m2.394,0a2.339,2.339,0,1,1,2.339,2.443,2.393,2.393,0,0,1-2.339-2.443m9.618-.811v1.592h-2.66a3.661,3.661,0,0,0,.111-.781,3.648,3.648,0,0,0-.12-.811Z" transform="translate(-78.979 -8.928)" fill="#0c2d83"/>
        <path id="패스_71227" data-name="패스 71227" d="M231.839,18.867h-5.421v0h-1.566v7.882h7.139V25.164h-4.734V20.456h4.734V18.867Z" transform="translate(-114.774 -9.371)" fill="#0c2d83"/>
        <path id="패스_71228" data-name="패스 71228" d="M247.462,18.153h-2.229V21.3h-.915v-3.15h-2.383V31.2h2.383V22.891h.915V31.2h2.382V18.153Z" transform="translate(-123.503 -9.007)" fill="#0c2d83"/>
        <path id="패스_71229" data-name="패스 71229" d="M198.346,18.834h-8.44v1.589h3.047c-.379,3.709-2.437,4.523-3.321,4.694l-.125.025v1.622l.17-.022a5.642,5.642,0,0,0,4.443-2.874,5.649,5.649,0,0,0,4.49,2.879l.168.02V25.149l-.128-.024c-.9-.159-2.984-.952-3.367-4.7H198.5V18.834Z" transform="translate(-96.714 -9.354)" fill="#0c2d83"/>
        <path id="패스_71230" data-name="패스 71230" d="M214.707,18.17h-2.2V31.208h2.353V22.89h1.778V21.3h-1.778V18.17Z" transform="translate(-108.467 -9.016)" fill="#0c2d83"/>
        <path id="패스_71231" data-name="패스 71231" d="M285.2,18.153H283v7.03h2.352v-2.8h1.709v-1.64h-1.709V18.153Z" transform="translate(-144.488 -9.007)" fill="#0c2d83"/>
        <path id="패스_71232" data-name="패스 71232" d="M274.709,34.252H262.571v1.64h9.905V39.41h2.386V34.252Z" transform="translate(-134.047 -17.217)" fill="#0c2d83"/>
        <path id="패스_71233" data-name="패스 71233" d="M265.221,17.647h-2.228v1.069h-3.858v1.508h1.106a2.482,2.482,0,0,0-.719,1.682c0,1.762,2.106,3.194,4.7,3.194s4.7-1.433,4.7-3.194a2.492,2.492,0,0,0-.718-1.682h.987V18.716h-3.813V17.647Zm-3.284,4.211c0-.9,1-1.632,2.221-1.632s2.225.733,2.225,1.632-1,1.634-2.225,1.634-2.221-.732-2.221-1.634" transform="translate(-132.292 -8.749)" fill="#0c2d83"/>
        <path id="패스_71234" data-name="패스 71234" d="M309.034,19.848H297.051v1.589h9.732v7.342h2.407v-8.93Z" transform="translate(-151.665 -9.871)" fill="#0c2d83"/>
        <path id="패스_71235" data-name="패스 71235" d="M303.259,28.36h-2.251v5.706h-1.746V28.36h-2.407v5.706h-2.371v1.59h14.508v-1.59h-5.58V28.36Z" transform="translate(-150.354 -14.212)" fill="#0c2d83"/>
        <path id="패스_71236" data-name="패스 71236" d="M87.188,53.786c-.954-.354-.826-.86-.821-.882.074-.525.712-.52.738-.52a1.079,1.079,0,0,1,.876.381l.008.013h.153v-.942l-.038.009a1.775,1.775,0,0,1-.647-.061,1.7,1.7,0,0,0-1.607.429,1.356,1.356,0,0,0-.227,1.247,2.023,2.023,0,0,0,1.154,1c.775.319.744.825.743.83,0,.786-.846.817-.882.818a1.3,1.3,0,0,1-1.029-.516l-.016-.024-.078.052c-.013.025.042.853.042.853.283.285,1.13.289,1.166.289a1.752,1.752,0,0,0,1.3-.541,1.416,1.416,0,0,0,.312-1c0-1.017-1.138-1.432-1.151-1.435" transform="translate(-43.578 -26.135)" fill="#0c2d83"/>
        <path id="패스_71237" data-name="패스 71237" d="M94.63,51.737a2.36,2.36,0,0,0-2.525,2.513,2.411,2.411,0,0,0,2.525,2.513,2.513,2.513,0,1,0,0-5.027M96.31,54.25A1.717,1.717,0,0,1,94.63,56.1a1.62,1.62,0,0,1-1.665-1.848A1.653,1.653,0,0,1,94.63,52.4a1.622,1.622,0,0,1,1.176.45,1.914,1.914,0,0,1,.5,1.4" transform="translate(-46.946 -26.134)" fill="#0c2d83"/>
        <path id="패스_71238" data-name="패스 71238" d="M106,51.737a2.36,2.36,0,0,0-2.525,2.513A2.411,2.411,0,0,0,106,56.764a2.513,2.513,0,1,0,0-5.027m1.68,2.513A1.718,1.718,0,0,1,106,56.1a1.619,1.619,0,0,1-1.664-1.848A1.653,1.653,0,0,1,106,52.4a1.622,1.622,0,0,1,1.177.45,1.917,1.917,0,0,1,.5,1.4" transform="translate(-52.755 -26.134)" fill="#0c2d83"/>
        <path id="패스_71239" data-name="패스 71239" d="M118.433,56.116s-1.876-1.985-1.915-2.026l1.83-1.729a1.164,1.164,0,0,1,.535-.274h.025v-.145h-1.584v.15l.021.007c.062.019.1.046.107.081a.056.056,0,0,1,0,.017.223.223,0,0,1-.07.134l-1.566,1.5V52.463a.4.4,0,0,1,.279-.376l.02-.005v-.14h-1.476v.147h.028c.292,0,.312.361.313.376V56.2a.382.382,0,0,1-.316.4l-.024,0v.15h1.476V56.6l-.021,0c-.268-.072-.277-.39-.278-.4V54.474l1.663,1.781c.391.443.652.491.664.492h.931v-.208l-.021,0a2.069,2.069,0,0,1-.622-.42" transform="translate(-58.461 -26.238)" fill="#0c2d83"/>
        <path id="패스_71240" data-name="패스 71240" d="M130.276,55.985l-1.042-4.38h-.121c-.025.016-1.45,3.177-1.652,3.63l-1.645-3.613-.127-.017h-.023l-.981,4.38c-.087.4-.314.456-.324.459l-.023.005v.12h1.313v-.12l-.022,0a.265.265,0,0,1-.2-.277.409.409,0,0,1,.005-.067s.418-2.145.5-2.558l1.465,3.16.14.015c.023-.015,1.21-2.685,1.426-3.172.032.167.5,2.509.5,2.509a.722.722,0,0,1,.014.134.262.262,0,0,1-.053.179.16.16,0,0,1-.126.053l-.031,0v.151h1.347v-.12a.755.755,0,0,1-.335-.464" transform="translate(-63.415 -26.067)" fill="#0c2d83"/>
        <path id="패스_71241" data-name="패스 71241" d="M139.629,52.095V52.2l.021.006a.2.2,0,0,1,.112.091.157.157,0,0,1,.015.069.245.245,0,0,1-.021.1l-.869,1.476-.846-1.478a.244.244,0,0,1-.007-.176l.113-.086.009-.018v-.087h-1.414v.113l.026,0s.2.022.489.494l1.168,1.928,0,1.739a.342.342,0,0,1-.313.283l-.025,0v.162h1.5v-.158l-.022-.006s-.317-.084-.317-.311V54.618s1.2-1.912,1.2-1.912.222-.421.5-.5l.022-.006v-.107h-1.335Z" transform="translate(-69.754 -26.316)" fill="#0c2d83"/>
        <path id="패스_71242" data-name="패스 71242" d="M148.907,52.076v.111l.019.007a.479.479,0,0,1,.3.47v2.607a.944.944,0,0,1-.265.707,1.229,1.229,0,0,1-.79.29,1.215,1.215,0,0,1-.788-.288.937.937,0,0,1-.265-.707V52.668a.479.479,0,0,1,.3-.47l.019-.007v-.112h-1.454v.113L146,52.2a.5.5,0,0,1,.31.525v2.66a1.649,1.649,0,0,0,1.858,1.546,1.94,1.94,0,0,0,1.455-.507,1.514,1.514,0,0,0,.4-1.043V52.72a.5.5,0,0,1,.311-.525l.021-.006v-.113h-1.454Z" transform="translate(-74.475 -26.307)" fill="#0c2d83"/>
        <path id="패스_71243" data-name="패스 71243" d="M159.051,51.961h.028c.275,0,.321.309.322.323v2.7c-.1-.109-3.094-3.4-3.094-3.4l-.111-.009h-.029v4.175c0,.635-.315.647-.329.648h-.028v.156h1.416V56.4H157.2a.227.227,0,0,1-.167-.068.724.724,0,0,1-.127-.442c0-.012,0-2.386,0-2.526l3.087,3.4.112.009h.03V52.4c0-.418.31-.439.323-.439l.026,0v-.123h-1.432Z" transform="translate(-79.497 -26.05)" fill="#0c2d83"/>
        <path id="패스_71244" data-name="패스 71244" d="M169.349,54.383l.027,0c.009,0,.246.023.318.379v1.2a2.137,2.137,0,0,1-1.124.179,1.765,1.765,0,0,1-1.5-1.731,2.1,2.1,0,0,1,.438-1.386,1.771,1.771,0,0,1,1.281-.561,1.972,1.972,0,0,1,1.209.414l.082.007h.029v-.926l-.037.012a1.394,1.394,0,0,1-.658-.053,2.72,2.72,0,0,0-2.18.342,2.619,2.619,0,0,0-1,2.172,2.417,2.417,0,0,0,2.307,2.374,4.108,4.108,0,0,0,1.923-.382l.015-2.174h-1.136Z" transform="translate(-84.825 -26.176)" fill="#0c2d83"/>
        <path id="패스_71245" data-name="패스 71245" d="M239.88,53.866c-.949-.351-.822-.856-.815-.876.073-.523.707-.517.733-.517a1.066,1.066,0,0,1,.87.379l.008.012h.15v-.937l-.036.01a1.779,1.779,0,0,1-.641-.062,1.7,1.7,0,0,0-1.6.426,1.353,1.353,0,0,0-.226,1.241,2.017,2.017,0,0,0,1.148,1c.771.317.738.821.738.825,0,.781-.841.814-.878.815a1.3,1.3,0,0,1-1.024-.514l-.015-.024-.078.051c-.012.026.042.848.042.848.282.285,1.125.288,1.16.288a1.75,1.75,0,0,0,1.3-.538,1.409,1.409,0,0,0,.31-1c0-1.01-1.134-1.422-1.145-1.427" transform="translate(-121.603 -26.182)" fill="#0c2d83"/>
        <path id="패스_71246" data-name="패스 71246" d="M196.744,51.838a2.337,2.337,0,0,0-2.5,2.488,2.385,2.385,0,0,0,2.5,2.486,2.487,2.487,0,1,0,0-4.974m1.661,2.487a1.7,1.7,0,0,1-1.661,1.83,1.6,1.6,0,0,1-1.647-1.829,1.637,1.637,0,0,1,1.647-1.831,1.6,1.6,0,0,1,1.162.444,1.9,1.9,0,0,1,.5,1.385" transform="translate(-99.135 -26.185)" fill="#0c2d83"/>
        <path id="패스_71247" data-name="패스 71247" d="M210.717,55.988l-1.041-4.378h-.122c-.024.016-1.449,3.176-1.651,3.628l-1.645-3.611-.127-.017h-.023l-.982,4.378c-.087.4-.313.457-.322.46l-.024,0v.12h1.311v-.12l-.021,0a.264.264,0,0,1-.2-.276.5.5,0,0,1,.005-.068s.419-2.144.5-2.557c.07.153,1.463,3.159,1.463,3.159l.14.015c.022-.015,1.209-2.684,1.425-3.169.032.165.5,2.508.5,2.508a.729.729,0,0,1,.015.134.259.259,0,0,1-.054.178.162.162,0,0,1-.127.053l-.03,0v.151h1.346v-.12a.755.755,0,0,1-.335-.464" transform="translate(-104.519 -26.069)" fill="#0c2d83"/>
        <path id="패스_71248" data-name="패스 71248" d="M228.407,51.885h.027c.279,0,.325.313.326.326v2.725c-.1-.106-3.12-3.433-3.12-3.433l-.112-.01H225.5V55.7c0,.641-.317.655-.331.655h-.029v.158h1.427v-.159h-.028a.219.219,0,0,1-.168-.069.716.716,0,0,1-.129-.444V53.3c.1.106,3.113,3.428,3.113,3.428l.114.009h.029v-4.4c0-.421.312-.443.325-.444h.028v-.123h-1.444Z" transform="translate(-114.922 -26.009)" fill="#0c2d83"/>
        <path id="패스_71249" data-name="패스 71249" d="M187.317,52.043V51.9H186.04v.119l.025,0a.238.238,0,0,1,.149.093.211.211,0,0,1,.032.12.414.414,0,0,1-.014.1s-.833,2.291-.965,2.651c-.051-.139-1.2-3.213-1.2-3.213h-.135s-1.165,3.079-1.218,3.217c-.05-.137-.936-2.573-.936-2.573a.544.544,0,0,1-.048-.2.209.209,0,0,1,.024-.1.192.192,0,0,1,.161-.082h.026v-.12h-1.382v.121h.03s.185.012.4.607l1.57,4.225h.173l1.228-3.228,1.2,3.228h.144l1.637-4.356c.046-.13.2-.466.345-.466Z" transform="translate(-92.142 -26.154)" fill="#0c2d83"/>
        <path id="패스_71250" data-name="패스 71250" d="M220.612,56.149h-1.1c-.007,0-.213,0-.213-.193V54.571h1.076s.385.029.473.321l.006.021h.151v-1.3h-.13a.615.615,0,0,1-.533.348H219.3c0-.053-.006-1.238-.006-1.29h1.339a.375.375,0,0,1,.337.268l.006.02h.13v-.942h-2.952v.122l.024,0s.313.049.313.695V56c0,.008.028.575-.315.642l-.022.006v.134h2.914l.137-.969h-.121c-.033.029-.159.334-.473.334" transform="translate(-111.352 -26.278)" fill="#0c2d83"/>
        <path id="패스_71251" data-name="패스 71251" d="M235.82,52.05l.08,1.979h.486l.117-1.979h-.683Z" transform="translate(-120.379 -26.294)" fill="#0c2d83"/>
        <path id="패스_71252" data-name="패스 71252" d="M300.52,53.788c-.955-.354-.826-.861-.823-.883.075-.526.714-.521.74-.521a1.081,1.081,0,0,1,.877.381l.008.012h.15v-.943l-.036.009a1.762,1.762,0,0,1-.648-.061,1.707,1.707,0,0,0-1.609.429,1.36,1.36,0,0,0-.227,1.248,2.017,2.017,0,0,0,1.154,1.006c.778.321.745.827.745.831,0,.788-.848.82-.884.821a1.311,1.311,0,0,1-1.031-.517l-.015-.025-.078.052c-.014.026.041.855.041.855.282.287,1.132.29,1.168.29a1.768,1.768,0,0,0,1.307-.542,1.419,1.419,0,0,0,.311-1c0-1.018-1.14-1.433-1.152-1.437" transform="translate(-152.581 -26.134)" fill="#0c2d83"/>
        <path id="패스_71253" data-name="패스 71253" d="M252.268,52.036v.112l.018.005a.486.486,0,0,1,.3.473v2.632a.944.944,0,0,1-.267.713,1.23,1.23,0,0,1-1.593,0,.952.952,0,0,1-.268-.713V52.633a.483.483,0,0,1,.3-.474l.019-.007V52.04h-1.467v.111l.02.007a.5.5,0,0,1,.314.53v2.686a1.663,1.663,0,0,0,1.874,1.56,1.946,1.946,0,0,0,1.468-.514,1.523,1.523,0,0,0,.408-1.052V52.686a.5.5,0,0,1,.313-.53l.02-.007v-.113h-1.466Z" transform="translate(-127.275 -26.286)" fill="#0c2d83"/>
        <path id="패스_71254" data-name="패스 71254" d="M262.188,51.886h.028c.28,0,.326.314.326.327v2.725l-3.119-3.431-.112-.012h-.028V55.7c0,.642-.318.667-.331.667l-.03,0v.144h1.425V56.37h-.027a.215.215,0,0,1-.165-.068.753.753,0,0,1-.131-.458V53.3l3.113,3.428.112.009h.029v-4.4c0-.421.313-.443.326-.444h.028V51.76h-1.445Z" transform="translate(-132.183 -26.01)" fill="#0c2d83"/>
        <path id="패스_71255" data-name="패스 71255" d="M285.584,56.148h-1.095c-.009,0-.213,0-.213-.192v-1.38h1.073s.383.029.469.319l.006.021h.152V53.623h-.13a.617.617,0,0,1-.531.349h-1.04c0-.054-.007-1.232-.007-1.285H285.6a.372.372,0,0,1,.337.267l.006.021h.129v-.94h-2.94v.121l.025,0s.313.049.313.693V56c0,.006.027.572-.314.638l-.023.006v.133h2.9l.134-.965h-.119c-.032.031-.158.334-.47.334" transform="translate(-144.555 -26.285)" fill="#0c2d83"/>
        <path id="패스_71256" data-name="패스 71256" d="M269.413,52.036v.124h.027c.012,0,.3.029.3.53v3.369c0,.006.024.472-.311.6l-.019.088v.03h1.475v-.114l-.024,0c-.013,0-.311-.056-.311-.6V52.648a.667.667,0,0,1,.127-.412.24.24,0,0,1,.179-.074h.029v-.126h-1.475Z" transform="translate(-137.543 -26.286)" fill="#0c2d83"/>
        <path id="패스_71257" data-name="패스 71257" d="M305.382,52.036v.124h.028c.011,0,.3.029.3.53v3.369c0,.006.025.472-.311.6l-.019.088v.03h1.474v-.114l-.023,0c-.012,0-.31-.056-.31-.6V52.648a.654.654,0,0,1,.127-.412.239.239,0,0,1,.179-.074h.028v-.126h-1.474Z" transform="translate(-155.922 -26.286)" fill="#0c2d83"/>
        <path id="패스_71258" data-name="패스 71258" d="M276.321,52.036v.124h.028a.175.175,0,0,1,.129.067.132.132,0,0,1,.022.078.34.34,0,0,1-.025.118s-1.112,2.588-1.29,3.005c-.05-.119-1.2-2.86-1.2-2.86a.724.724,0,0,1-.049-.226.218.218,0,0,1,.03-.119.165.165,0,0,1,.151-.063h.026v-.126H272.7v.127h.029s.19,0,.452.6l1.915,4.221.157.016c.026-.016,2.086-4.606,2.086-4.606s.139-.232.292-.232h.028v-.126h-1.335Z" transform="translate(-139.221 -26.286)" fill="#0c2d83"/>
        <path id="패스_71259" data-name="패스 71259" d="M293.969,56.523l-1.325-1.913a1.3,1.3,0,0,0,1.038-1.232s0-.01,0-.023a1.376,1.376,0,0,0-.357-.916,1.5,1.5,0,0,0-1.122-.4h-2.052v.129l.033,0a.223.223,0,0,1,.161.061.623.623,0,0,1,.143.467V56.1c0,.006.02.5-.3.565l-.023,0v.114h1.465v-.114l-.022,0c-.013,0-.294-.065-.294-.5V52.673a.688.688,0,0,1,.455-.108c.009,0,.874,0,1.042.609a.968.968,0,0,1-.112.7.931.931,0,0,1-.734.311H291.5v.124c0,.015,1.428,2.181,1.428,2.181a1.083,1.083,0,0,0,.42.351h.63a.482.482,0,0,0,.259-.076l.009-.087v-.042l-.04.015s-.106.042-.235-.129" transform="translate(-148.14 -26.286)" fill="#0c2d83"/>
        <path id="패스_71260" data-name="패스 71260" d="M312.214,52.036h-3.136l-.078.342v.594h.082c.027-.018.225-.339.516-.339h.649v3.451c0,.1-.019.466-.309.579l-.019.088v.03h1.473v-.114l-.024,0c-.013,0-.31-.056-.31-.6V52.633h.633a.679.679,0,0,1,.492.324l.08.014h.027v-.588c0-.006-.072-.326-.072-.326Z" transform="translate(-157.771 -26.286)" fill="#0c2d83"/>
        <path id="패스_71261" data-name="패스 71261" d="M320.039,52.036h-1.307v.123l.025,0a.115.115,0,0,1,.09.053.151.151,0,0,1,.011.063.526.526,0,0,1-.069.221s-.758,1.32-.8,1.4l-.918-1.548a.2.2,0,0,1-.031-.092.069.069,0,0,1,.011-.04c.031-.05.133-.059.168-.057h.03v-.127h-1.419v.126h.029c.183,0,.315.209.317.211l1.334,2.241,0,1.447c0,.006.024.472-.31.6l-.019.088v.03h1.473v-.114l-.024,0c-.013,0-.31-.056-.31-.6V54.6s1.3-2.1,1.3-2.1a.626.626,0,0,1,.425-.337h.027v-.124Z" transform="translate(-161.26 -26.286)" fill="#0c2d83"/>
      </g>
    </g>
  </g>
</svg>
