<svg id="그룹_37493" data-name="그룹 37493" xmlns="http://www.w3.org/2000/svg" xmlns:xlink="http://www.w3.org/1999/xlink" width="254.16" height="58.063" viewBox="0 0 254.16 58.063">
  <defs>
    <clipPath id="clip-path">
      <rect id="사각형_11925" data-name="사각형 11925" width="254.16" height="58.063" fill="none"/>
    </clipPath>
  </defs>
  <g id="그룹_37492" data-name="그룹 37492" clip-path="url(#clip-path)">
    <path id="패스_71126" data-name="패스 71126" d="M98.548,60.214A25.223,25.223,0,0,1,96,58.594a.81.81,0,0,1-.256-.565,1.138,1.138,0,0,1,.537-1.1s.268-.33,1.314-.33a2.962,2.962,0,0,1,1.476.459l-.059-.952a5.568,5.568,0,0,0-2.966.049,2.071,2.071,0,0,0-1.3,1.867A2.161,2.161,0,0,0,95.9,59.848a12.569,12.569,0,0,1,2.683,1.735,1.518,1.518,0,0,1,.015,1.577,2.089,2.089,0,0,1-1.691.756,4.971,4.971,0,0,1-2.056-.452l.073.887a16.073,16.073,0,0,0,2,.177,3.873,3.873,0,0,0,2.074-.494,2.374,2.374,0,0,0,.882-1.711,2.235,2.235,0,0,0-1.328-2.107" transform="translate(-21.84 -12.674)" fill="#002474"/>
    <path id="패스_71127" data-name="패스 71127" d="M104.8,63.707V60.1h2.626a.646.646,0,0,1,.385.105v-.74H104.8V56.721h2.715a.784.784,0,0,1,.429.15l-.034-.886h-4.188a1.437,1.437,0,0,1,.152.623v7.225s.032.118-.158.54h4.513l.121-.817a1.772,1.772,0,0,1-.811.15Z" transform="translate(-23.906 -12.691)" fill="#002474"/>
    <path id="패스_71128" data-name="패스 71128" d="M115.8,63.681a3.564,3.564,0,1,1,3.248-3.546,3.406,3.406,0,0,1-3.248,3.546m0-7.752a4.2,4.2,0,1,0,4.144,4.206,4.171,4.171,0,0,0-4.144-4.206" transform="translate(-25.737 -12.678)" fill="#002474"/>
    <path id="패스_71129" data-name="패스 71129" d="M192.245,63.681a3.564,3.564,0,1,1,3.249-3.546,3.408,3.408,0,0,1-3.249,3.546m0-7.752a4.2,4.2,0,1,0,4.141,4.206,4.171,4.171,0,0,0-4.141-4.206" transform="translate(-43.357 -12.678)" fill="#002474"/>
    <path id="패스_71130" data-name="패스 71130" d="M131.454,55.99H130.34c.119.08.136.419.136.419V61.5a2.276,2.276,0,1,1-4.552,0l.011-.117-.02-5.368-.9-.021v5.528a3.185,3.185,0,0,0,6.353-.041h-.01V56.4a1.372,1.372,0,0,1,.092-.411" transform="translate(-28.816 -12.692)" fill="#002474"/>
    <path id="패스_71131" data-name="패스 71131" d="M137.517,63.763V56.524a.821.821,0,0,1,.144-.52H136.5a.547.547,0,0,1,.1.359v8.015h4.462l.261-.76a1.607,1.607,0,0,1-.712.145Z" transform="translate(-31.461 -12.695)" fill="#002474"/>
    <path id="패스_71132" data-name="패스 71132" d="M226.723,63.763V56.524a.836.836,0,0,1,.14-.52H225.7a.516.516,0,0,1,.094.359v8.015h4.452l.268-.76a1.62,1.62,0,0,1-.713.145Z" transform="translate(-52.022 -12.695)" fill="#002474"/>
    <path id="패스_71133" data-name="패스 71133" d="M157.449,56.576v5.875l-5.833-6.469h-.943a1.063,1.063,0,0,1,.164.642v7.152a1.675,1.675,0,0,1-.119.567v.007h.923a1.819,1.819,0,0,1-.1-.607v-6.58l6.546,7.139V56.546a2.129,2.129,0,0,1,.11-.564h-.886c.156.16.14.594.14.594" transform="translate(-34.729 -12.69)" fill="#002474"/>
    <path id="패스_71134" data-name="패스 71134" d="M208.051,56.576v5.875l-5.831-6.469h-.951a1.037,1.037,0,0,1,.17.642v7.152a1.789,1.789,0,0,1-.122.567v.007h.923a1.871,1.871,0,0,1-.1-.607v-6.58l6.547,7.139V56.546a2,2,0,0,1,.119-.564h-.9c.162.16.145.594.145.594" transform="translate(-46.391 -12.69)" fill="#002474"/>
    <path id="패스_71135" data-name="패스 71135" d="M164.766,60.523l1.327-3.384,1.6,3.384Zm1.836-4.539h-1.063a1.205,1.205,0,0,1,.033.692l-2.7,6.907a3.533,3.533,0,0,1-.522.79h1.01a.833.833,0,0,1,.094-.517l1.106-2.7h3.407l1.148,2.382a1.851,1.851,0,0,1,.145.836h1.428a6.358,6.358,0,0,1-.762-1.214Z" transform="translate(-37.42 -12.69)" fill="#002474"/>
    <path id="패스_71136" data-name="패스 71136" d="M215.775,60.523l1.327-3.384,1.6,3.384Zm1.629-4.539h-1.063a1.213,1.213,0,0,1,.035.692l-2.692,6.907a3.605,3.605,0,0,1-.517.79h1a.844.844,0,0,1,.094-.517l1.1-2.7h3.4l1.15,2.382a1.8,1.8,0,0,1,.147.836h1.424a6.478,6.478,0,0,1-.763-1.214Z" transform="translate(-49.133 -12.69)" fill="#002474"/>
    <path id="패스_71137" data-name="패스 71137" d="M173.344,56.009l-.065.015-.2.719a1.139,1.139,0,0,1,.515-.1h2.243V63.92a2.881,2.881,0,0,1-.077.479h1.206a1.445,1.445,0,0,1-.133-.5V56.664h1.749a2.367,2.367,0,0,1,.943.179l-.163-.834Z" transform="translate(-39.894 -12.696)" fill="#002474"/>
    <path id="패스_71138" data-name="패스 71138" d="M185.14,55.984h-1.15a1.048,1.048,0,0,1,.145.467v7.367a1.624,1.624,0,0,1-.145.575h1.147a1.239,1.239,0,0,1-.142-.6V56.433a1.189,1.189,0,0,1,.145-.449" transform="translate(-42.408 -12.69)" fill="#002474"/>
    <path id="패스_71139" data-name="패스 71139" d="M302.066,60.147a25.582,25.582,0,0,1-2.549-1.616.824.824,0,0,1-.256-.568,1.144,1.144,0,0,1,.537-1.1s.267-.327,1.311-.327a3,3,0,0,1,1.484.452l-.06-.954a5.561,5.561,0,0,0-2.97.063,2.06,2.06,0,0,0-1.3,1.858,2.177,2.177,0,0,0,1.148,1.827,12.677,12.677,0,0,1,2.683,1.737,1.5,1.5,0,0,1,.015,1.573,2.082,2.082,0,0,1-1.691.76,4.936,4.936,0,0,1-2.058-.457l.075.885a16,16,0,0,0,2,.179,3.841,3.841,0,0,0,2.07-.5,2.361,2.361,0,0,0,.887-1.7,2.267,2.267,0,0,0-1.33-2.118" transform="translate(-68.748 -12.66)" fill="#002474"/>
    <path id="패스_71140" data-name="패스 71140" d="M281.345,63.7V60.1h2.62a.663.663,0,0,1,.389.106v-.744h-3.009V56.719h2.712a.825.825,0,0,1,.433.144l-.035-.886h-4.192a1.388,1.388,0,0,1,.155.623v7.222s.027.127-.161.548h4.515l.122-.828a1.739,1.739,0,0,1-.82.156Z" transform="translate(-64.597 -12.689)" fill="#002474"/>
    <path id="패스_71141" data-name="패스 71141" d="M244.915,55.923H243.8c.124.077.136.423.136.423v5.088a2.274,2.274,0,1,1-4.549,0l.006-.114-.018-5.375-.894-.016v5.527a3.185,3.185,0,0,0,6.353-.043h-.008V56.334a1.4,1.4,0,0,1,.089-.411" transform="translate(-54.968 -12.677)" fill="#002474"/>
    <path id="패스_71142" data-name="패스 71142" d="M257.2,56.567v5.876l-5.834-6.464h-.943a1.01,1.01,0,0,1,.165.633v7.151a1.8,1.8,0,0,1-.121.574v.005h.923a1.8,1.8,0,0,1-.1-.6V57.155l6.551,7.142V56.53a2.05,2.05,0,0,1,.11-.551h-.892c.155.156.143.588.143.588" transform="translate(-57.721 -12.689)" fill="#002474"/>
    <path id="패스_71143" data-name="패스 71143" d="M311.342,55.979l-.066.009-.2.718a1.175,1.175,0,0,1,.514-.1h2.249v7.281a3.058,3.058,0,0,1-.081.472h1.2a1.5,1.5,0,0,1-.126-.5V56.63h1.751a2.337,2.337,0,0,1,.934.178l-.162-.829Z" transform="translate(-71.7 -12.689)" fill="#002474"/>
    <path id="패스_71144" data-name="패스 71144" d="M308.647,55.936h-1.153a1.05,1.05,0,0,1,.149.47v7.362a1.81,1.81,0,0,1-.142.581h1.14a1.263,1.263,0,0,1-.141-.6V56.388a1.241,1.241,0,0,1,.148-.452" transform="translate(-70.875 -12.68)" fill="#002474"/>
    <path id="패스_71145" data-name="패스 71145" d="M265.206,55.936h-1.154a1.072,1.072,0,0,1,.145.47v7.362a1.872,1.872,0,0,1-.14.581H265.2a1.272,1.272,0,0,1-.139-.6V56.388a1.116,1.116,0,0,1,.145-.452" transform="translate(-60.862 -12.68)" fill="#002474"/>
    <path id="패스_71146" data-name="패스 71146" d="M274.663,56.538,271.83,62.82l-2.882-6.282c-.227-.407-.114-.588-.114-.588h-1.214a13.116,13.116,0,0,1,.651,1.247l3.484,7.337,3.614-7.79a3.134,3.134,0,0,1,.588-.794h-1.184s.115.182-.112.588" transform="translate(-61.684 -12.683)" fill="#002474"/>
    <path id="패스_71147" data-name="패스 71147" d="M294.131,63.048l-2.6-3.065a2.96,2.96,0,0,0,1.577-.691,2.1,2.1,0,0,0,.6-1.438,1.872,1.872,0,0,0-.61-1.3,2.419,2.419,0,0,0-1.672-.607,20.856,20.856,0,0,0-2.272.084.629.629,0,0,1,.131.39v7.507a1.046,1.046,0,0,1-.1.407h1.14a.729.729,0,0,1-.124-.4V59.647h.012l-.012-.006V56.857l.018-.087s.013-.212.776-.212a1.826,1.826,0,0,1,1.2.4,1.445,1.445,0,0,1,.507.947s.033.863-.418,1.176a2.985,2.985,0,0,1-2.074.565l3.743,4.669h1.316c-.281-.238-1.135-1.268-1.135-1.268" transform="translate(-66.645 -12.681)" fill="#002474"/>
    <path id="패스_71148" data-name="패스 71148" d="M326.07,56.274l-1.79,3.075-1.905-3a.5.5,0,0,1-.079-.393h-1.353a2.6,2.6,0,0,1,.492.613l2.206,3.449v3.866a1.137,1.137,0,0,1-.082.444h1.187a1.008,1.008,0,0,1-.129-.411V60.031l2-3.117c.613-1.011.67-.985.67-.985H326.15a.889.889,0,0,1-.08.345" transform="translate(-73.975 -12.678)" fill="#002474"/>
    <path id="패스_71149" data-name="패스 71149" d="M101.49,15.643c-.069-1.057-.03-3.024-.03-3.024H98.6s.04,1.967-.026,3.024a15.608,15.608,0,0,1-6.433,11.9l1.434,2.125a16.224,16.224,0,0,0,6.455-8.111,16.258,16.258,0,0,0,6.459,8.111l1.436-2.125a15.591,15.591,0,0,1-6.432-11.9" transform="translate(-21.237 -2.86)" fill="#002474"/>
    <path id="패스_71150" data-name="패스 71150" d="M157.764,10.224a2.7,2.7,0,1,1-2.683,2.705,2.693,2.693,0,0,1,2.683-2.705m0,7.859a5.158,5.158,0,1,0-5.135-5.154,5.14,5.14,0,0,0,5.135,5.154" transform="translate(-35.18 -1.761)" fill="#002474"/>
    <path id="패스_71151" data-name="패스 71151" d="M257.875,22.516a2.552,2.552,0,1,1-2.555-2.567,2.561,2.561,0,0,1,2.555,2.567m-7.582,0a5.028,5.028,0,1,0,5.027-5.058,5.037,5.037,0,0,0-5.027,5.058" transform="translate(-57.69 -3.957)" fill="#002474"/>
    <path id="패스_71152" data-name="패스 71152" d="M319.671,26.626s-.315,4.914-1.575,7.725H320.8a31.173,31.173,0,0,0,1.434-7.8V13.558H304.261v2.414h15.41Z" transform="translate(-70.129 -3.073)" fill="#002474"/>
    <path id="패스_71153" data-name="패스 71153" d="M116.274,37.4h2.819V10.963h-2.819v7.68h-5.12v2.591h5.12Z" transform="translate(-25.62 -2.485)" fill="#002474"/>
    <path id="패스_71154" data-name="패스 71154" d="M215.723,21.931h2.118V37.4h2.812V10.963h-2.812v8.374h-2.118V10.963H212.9V37.4h2.82Z" transform="translate(-49.072 -2.485)" fill="#002474"/>
    <path id="패스_71155" data-name="패스 71155" d="M265.908,37.414h2.819V26.989h-1.02V18.141h3.781V15.822h-3.781V10.963h-2.819V26.989H249.021v2.417h16.887Z" transform="translate(-57.397 -2.485)" fill="#002474"/>
    <path id="패스_71156" data-name="패스 71156" d="M165.376,37.336H149.192V35.342h16.184V28.124h-8V24.819H166.7V22.3H145.336v2.515H154.6v3.305h-7.94v2.515H162.8v2.193H146.66V34.34h-.047v5.513h18.762Z" transform="translate(-33.499 -5.056)" fill="#002474"/>
    <path id="패스_71157" data-name="패스 71157" d="M315.01,37.033V25.254H312.29V37.033h-3.133V25.254h-2.721V37.033h-3.53v2.419h21.071V37.033Z" transform="translate(-69.817 -5.725)" fill="#002474"/>
    <path id="패스_71158" data-name="패스 71158" d="M261.118,12.973h-5.333V10.556h-2.769v2.417h-5.334v2.319h13.437Z" transform="translate(-57.088 -2.393)" fill="#002474"/>
    <path id="패스_71159" data-name="패스 71159" d="M206.253,29.854V27.339h-7.6V16.312H205.9V13.8H195.872V29.87h2.776v-.016Z" transform="translate(-45.147 -3.128)" fill="#002474"/>
    <path id="패스_71160" data-name="패스 71160" d="M32.6,7.054c-.909-2.04-3.968-.64-3.968-.64,2.573,1.645,3.968.64,3.968.64m-5.058-.3a.582.582,0,1,0-.578-.582.582.582,0,0,0,.578.582m7,.5a4.358,4.358,0,0,0-2.12.588l3.257.048c.057-.044.057-.044.115-.086,0,0-1.624-4.416-5.938-4.959a7.381,7.381,0,0,0,4.686,4.408m2.287.855a.431.431,0,1,0-.432.433.431.431,0,0,0,.432-.433M19.437,7.893l3.257-.048a4.367,4.367,0,0,0-2.121-.588,7.376,7.376,0,0,0,4.687-4.408c-4.315.542-5.938,4.959-5.938,4.959.058.042.059.042.115.086m-1.045.456a.431.431,0,1,0,.43-.434.432.432,0,0,0-.43.434m.268,3.491c-2.348-1.677-5.771-.377-5.771-.377a8.145,8.145,0,0,0,3.019-6.043c-3.871,1.993-3.893,6.7-3.893,6.7,4.736,1.41,6.645-.279,6.645-.279m1.306-.919L20,9.329a8.5,8.5,0,0,0-3.544-.183,8.132,8.132,0,0,0,4.016-5.421c-4.154,1.286-4.991,5.917-4.991,5.917a10.683,10.683,0,0,0,4.485,1.278M38.719,8.885a5.62,5.62,0,0,0-3.2.179l0,1.635A8.821,8.821,0,0,0,39.7,9.354s-.943-4.606-5.127-5.8a8.135,8.135,0,0,0,4.141,5.327m-16.2-1.637s1.431.95,3.941-.79c0,0-3.11-1.285-3.941.79M44.286,29.33h-1.82v2.313h1.82ZM39.379,13.477,38.44,14.6l5.088,5.112,1.03-1.036Zm9.9-.155L44.616,8.636,40.438,13.2l4.483,4.446ZM11.273,12.8a.431.431,0,1,0,.431-.434.432.432,0,0,0-.431.434M45.79,17.738a12.775,12.775,0,0,0,2.99.45,9.217,9.217,0,0,0,.31-3.626l-1.574,1.514a7.178,7.178,0,0,0,.652,1.206,8.055,8.055,0,0,0-1.13-.747ZM44.377,40.65H42.559v2.312h1.818ZM41.73,10.659l1.053-1.074a6.781,6.781,0,0,0-3.6-4.439,7.563,7.563,0,0,0,2.549,5.513m9.465,16.2a.431.431,0,1,0,.431-.434.432.432,0,0,0-.431.434M45.524,5.363A2.573,2.573,0,0,0,47.98,5.33a2.344,2.344,0,0,1,2.611.29,2.159,2.159,0,0,1,.883,1.922c0,.837-.239.895-.239.895-.5.349-.379-.241-.379-.241s.115-.411.115-.411A1.857,1.857,0,0,0,49.483,5.62a1.909,1.909,0,0,0-2.238,1.351,3.185,3.185,0,0,0-.072,1.22L44.937,5.943l.1,1.9,5,5.021h1.788l-1.814-1.823a7.6,7.6,0,0,0,1.8.333,2.982,2.982,0,0,0,2.819-2.608c.673-2.563-1.744-4.631-1.744-4.631a7.531,7.531,0,0,0-4.05-1.506A6.129,6.129,0,0,1,44.134,0a6.883,6.883,0,0,0-.3,2.513,3.171,3.171,0,0,0,1.69,2.85m6.285,20.783s2.906-3.689,1.122-7.678a8.174,8.174,0,0,0-1.4,6.617s-1.865-3.161-4.74-3.328c0,0,.442,2.517,5.017,4.389m-2.951-6.769a.435.435,0,1,0-.432-.435.434.434,0,0,0,.432.435m-8.692-7.025,1.306-1.359a5.846,5.846,0,0,0-4.893.636s.868.988,3.587.723m10.471,9.682s2.228-4.141-.216-7.755a8.174,8.174,0,0,0-.234,6.758s-2.384-2.79-5.244-2.451c0,0,.87,2.4,5.694,3.447M35.382,53.662a.433.433,0,1,0,.432-.435.434.434,0,0,0-.432.435m2.165-.416s2.445-2.11,2.467-4.743l-.873.036A9.2,9.2,0,0,0,36.553,53.7s4.124,2.237,7.719-.221a8.061,8.061,0,0,0-6.725-.236M33.521,54.6s3.148-1.876,3.31-4.766c0,0-2.506.444-4.367,5.042,0,0,3.671,2.921,7.637,1.13A8.059,8.059,0,0,0,33.521,54.6m-4.225.9a7.221,7.221,0,0,0,4-4.078c-2.543.181-4.722,4.016-4.722,4.016A8.645,8.645,0,0,0,35.109,58C33.414,55.747,29.3,55.5,29.3,55.5m-1.816-1.34v1.082c-.5-.787-2.439-3.638-4.63-3.778a7.22,7.22,0,0,0,4.026,4.044s-4.115.274-5.8,2.54a8.681,8.681,0,0,0,6.4-2.482v1.761h1.09V54.162Zm15.079-9.979V46.5l10.3,8.581h2.059L44.434,44.183Zm-1.277,7.029a8.324,8.324,0,0,0,1.4-2.71l-1.757-.027a12.575,12.575,0,0,0-.54,3.361s3.793,1.265,6.829-.944l-1.169-.943a7.635,7.635,0,0,0-4.761,1.264M20.854,53.828a.432.432,0,1,0-.431.435.433.433,0,0,0,.431-.435M49.642,41.722s.593-3.628-1.5-5.61c0,0-1.273,2.212,1.035,6.6,0,0,4.588-.947,5.77-5.155a8.1,8.1,0,0,0-5.3,4.165M45.394,49.4l-1.517-1.243c.032.391.081.8.154,1.239a7.865,7.865,0,0,0,1.364,0m-2.295.565a.435.435,0,1,0-.432-.433.433.433,0,0,0,.432.433M6.982,43.635a.431.431,0,1,0,.432-.435.432.432,0,0,0-.432.435m-3.146-8.4c3.584-3.417,3.08-5.922,3.08-5.922-2.616,1.2-3.21,4.833-3.21,4.833a8.138,8.138,0,0,0-3.7-5.653c-.216,4.371,3.828,6.742,3.828,6.742m.01.6A.433.433,0,1,0,4.28,35.4a.434.434,0,0,0-.434.435M10,8.72,6.659,5.334a3.85,3.85,0,0,0-4.52-.707l6.579,6.581A5.518,5.518,0,0,1,10,8.72M7.43,10.8,1.754,5.089S-.622,6.8,1.224,10.8ZM4.968,39.35c2.939-3.988,2.01-6.369,2.01-6.369C4.61,34.624,4.651,38.3,4.651,38.3A8.114,8.114,0,0,0,.035,33.381C.576,37.72,4.968,39.35,4.968,39.35M7.6,50.657a4.928,4.928,0,0,1,1.648-.548L8.17,49.854l-.1.135a1.185,1.185,0,0,1,.1-.135l-4.8,5.071s-.546.789-.029,1.308a.953.953,0,0,0,1.15-.06l4.669-4.106A4.636,4.636,0,0,1,7.6,50.657M16.7,48.6l-.612,0c-.034,2.727,2.578,4.878,2.578,4.878a8.062,8.062,0,0,0-6.716.391c3.652,2.373,7.717.039,7.717.039-.792-3.315-2.179-4.737-2.967-5.3M6.8,43.212c2.2-4.441.882-6.624.882-6.624C5.624,38.619,6.3,42.235,6.3,42.235A8.089,8.089,0,0,0,.906,38.2c1.281,4.175,5.89,5.015,5.89,5.015m12.5,6.83c.232,2.882,3.42,4.683,3.42,4.683a8.082,8.082,0,0,0-6.549,1.561c4.008,1.7,7.611-1.309,7.611-1.309-1.969-4.55-4.483-4.935-4.483-4.935M9.028,15.167c4.906.559,6.494-1.437,6.494-1.437-2.6-1.24-5.747.634-5.747.634a8.157,8.157,0,0,0,1.931-6.477c-3.47,2.635-2.678,7.279-2.678,7.279M9.262,46.7c1.4-4.758-.279-6.677-.279-6.677-1.666,2.359-.376,5.8-.376,5.8a8.078,8.078,0,0,0-6.013-3.032C4.579,46.675,9.262,46.7,9.262,46.7M45.129,42.8a1.86,1.86,0,0,0-.409.814l.914.954a4.521,4.521,0,0,0-.506-1.769M14.614,23.761l1.682,1.49H20.09a4.454,4.454,0,0,1-.124-1.457ZM24.024,12.6V10.469h6.6v3.045H32.8v2.192H30.687v.974H32.8v2.373H30.687v7.121H28.87l-2.515-2.526-2.3,2.312L22.39,24.286l3.815-3.835,1.968,1.978V12.6Zm-3.394,10.2c0,5.052,3.151,7.386,7.037,7.386s7.046-2.328,7.046-7.386V8.4H20.633s0,9.356,0,14.4m-5.19-8.312a3.352,3.352,0,0,1-2.045.976l2.045,1.9Zm18,21.027c.459,0,.459-.349.465-.7v-3.29h.939v3.48c0,.507-.057,1.368-1.41,1.368-.875,0-1.4-.413-1.4-1.305V31.528h.94v3.089c0,.36-.045.9.466.9m2.415,1.82v.885H34.91v1.038h.836v.887H34.91v1.076h.966v.889h-1.9V37.341Zm-.255-5.813h1.055l.273.664a5.766,5.766,0,0,1,.227.727h.011a5.262,5.262,0,0,1,.215-.727l.284-.664h1.013l-1.013,2.311,1.088,2.46H37.671l-.3-.756c-.089-.242-.146-.478-.208-.715h-.013c-.07.237-.125.473-.208.715l-.279.756H35.606l1-2.46Zm2.858,10.587-.177-.805h-.951l-.17.805h-.93l1.1-4.774h.99l1.141,4.774Zm-6.011,0-.225-3.441h-.015l-.152,1.178-.4,2.263h-.724l-.461-2.287-.157-1.064v-.089H30.3l-.138,3.441h-1.01l.416-4.774H30.81l.459,2.818h.011l.379-2.818h1.26l.5,4.774ZM29.408,31.528h.94v3.887h.981V36.3H29.408ZM28.2,30.791V46.978a3.4,3.4,0,0,1,2.181-.909h10V25.984H34.988A7.294,7.294,0,0,1,28.2,30.791m-4.037,2.079a.538.538,0,0,0-.635-.6h-.125v1.272l.164.006c.428,0,.6-.289.6-.681m13.636,5.7H37.79l-.1.722-.2,1.271h.661l-.24-1.271ZM12.517,17.3h0a6.187,6.187,0,0,1-3.2,1.458l.623.59,6.54-.033L14.457,17.28h0l-1.029-1.035a11.087,11.087,0,0,1-.909,1.057M49,43.136a.431.431,0,1,0-.432.434A.431.431,0,0,0,49,43.136m2.522-7.419a.435.435,0,1,0-.429-.436.435.435,0,0,0,.429.436m-2.771-3.229s-.869,2.4,2.161,6.323c0,0,4.354-1.734,4.791-6.084a8.116,8.116,0,0,0-4.5,5.027s-.046-3.678-2.454-5.266m3.3,1.086s-.677-3.618-3.32-4.758c0,0-.445,2.517,3.217,5.849,0,0,3.991-2.468,3.67-6.826a8.14,8.14,0,0,0-3.566,5.736m-5.137,6s-1.634,1.96-.122,6.681c0,0,4.681-.131,6.572-4.066a8.084,8.084,0,0,0-5.941,3.176s1.212-3.47-.509-5.791m5.253-10.265s-1.293-3.441-4.1-4.107c0,0,0,2.558,4.181,5.2,0,0,3.5-3.128,2.433-7.365a8.151,8.151,0,0,0-2.517,6.272m-3,18.93a6.555,6.555,0,0,0,1.967-1.894,8.252,8.252,0,0,0-3.386.417ZM21.9,39.26l-.109-.726h-.013l-.1.726-.2,1.27h.663ZM7.994,11.051c-2.96,3.2-1.379,7.634-1.379,7.634,4.929-.3,6.146-2.543,6.146-2.543-2.774-.769-5.55,1.626-5.55,1.626a8.172,8.172,0,0,0,.783-6.717M26.482,49.387h2.842s.187-1.24.99-1.24h11.8V27.286l-1.173-1.24V46.716H30.375a4.042,4.042,0,0,0-2.535,1.491,3.643,3.643,0,0,0-2.715-1.427H14.808V26.231L13.541,27.5V48.147h11.52s1.421.06,1.421,1.24M4.4,27.43a.432.432,0,1,0-.432.432A.434.434,0,0,0,4.4,27.43m-.381-1.789a8.159,8.159,0,0,0-1.551-6.576c-1.691,4.028,1.3,7.648,1.3,7.648,4.529-1.979,4.91-4.506,4.91-4.506-2.869.232-4.662,3.434-4.662,3.434M.831,23.668c-.971,4.263,2.6,7.3,2.6,7.3,4.118-2.736,4.057-5.294,4.057-5.294-2.787.729-4,4.2-4,4.2a8.15,8.15,0,0,0-2.662-6.21m4.7-8.494s-.247-1.547,1.358-3.862H1.466s.229.633,4.061,3.862m14.321,8.053v-.59L17.03,19.8h-6.6l3.727,3.422Zm-6.8,23.951c.018.2.052-.044.052-.044V44.311l-.462.515a10.178,10.178,0,0,1,.409,2.351M6.109,19.438A.431.431,0,1,0,6.54,19a.434.434,0,0,0-.431.436m6.911,30.9a.434.434,0,1,0-.43-.435.432.432,0,0,0,.43.435m3.011-32.329,3.817,3.77V18.862l-3.817-3.834ZM13.065,40.44H11.246v2.31h1.818ZM38.349,15.607,35.382,18.85l.03,5.184a5.934,5.934,0,0,1-.274,1.281h1.908l5.45-5.48ZM22.275,31.5v.888h-.951v1.039h.837v.885h-.837v1.076h.963v.885h-1.9V31.5l-1.317,4.767H18.3L16.931,31.5h1l.568,2.293c.083.271.115.544.172.815h.01c.051-.277.072-.548.147-.827L19.4,31.5Zm1.18,10.585h-1l-.176-.8h-.951l-.171.8h-.932l1.1-4.773h.987ZM22.467,31.5h.945c.6,0,1.668.064,1.668,1.37a1.323,1.323,0,0,1-.675,1.23l.827,2.174h-.99l-.825-2.2h-.012v2.2h-.939Zm2.95,0h.94V36.27h-.94Zm-.694,10.663a1.432,1.432,0,0,1-.808-.242v-.9a1.2,1.2,0,0,0,.713.254.512.512,0,0,0,.542-.521c0-.365-.292-.5-.555-.7a1.572,1.572,0,0,1-.876-1.417,1.267,1.267,0,0,1,1.24-1.4,1.6,1.6,0,0,1,.831.234v.92a1.065,1.065,0,0,0-.679-.3.436.436,0,0,0-.475.467c0,.786,1.431.83,1.431,2.12a1.339,1.339,0,0,1-1.364,1.489M20.053,38.2h-.744V42.08h-.939V38.2h-.736v-.889h2.419ZM15.366,25.984V46.07h9.9a4.661,4.661,0,0,1,2.273.909V30.913c-6-.131-7.207-4.929-7.207-4.929Zm.43,26.139a11.649,11.649,0,0,0-.712-3.539l-1.756,0a8.752,8.752,0,0,0,1.554,2.936A8.06,8.06,0,0,0,8.2,50.736c3.187,2.976,7.6,1.387,7.6,1.387M9.839,19.949l-.88-.827a8.029,8.029,0,0,0-3.685,2.446,7.973,7.973,0,0,0,.01-5.86l-.639-.527c-1.852,3.523.2,7.394.2,7.394a9.279,9.279,0,0,0,4.994-2.625M5.053,47.01c2.625,3.484,7.239,2.69,7.239,2.69.559-4.934-1.427-6.531-1.427-6.531-1.232,2.617.633,5.776.633,5.776A8.06,8.06,0,0,0,5.053,47.01M13,29.513H11.185v2.315H13Z" transform="translate(0)" fill="#002474"/>
  </g>
</svg>
