<svg width="256" height="47" viewBox="0 0 256 47" fill="none" xmlns="http://www.w3.org/2000/svg">
<path d="M12.872 0.879997V27.056C12.872 29.488 13.4267 31.3653 14.536 32.688C15.688 34.0107 17.416 34.672 19.72 34.672C22.024 34.672 23.752 34.0107 24.904 32.688C26.0987 31.3227 26.696 29.4453 26.696 27.056V0.879997H39.24V27.056C39.24 31.1947 38.3653 34.736 36.616 37.68C34.8667 40.5813 32.4773 42.7787 29.448 44.272C26.4613 45.7227 23.1333 46.448 19.464 46.448C15.7947 46.448 12.5093 45.7227 9.608 44.272C6.74933 42.7787 4.488 40.5813 2.824 37.68C1.20267 34.7787 0.392 31.2373 0.392 27.056V0.879997H12.872ZM87.9385 46H75.3945L58.6905 20.784V46H46.1465V0.879997H58.6905L75.3945 26.416V0.879997H87.9385V46ZM107.628 0.879997V46H95.084V0.879997H107.628ZM113.236 23.344C113.236 18.9067 114.153 14.96 115.988 11.504C117.865 8.00533 120.51 5.296 123.924 3.376C127.337 1.41333 131.262 0.431999 135.7 0.431999C141.332 0.431999 146.068 1.94667 149.908 4.976C153.748 7.96266 156.222 12.0373 157.332 17.2H143.828C143.017 15.4933 141.886 14.192 140.436 13.296C139.028 12.4 137.385 11.952 135.508 11.952C132.606 11.952 130.281 12.9973 128.532 15.088C126.825 17.136 125.972 19.888 125.972 23.344C125.972 26.8427 126.825 29.6373 128.532 31.728C130.281 33.776 132.606 34.8 135.508 34.8C137.385 34.8 139.028 34.352 140.436 33.456C141.886 32.56 143.017 31.2587 143.828 29.552H157.332C156.222 34.7147 153.748 38.8107 149.908 41.84C146.068 44.8267 141.332 46.32 135.7 46.32C131.262 46.32 127.337 45.36 123.924 43.44C120.51 41.4773 117.865 38.768 115.988 35.312C114.153 31.8133 113.236 27.824 113.236 23.344ZM184.904 46.448C180.68 46.448 176.797 45.4667 173.256 43.504C169.714 41.4987 166.898 38.7467 164.808 35.248C162.76 31.7067 161.736 27.7173 161.736 23.28C161.736 18.8427 162.76 14.8747 164.808 11.376C166.898 7.83467 169.714 5.08267 173.256 3.12C176.797 1.15733 180.68 0.175999 184.904 0.175999C189.17 0.175999 193.053 1.15733 196.552 3.12C200.093 5.08267 202.888 7.83467 204.936 11.376C206.984 14.8747 208.008 18.8427 208.008 23.28C208.008 27.7173 206.984 31.7067 204.936 35.248C202.888 38.7467 200.093 41.4987 196.552 43.504C193.01 45.4667 189.128 46.448 184.904 46.448ZM184.904 34.8C188.104 34.8 190.621 33.7547 192.456 31.664C194.333 29.5733 195.272 26.7787 195.272 23.28C195.272 19.696 194.333 16.88 192.456 14.832C190.621 12.7413 188.104 11.696 184.904 11.696C181.661 11.696 179.122 12.7413 177.288 14.832C175.453 16.88 174.536 19.696 174.536 23.28C174.536 26.8213 175.453 29.6373 177.288 31.728C179.122 33.776 181.661 34.8 184.904 34.8ZM255.439 46H242.895L226.191 20.784V46H213.647V0.879997H226.191L242.895 26.416V0.879997H255.439V46Z" fill="black"/>
</svg>
