<svg id="_1x9t0qY86xIGQ3jNUCYQzc7JSNCa2l4QuyUUdIvT5GSNBYtoSDfJXjw7KBJh6Zq2uZ-UffPMdc1B6uIl2I4Gkg" data-name="1x9t0qY86xIGQ3jNUCYQzc7JSNCa2l4QuyUUdIvT5GSNBYtoSDfJXjw7KBJh6Zq2uZ-UffPMdc1B6uIl2I4Gkg" xmlns="http://www.w3.org/2000/svg" width="222.134" height="46.793" viewBox="0 0 222.134 46.793">
  <path id="패스_15" data-name="패스 15" d="M0-87.371c0,2.554,1.414,4.5,4.919,4.5H24.363v-6.6H8.842c-.509,0-.764-.249-.764-.663v-5.494H22.755v-6.6H8.078v-5.321H24.363v-6.6H0Z" transform="translate(30.354 129.663)" fill="#81827e"/>
  <path id="패스_16" data-name="패스 16" d="M-46.891-49.654l12.861-15.211h-9.814l-9.334,11.041V-64.866h-8.078v28.437c0,1.606.888,2.83,3.093,2.83h4.985V-44.171A17.981,17.981,0,0,1-41.933-33.6h8.113A25.81,25.81,0,0,0-46.891-49.654" transform="translate(61.256 80.392)" fill="#81827e"/>
  <path id="패스_17" data-name="패스 17" d="M0,0V28.438c0,1.6.889,2.83,3.093,2.83H8.078V0Z" transform="translate(60.564 15.525)" fill="#81827e"/>
  <path id="패스_18" data-name="패스 18" d="M-28.4-10.209a6.254,6.254,0,0,1-2.8,5.217,6.253,6.253,0,0,1-5.9.538V2.055A12.507,12.507,0,0,0-26.725-.539a12.507,12.507,0,0,0,4.576-9.67,12.493,12.493,0,0,0-.409-3.128h-6.688a6.23,6.23,0,0,1,.843,3.128" transform="translate(120.435 22.684)" fill="#00b48d"/>
  <path id="패스_19" data-name="패스 19" d="M-20.413-40.826a6.254,6.254,0,0,1,2.8-5.218,6.254,6.254,0,0,1,5.9-.538V-53.09A12.507,12.507,0,0,0-22.091-50.5a12.507,12.507,0,0,0-4.576,9.671,12.493,12.493,0,0,0,.409,3.128h6.688a6.23,6.23,0,0,1-.843-3.128" transform="translate(99.963 53.333)" fill="#00a4e0"/>
  <path id="패스_20" data-name="패스 20" d="M-8.574-11.958v-3.663H-11.2v4.014c0,1.265.894,2.123,2.438,2.123h7.571C.16-9.485.6-10.105.6-10.544v-1.064H-8.24c-.346,0-.334-.155-.334-.35" transform="translate(118.265 44.89)" fill="#81827e"/>
  <path id="패스_21" data-name="패스 21" d="M-43.538,0H-55.825V2.119h9.636a20.759,20.759,0,0,1-.491,4.435h-10.2V8.674h5.965v3h-4.914v2.119h9.565V19.06h1.065c.81,0,1.563-.353,1.563-1.837v-5.55h-4.653v-3h6.515V6.555h-2.3A32.511,32.511,0,0,0-43.538,0" transform="translate(179.401 16.596)" fill="#81827e"/>
  <path id="패스_22" data-name="패스 22" d="M-43.611,0H-55.763V2.118h9.525a51.4,51.4,0,0,1-.556,6.51H-56.971v2.121h6.109v8.313H-49.8c.81,0,1.563-.355,1.563-1.839V10.749h6.374V8.628h-2.39A58.769,58.769,0,0,0-43.611,0" transform="translate(247.927 16.592)" fill="#81827e"/>
  <path id="패스_23" data-name="패스 23" d="M-8.559,0h-2.622V14.606h1.054c.816,0,1.568-.353,1.568-1.837V6.875h2.728V4.751H-8.559Z" transform="translate(127.054 15.932)" fill="#81827e"/>
  <path id="패스_24" data-name="패스 24" d="M-37.5-9.48h-3.075a15.625,15.625,0,0,0,.147-2.229H-48.6v2.119h5.55c0,2.777-2.333,5.694-5.938,7.4l.911,1.845c3.123-1.4,5.857-3.323,7.038-7.019H-37.5v1.94h-3.716V-3.3H-37.5v2.157h1.062c.813,0,1.563-.353,1.563-1.84v-9.4H-37.5Z" transform="translate(206.47 28.32)" fill="#81827e"/>
  <path id="패스_25" data-name="패스 25" d="M-11.348-20.1a1.769,1.769,0,0,1,1.864-1.834A1.765,1.765,0,0,1-7.626-20.1,1.762,1.762,0,0,1-9.484-18.27,1.766,1.766,0,0,1-11.348-20.1M-.8-25.908H-3.431v10.483a8.847,8.847,0,0,1-2.937.5h-1.82v-1.371A3.837,3.837,0,0,0-5-20.1a3.057,3.057,0,0,0-.962-2.36H-4.3v-2.119H-8.188v-1.68h-2.625v1.68h-3.893v2.119h1.7a3.042,3.042,0,0,0-.964,2.36,3.835,3.835,0,0,0,3.156,3.8v1.379h-4.011V-12.8h8.455a8.873,8.873,0,0,0,2.937-.409v2.722h1.064c.816,0,1.568-.35,1.568-1.834v-6.708H1.93v-2.124H-.8Z" transform="translate(154.688 41.84)" fill="#81827e"/>
  <path id="패스_26" data-name="패스 26" d="M-8.559-13V-16.98h-2.622v4.334c0,1.262.894,2.123,2.438,2.123h7.571c1.355,0,1.791-.623,1.791-1.062v-1.06H-8.219c-.344,0-.339-.16-.339-.352" transform="translate(188.498 45.929)" fill="#81827e"/>
  <path id="패스_27" data-name="패스 27" d="M-10.887-44.3h2.625v-2.807h2.409a9.234,9.234,0,0,0,3.028-.428v1.585H-5.693v2.123h2.868v1.817h1.064c.812,0,1.565-.355,1.565-1.837V-57.87H-2.825v8.146a8.484,8.484,0,0,1-3.028.5h-8.37v2.121h3.335Z" transform="translate(221.974 73.797)" fill="#81827e"/>
  <path id="패스_28" data-name="패스 28" d="M-9.676-9.475c-.347,0-.334-.159-.334-.352v-2.551h-2.63v2.9c0,1.263.9,2.123,2.44,2.123H-2.27c1.355,0,1.793-.623,1.793-1.062v-1.06Z" transform="translate(222.612 42.756)" fill="#81827e"/>
  <path id="패스_29" data-name="패스 29" d="M-9.671-9.475c-.347,0-.334-.159-.334-.352v-2.551h-2.628v2.9c0,1.263.9,2.123,2.438,2.123h7.931c1.355,0,1.793-.623,1.793-1.062v-1.06Z" transform="translate(154.721 42.756)" fill="#81827e"/>
  <path id="패스_30" data-name="패스 30" d="M-10.753-25.21A2.078,2.078,0,0,1-8.7-27.483,2.078,2.078,0,0,1-6.649-25.21,2.078,2.078,0,0,1-8.7-22.935a2.079,2.079,0,0,1-2.053-2.275m6.723,0A4.045,4.045,0,0,0-6.121-28.9H-3.4v-2.119H-7.408v-1.918h-2.623v1.918h-4.015V-28.9h2.763a4.045,4.045,0,0,0-2.091,3.686A4.348,4.348,0,0,0-8.7-20.816,4.344,4.344,0,0,0-4.03-25.21" transform="translate(118.538 48.77)" fill="#81827e"/>
  <path id="패스_31" data-name="패스 31" d="M-8.564-17.655c0-1.674.867-2.8,2.05-2.8s2.05,1.124,2.05,2.8-.864,2.8-2.05,2.8-2.05-1.122-2.05-2.8m9.37-1.181v2.325H-1.952a5.908,5.908,0,0,0,.106-1.145,5.87,5.87,0,0,0-.111-1.181Zm-3.621,4.328H.806v5.621H1.86c.816,0,1.565-.355,1.565-1.839V-23.064H.806v2.226H-2.84a4.511,4.511,0,0,0-3.674-1.736,4.6,4.6,0,0,0-4.673,4.919,4.6,4.6,0,0,0,4.673,4.917,4.5,4.5,0,0,0,3.7-1.771" transform="translate(185.334 38.997)" fill="#81827e"/>
  <path id="패스_32" data-name="패스 32" d="M-19.12-20.9c-1.869,0-3.231-.859-3.231-2.138s1.362-2.143,3.231-2.143,3.227.861,3.227,2.143S-17.251-20.9-19.12-20.9m0-6.4c-3.386,0-5.857,1.71-5.857,4.261s2.471,4.256,5.857,4.256,5.849-1.709,5.849-4.256S-15.743-27.3-19.12-27.3" transform="translate(184.86 54.631)" fill="#81827e"/>
  <path id="패스_33" data-name="패스 33" d="M-14.649-6.918a1.764,1.764,0,0,1,1.856,1.836,1.762,1.762,0,0,1-1.856,1.829,1.769,1.769,0,0,1-1.863-1.829,1.771,1.771,0,0,1,1.863-1.836m0,5.787c2.593,0,4.484-1.587,4.484-3.952s-1.891-3.955-4.484-3.955-4.488,1.587-4.488,3.955,1.894,3.952,4.488,3.952" transform="translate(227.709 24.878)" fill="#81827e"/>
  <path id="패스_34" data-name="패스 34" d="M-10.375-20.253-12.71-23.1v3.475h-.843v-6.831h.843v3.289l2.772-3.289h.954L-11.746-23.2l2.107,2.576a.728.728,0,0,0,.623.352.984.984,0,0,0,.187-.013v.682a2.188,2.188,0,0,1-.361.033,1.437,1.437,0,0,1-1.184-.682" transform="translate(120.625 66.331)" fill="#81827e"/>
  <path id="패스_35" data-name="패스 35" d="M-12.45-9.014c0-.986-.274-2.105-1.49-2.105S-15.409-10-15.409-9.014s.263,2.092,1.481,2.092,1.479-1.1,1.479-2.092m-3.814,0c0-1.436.712-2.761,2.335-2.761S-11.6-10.561-11.6-9.014c0,1.436-.724,2.75-2.335,2.75s-2.324-1.2-2.324-2.75" transform="translate(128.291 53.055)" fill="#81827e"/>
  <path id="패스_36" data-name="패스 36" d="M0-.285H.812v.56A1.67,1.67,0,0,1,2.15-.372a2.186,2.186,0,0,1,.46.065V.449A2.248,2.248,0,0,0,2.061.373,1.606,1.606,0,0,0,.812.888V5.053H0Z" transform="translate(117.674 41.65)" fill="#81827e"/>
  <path id="패스_37" data-name="패스 37" d="M-2.861-6.9H-.208v-.055A1.247,1.247,0,0,0-1.392-8.35c-.613,0-1.294.263-1.469,1.447m-.877.658c0-1.623.888-2.772,2.368-2.772S.635-7.857.635-6.7c0,.133-.01.274-.022.406H-2.906v.022c0,1.227.495,2.1,1.733,2.1A3.28,3.28,0,0,0,.318-4.5v.691A4.015,4.015,0,0,1-1.2-3.5c-1.72,0-2.543-1.106-2.543-2.741" transform="translate(124.276 50.296)" fill="#81827e"/>
  <path id="패스_38" data-name="패스 38" d="M-8.088-9.728c-1.041,0-1.622.3-1.622.978,0,.558.363.886,1,.886a1.58,1.58,0,0,0,1.1-.406V-9.706c-.111-.011-.33-.022-.472-.022m1.382,2.533a.823.823,0,0,1-.812-.569,1.933,1.933,0,0,1-1.392.569,1.475,1.475,0,0,1-1.657-1.481c0-1.062.889-1.633,2.357-1.633.176,0,.428.013.593.022v-.594c0-.842-.352-1.148-1.184-1.148a2.827,2.827,0,0,0-1.3.328v-.713a3.769,3.769,0,0,1,1.447-.295c1.162,0,1.851.5,1.851,1.655v2.706c0,.352.176.472.439.472a1.68,1.68,0,0,0,.2-.021v.612a1.406,1.406,0,0,1-.537.089" transform="translate(136.068 53.987)" fill="#81827e"/>
  <path id="패스_39" data-name="패스 39" d="M0,0H3.638V.7H.843V2.818h2.39V3.51H.843V6.13H3.638v.7H0Z" transform="translate(133.196 39.874)" fill="#81827e"/>
  <path id="패스_40" data-name="패스 40" d="M0-.285H.812V.143A2.473,2.473,0,0,1,2.291-.372c1.294,0,1.733.81,1.733,1.894v3.53h-.81v-3.4C3.213.822,2.971.308,2.04.308A2.337,2.337,0,0,0,.812.7V5.053H0Z" transform="translate(138.041 41.65)" fill="#81827e"/>
  <path id="패스_41" data-name="패스 41" d="M0,0H.854L2.313,4.407,3.749,0h.81L2.7,5.337H1.853Z" transform="translate(142.766 41.366)" fill="#81827e"/>
  <path id="패스_42" data-name="패스 42" d="M890.489-377.389h.81v5.337h-.81Zm-.153-1.623a.56.56,0,0,1,.558-.558.56.56,0,0,1,.56.558.562.562,0,0,1-.56.56.561.561,0,0,1-.558-.56" transform="translate(-742.313 418.755)" fill="#81827e"/>
  <path id="패스_43" data-name="패스 43" d="M0-.285H.812v.56A1.665,1.665,0,0,1,2.148-.372a2.215,2.215,0,0,1,.461.065V.449A2.261,2.261,0,0,0,2.061.373,1.6,1.6,0,0,0,.812.888V5.053H0Z" transform="translate(150.481 41.65)" fill="#81827e"/>
  <path id="패스_44" data-name="패스 44" d="M-12.45-9.014c0-.986-.274-2.105-1.49-2.105S-15.409-10-15.409-9.014s.263,2.092,1.481,2.092,1.479-1.1,1.479-2.092m-3.814,0c0-1.436.712-2.761,2.335-2.761S-11.6-10.561-11.6-9.014c0,1.436-.724,2.75-2.335,2.75s-2.324-1.2-2.324-2.75" transform="translate(169.608 53.055)" fill="#81827e"/>
  <path id="패스_45" data-name="패스 45" d="M0-.285H.812V.143A2.478,2.478,0,0,1,2.292-.372c1.292,0,1.731.81,1.731,1.894v3.53H3.212v-3.4C3.212.822,2.971.308,2.039.308A2.336,2.336,0,0,0,.812.7V5.053H0Z" transform="translate(159.01 41.65)" fill="#81827e"/>
  <path id="패스_46" data-name="패스 46" d="M0-.286H.812V.142A2.567,2.567,0,0,1,2.335-.373,1.49,1.49,0,0,1,3.519.174,2.876,2.876,0,0,1,5.2-.373c1.26,0,1.7.789,1.7,1.894v3.53H6.084v-3.4c0-.788-.2-1.346-1.16-1.346A2.722,2.722,0,0,0,3.749.635a2.738,2.738,0,0,1,.111.755V5.052H3.048V1.6C3.048.68,2.654.307,1.94.307A2.218,2.218,0,0,0,.812.7V5.052H0Z" transform="translate(164.409 41.651)" fill="#81827e"/>
  <path id="패스_47" data-name="패스 47" d="M-2.861-6.9H-.209v-.055A1.247,1.247,0,0,0-1.392-8.35c-.613,0-1.294.263-1.469,1.447m-.877.658c0-1.623.888-2.772,2.368-2.772S.637-7.857.637-6.7c0,.133-.013.274-.022.406H-2.9v.022c0,1.227.493,2.1,1.731,2.1A3.28,3.28,0,0,0,.318-4.5v.691A4.015,4.015,0,0,1-1.2-3.5c-1.72,0-2.543-1.106-2.543-2.741" transform="translate(176.007 50.296)" fill="#81827e"/>
  <path id="패스_48" data-name="패스 48" d="M0-.285H.812V.143A2.473,2.473,0,0,1,2.291-.372c1.294,0,1.733.81,1.733,1.894v3.53H3.212v-3.4C3.212.822,2.971.308,2.039.308A2.33,2.33,0,0,0,.812.7V5.053H0Z" transform="translate(177.63 41.65)" fill="#81827e"/>
  <path id="패스_49" data-name="패스 49" d="M0-4.657H.734L.888-6.084h.658v1.427H2.774v.626H1.546V-.819c0,.647.22.91.756.91a1.723,1.723,0,0,0,.659-.133V.626a2.635,2.635,0,0,1-.823.143C1.2.769.734.363.734-.712V-4.031H0Z" transform="translate(182.326 46.023)" fill="#81827e"/>
  <path id="패스_50" data-name="패스 50" d="M1064.085-376.623h.854v6.829h-.854Z" transform="translate(-875.487 416.499)" fill="#81827e"/>
  <path id="패스_51" data-name="패스 51" d="M0-.285H.812V.143A2.474,2.474,0,0,1,2.292-.372c1.294,0,1.731.81,1.731,1.9V5.053H3.212v-3.4C3.212.823,2.971.308,2.039.308A2.336,2.336,0,0,0,.812.7V5.053H0Z" transform="translate(191.065 41.65)" fill="#81827e"/>
  <path id="패스_52" data-name="패스 52" d="M0-17.029v-.7a3.887,3.887,0,0,0,1.436.33c.766,0,1.173-.263,1.173-.866,0-.56-.352-.68-1.164-.976-.832-.3-1.4-.68-1.4-1.523,0-1.019.724-1.479,1.786-1.479a3.4,3.4,0,0,1,1.3.241v.712a3.26,3.26,0,0,0-1.281-.285c-.671,0-1.019.263-1.019.745,0,.45.295.647.973.877.747.252,1.625.582,1.625,1.634,0,.976-.758,1.59-1.875,1.59A3.927,3.927,0,0,1,0-17.029" transform="translate(196.066 63.525)" fill="#81827e"/>
  <path id="패스_53" data-name="패스 53" d="M0-4.652H.734L.889-6.077h.656v1.425H2.772v.626H1.546V-.814c0,.647.22.91.756.91a1.681,1.681,0,0,0,.659-.133V.632a2.616,2.616,0,0,1-.823.143C1.2.774.734.368.734-.7V-4.026H0Z" transform="translate(199.881 46.018)" fill="#81827e"/>
  <path id="패스_54" data-name="패스 54" d="M1128.206-377.388h.811v5.337h-.811Zm-.154-1.623a.561.561,0,0,1,.558-.558.561.561,0,0,1,.56.558.561.561,0,0,1-.56.56.561.561,0,0,1-.558-.56" transform="translate(-924.453 418.755)" fill="#81827e"/>
  <path id="패스_55" data-name="패스 55" d="M0-4.652H.736L.889-6.077h.658v1.425H2.774v.626H1.547V-.814c0,.647.219.91.755.91a1.681,1.681,0,0,0,.659-.133V.632a2.616,2.616,0,0,1-.823.143C1.2.774.736.368.736-.7V-4.026H0Z" transform="translate(205.462 46.018)" fill="#81827e"/>
  <path id="패스_56" data-name="패스 56" d="M0-11.524v-3.53H.81v3.4c0,.835.243,1.351,1.175,1.351A2.336,2.336,0,0,0,3.212-10.7v-4.353h.812v5.337H3.212v-.425a2.489,2.489,0,0,1-1.481.514C.438-9.628,0-10.439,0-11.524" transform="translate(209.202 56.42)" fill="#81827e"/>
  <path id="패스_57" data-name="패스 57" d="M0-4.652H.734L.888-6.077h.658v1.425H2.774v.626H1.546V-.814c0,.647.22.91.758.91a1.678,1.678,0,0,0,.658-.133V.632a2.625,2.625,0,0,1-.823.143C1.2.774.734.368.734-.7V-4.026H0Z" transform="translate(214.036 46.018)" fill="#81827e"/>
  <path id="패스_58" data-name="패스 58" d="M-2.867-6.9H-.213v-.055A1.246,1.246,0,0,0-1.4-8.348c-.613,0-1.294.263-1.468,1.446m-.878.658c0-1.623.889-2.772,2.37-2.772S.63-7.855.63-6.7c0,.133-.011.274-.021.406H-2.909v.022c0,1.227.491,2.105,1.731,2.105A3.266,3.266,0,0,0,.312-4.5v.691A3.993,3.993,0,0,1-1.2-3.5c-1.72,0-2.544-1.106-2.544-2.741" transform="translate(221.146 50.296)" fill="#81827e"/>
</svg>
