<svg id="그룹_37493" data-name="그룹 37493" xmlns="http://www.w3.org/2000/svg" xmlns:xlink="http://www.w3.org/1999/xlink" width="147.265" height="33.643" viewBox="0 0 147.265 33.643">
  <defs>
    <clipPath id="clip-path">
      <rect id="사각형_11925" data-name="사각형 11925" width="147.265" height="33.642" fill="none"/>
    </clipPath>
  </defs>
  <g id="그룹_37492" data-name="그룹 37492" clip-path="url(#clip-path)">
    <path id="패스_71126" data-name="패스 71126" d="M96.952,58.406a14.616,14.616,0,0,1-1.475-.939.469.469,0,0,1-.148-.328.659.659,0,0,1,.311-.636s.155-.191.761-.191a1.716,1.716,0,0,1,.855.266l-.034-.552a3.226,3.226,0,0,0-1.718.029,1.2,1.2,0,0,0-.75,1.082,1.252,1.252,0,0,0,.665,1.057A7.282,7.282,0,0,1,96.973,59.2a.88.88,0,0,1,.008.914,1.211,1.211,0,0,1-.98.438,2.88,2.88,0,0,1-1.191-.262l.042.514a9.313,9.313,0,0,0,1.156.1,2.244,2.244,0,0,0,1.2-.286,1.375,1.375,0,0,0,.511-.992,1.3,1.3,0,0,0-.77-1.221" transform="translate(-52.506 -30.86)" fill="#002474"/>
    <path id="패스_71127" data-name="패스 71127" d="M104.347,60.459V58.371h1.521a.374.374,0,0,1,.223.061V58h-1.744V56.412h1.573a.455.455,0,0,1,.249.087l-.02-.513h-2.427a.832.832,0,0,1,.088.361v4.186s.019.069-.091.313h2.615l.07-.473a1.027,1.027,0,0,1-.47.087Z" transform="translate(-57.474 -30.899)" fill="#002474"/>
    <path id="패스_71128" data-name="패스 71128" d="M114.058,60.421a2.065,2.065,0,1,1,1.882-2.054,1.973,1.973,0,0,1-1.882,2.054m0-4.492a2.435,2.435,0,1,0,2.4,2.437,2.417,2.417,0,0,0-2.4-2.437" transform="translate(-61.874 -30.869)" fill="#002474"/>
    <path id="패스_71129" data-name="패스 71129" d="M190.5,60.421a2.065,2.065,0,1,1,1.882-2.054,1.974,1.974,0,0,1-1.882,2.054m0-4.492a2.435,2.435,0,1,0,2.4,2.437,2.417,2.417,0,0,0-2.4-2.437" transform="translate(-104.236 -30.869)" fill="#002474"/>
    <path id="패스_71130" data-name="패스 71130" d="M128.747,55.99H128.1c.069.046.079.243.079.243v2.949a1.319,1.319,0,1,1-2.638,0l.006-.068L125.538,56l-.519-.012v3.2a1.846,1.846,0,0,0,3.681-.024h-.006V56.228a.8.8,0,0,1,.053-.238" transform="translate(-69.277 -30.902)" fill="#002474"/>
    <path id="패스_71131" data-name="패스 71131" d="M137.088,60.5V56.306a.476.476,0,0,1,.083-.3H136.5a.317.317,0,0,1,.055.208v4.644h2.586l.151-.44a.931.931,0,0,1-.412.084Z" transform="translate(-75.637 -30.91)" fill="#002474"/>
    <path id="패스_71132" data-name="패스 71132" d="M226.294,60.5V56.306a.484.484,0,0,1,.081-.3H225.7a.3.3,0,0,1,.054.208v4.644h2.579l.156-.44a.939.939,0,0,1-.413.084Z" transform="translate(-125.069 -30.91)" fill="#002474"/>
    <path id="패스_71133" data-name="패스 71133" d="M154.6,56.326v3.4l-3.38-3.748h-.546a.616.616,0,0,1,.095.372V60.5a.971.971,0,0,1-.069.328v0h.535a1.054,1.054,0,0,1-.059-.352V56.666l3.793,4.137V56.309a1.234,1.234,0,0,1,.064-.327h-.513c.09.093.081.344.081.344" transform="translate(-83.493 -30.898)" fill="#002474"/>
    <path id="패스_71134" data-name="패스 71134" d="M205.2,56.326v3.4l-3.378-3.748h-.551a.6.6,0,0,1,.1.372V60.5a1.037,1.037,0,0,1-.07.328v0h.535a1.084,1.084,0,0,1-.058-.352V56.666l3.793,4.137V56.309a1.158,1.158,0,0,1,.069-.327h-.522c.094.093.084.344.084.344" transform="translate(-111.53 -30.898)" fill="#002474"/>
    <path id="패스_71135" data-name="패스 71135" d="M163.75,58.614l.769-1.961.928,1.961Zm1.064-2.63H164.2a.7.7,0,0,1,.019.4l-1.563,4a2.047,2.047,0,0,1-.3.458h.585a.482.482,0,0,1,.054-.3l.641-1.565H165.6l.665,1.38a1.072,1.072,0,0,1,.084.484h.828a3.684,3.684,0,0,1-.441-.7Z" transform="translate(-89.964 -30.899)" fill="#002474"/>
    <path id="패스_71136" data-name="패스 71136" d="M214.677,58.614l.769-1.961.924,1.961Zm.944-2.63h-.616a.7.7,0,0,1,.02.4l-1.56,4a2.089,2.089,0,0,1-.3.458h.58a.489.489,0,0,1,.054-.3l.639-1.565h1.972l.666,1.38a1.042,1.042,0,0,1,.085.484h.825a3.753,3.753,0,0,1-.442-.7Z" transform="translate(-118.122 -30.899)" fill="#002474"/>
    <path id="패스_71137" data-name="패스 71137" d="M173.234,56.009l-.037.009-.114.417a.66.66,0,0,1,.3-.057h1.3v4.215a1.67,1.67,0,0,1-.045.278h.7a.837.837,0,0,1-.077-.29V56.389h1.013a1.371,1.371,0,0,1,.547.1l-.095-.483Z" transform="translate(-95.91 -30.913)" fill="#002474"/>
    <path id="패스_71138" data-name="패스 71138" d="M184.656,55.984h-.666a.607.607,0,0,1,.084.271v4.269a.941.941,0,0,1-.084.333h.664a.718.718,0,0,1-.082-.345V56.244a.689.689,0,0,1,.084-.26" transform="translate(-101.955 -30.899)" fill="#002474"/>
    <path id="패스_71139" data-name="패스 71139" d="M300.469,58.34a14.83,14.83,0,0,1-1.477-.936.477.477,0,0,1-.148-.329.663.663,0,0,1,.311-.634s.155-.19.76-.19a1.739,1.739,0,0,1,.86.262l-.035-.553a3.222,3.222,0,0,0-1.721.036,1.194,1.194,0,0,0-.751,1.076,1.261,1.261,0,0,0,.665,1.058,7.346,7.346,0,0,1,1.555,1.006.867.867,0,0,1,.009.911,1.207,1.207,0,0,1-.98.44,2.86,2.86,0,0,1-1.192-.265l.043.513a9.27,9.27,0,0,0,1.158.1,2.225,2.225,0,0,0,1.2-.287,1.368,1.368,0,0,0,.514-.985,1.314,1.314,0,0,0-.771-1.227" transform="translate(-165.28 -30.825)" fill="#002474"/>
    <path id="패스_71140" data-name="패스 71140" d="M280.888,60.451V58.363h1.518a.384.384,0,0,1,.225.061v-.431h-1.743V56.407h1.571a.478.478,0,0,1,.251.083l-.02-.513h-2.429a.8.8,0,0,1,.09.361v4.185s.016.073-.094.318h2.616l.071-.48a1.008,1.008,0,0,1-.475.09Z" transform="translate(-155.3 -30.895)" fill="#002474"/>
    <path id="패스_71141" data-name="패스 71141" d="M242.209,55.923h-.647c.072.045.079.245.079.245v2.948a1.318,1.318,0,1,1-2.635,0l0-.066L239,55.935l-.518-.009v3.2a1.845,1.845,0,0,0,3.681-.025h0V56.161a.812.812,0,0,1,.052-.238" transform="translate(-132.15 -30.865)" fill="#002474"/>
    <path id="패스_71142" data-name="패스 71142" d="M254.352,56.32v3.4l-3.381-3.745h-.546a.585.585,0,0,1,.1.367v4.143a1.041,1.041,0,0,1-.07.332v0h.535a1.04,1.04,0,0,1-.059-.348V56.661l3.8,4.138V56.3a1.188,1.188,0,0,1,.064-.319h-.517c.09.091.083.341.083.341" transform="translate(-138.769 -30.896)" fill="#002474"/>
    <path id="패스_71143" data-name="패스 71143" d="M311.23,55.979l-.038,0-.116.416a.681.681,0,0,1,.3-.055h1.3v4.219a1.769,1.769,0,0,1-.047.273h.7a.869.869,0,0,1-.073-.29V56.356h1.014a1.354,1.354,0,0,1,.541.1l-.094-.48Z" transform="translate(-172.377 -30.896)" fill="#002474"/>
    <path id="패스_71144" data-name="패스 71144" d="M308.162,55.936h-.668a.608.608,0,0,1,.086.272v4.266a1.049,1.049,0,0,1-.082.337h.66a.731.731,0,0,1-.082-.345V56.2a.719.719,0,0,1,.086-.262" transform="translate(-170.392 -30.872)" fill="#002474"/>
    <path id="패스_71145" data-name="패스 71145" d="M264.721,55.936h-.669a.621.621,0,0,1,.084.272v4.266a1.085,1.085,0,0,1-.081.337h.663a.737.737,0,0,1-.081-.345V56.2a.647.647,0,0,1,.084-.262" transform="translate(-146.32 -30.872)" fill="#002474"/>
    <path id="패스_71146" data-name="패스 71146" d="M271.7,56.291l-1.641,3.64-1.67-3.64c-.132-.236-.066-.341-.066-.341h-.7a7.6,7.6,0,0,1,.377.723l2.019,4.251,2.094-4.514a1.816,1.816,0,0,1,.341-.46h-.686s.066.105-.065.341" transform="translate(-148.297 -30.88)" fill="#002474"/>
    <path id="패스_71147" data-name="패스 71147" d="M292.034,60.059l-1.509-1.776a1.715,1.715,0,0,0,.914-.4,1.217,1.217,0,0,0,.345-.833,1.084,1.084,0,0,0-.354-.756,1.4,1.4,0,0,0-.969-.352,12.084,12.084,0,0,0-1.317.048.365.365,0,0,1,.076.226v4.349a.606.606,0,0,1-.056.236h.661a.422.422,0,0,1-.072-.229V58.088h.007l-.007,0V56.471l.01-.05s.008-.123.45-.123a1.058,1.058,0,0,1,.7.232.837.837,0,0,1,.294.549s.019.5-.242.682a1.73,1.73,0,0,1-1.2.327l2.169,2.705h.762c-.163-.138-.658-.735-.658-.735" transform="translate(-160.225 -30.875)" fill="#002474"/>
    <path id="패스_71148" data-name="패스 71148" d="M323.914,56.129l-1.037,1.782-1.1-1.737a.292.292,0,0,1-.046-.228h-.784a1.507,1.507,0,0,1,.285.355l1.278,2v2.24a.659.659,0,0,1-.047.257h.688a.584.584,0,0,1-.075-.238V58.306l1.161-1.806c.355-.586.388-.571.388-.571h-.662a.515.515,0,0,1-.046.2" transform="translate(-177.845 -30.868)" fill="#002474"/>
    <path id="패스_71149" data-name="패스 71149" d="M97.556,14.371c-.04-.613-.017-1.752-.017-1.752H95.88s.023,1.139-.015,1.752a9.044,9.044,0,0,1-3.727,6.9l.831,1.231a9.4,9.4,0,0,0,3.74-4.7,9.42,9.42,0,0,0,3.743,4.7l.832-1.231a9.034,9.034,0,0,1-3.727-6.9" transform="translate(-51.056 -6.965)" fill="#002474"/>
    <path id="패스_71150" data-name="패스 71150" d="M155.6,9.191a1.565,1.565,0,1,1-1.554,1.567A1.561,1.561,0,0,1,155.6,9.191m0,4.554a2.988,2.988,0,1,0-2.975-2.986,2.978,2.978,0,0,0,2.975,2.986" transform="translate(-84.577 -4.287)" fill="#002474"/>
    <path id="패스_71151" data-name="패스 71151" d="M254.686,20.388a1.479,1.479,0,1,1-1.48-1.487,1.484,1.484,0,0,1,1.48,1.487m-4.393,0a2.914,2.914,0,1,0,2.913-2.93,2.918,2.918,0,0,0-2.913,2.93" transform="translate(-138.695 -9.635)" fill="#002474"/>
    <path id="패스_71152" data-name="패스 71152" d="M313.19,21.13a16.473,16.473,0,0,1-.913,4.476h1.568a18.062,18.062,0,0,0,.831-4.52V13.558H304.261v1.4h8.929Z" transform="translate(-168.601 -7.483)" fill="#002474"/>
    <path id="패스_71153" data-name="패스 71153" d="M114.121,26.282h1.633V10.963h-1.633v4.45h-2.967v1.5h2.967Z" transform="translate(-61.594 -6.051)" fill="#002474"/>
    <path id="패스_71154" data-name="패스 71154" d="M214.537,17.318h1.227v8.963h1.629V10.963h-1.629v4.852h-1.227V10.963H212.9V26.282h1.634Z" transform="translate(-117.976 -6.051)" fill="#002474"/>
    <path id="패스_71155" data-name="패스 71155" d="M258.806,26.289h1.634v-6.04h-.591V15.122h2.191V13.778h-2.191V10.963h-1.634v9.286h-9.193v1.4h9.785Z" transform="translate(-137.991 -6.051)" fill="#002474"/>
    <path id="패스_71156" data-name="패스 71156" d="M156.947,31.014H147.57V29.859h9.377V25.676h-4.635V23.761h5.4V22.3H145.336v1.457H150.7v1.915h-4.6v1.457h9.349V28.4H146.1v.874h-.027v3.194h10.871Z" transform="translate(-80.535 -12.31)" fill="#002474"/>
    <path id="패스_71157" data-name="패스 71157" d="M309.92,32.079V25.254h-1.576v6.825h-1.815V25.254h-1.577v6.825h-2.045v1.4h12.209v-1.4Z" transform="translate(-167.85 -13.938)" fill="#002474"/>
    <path id="패스_71158" data-name="패스 71158" d="M255.467,11.956h-3.09v-1.4h-1.6v1.4h-3.091V13.3h7.786Z" transform="translate(-137.248 -5.826)" fill="#002474"/>
    <path id="패스_71159" data-name="패스 71159" d="M201.887,23.1V21.644h-4.406V15.255h4.2V13.8h-5.812v9.311h1.609V23.1Z" transform="translate(-108.539 -7.616)" fill="#002474"/>
    <path id="패스_71160" data-name="패스 71160" d="M18.887,4.087c-.527-1.182-2.3-.371-2.3-.371,1.491.953,2.3.371,2.3.371m-2.931-.174a.337.337,0,1,0-.335-.337.337.337,0,0,0,.335.337m4.057.291a2.525,2.525,0,0,0-1.228.341l1.887.028.066-.05A4.625,4.625,0,0,0,17.3,1.65,4.277,4.277,0,0,0,20.014,4.2m1.325.5a.25.25,0,1,0-.25.251.25.25,0,0,0,.25-.251M11.262,4.573l1.887-.028A2.53,2.53,0,0,0,11.921,4.2,4.274,4.274,0,0,0,14.637,1.65,4.624,4.624,0,0,0,11.2,4.523c.033.024.034.024.066.05m-.605.264a.25.25,0,1,0,.249-.251.25.25,0,0,0-.249.251m.155,2.023a4.022,4.022,0,0,0-3.344-.219,4.719,4.719,0,0,0,1.749-3.5A4.644,4.644,0,0,0,6.961,7.022c2.744.817,3.851-.162,3.851-.162m.757-.533.02-.922A4.927,4.927,0,0,0,9.535,5.3a4.712,4.712,0,0,0,2.327-3.141A4.636,4.636,0,0,0,8.97,5.587a6.19,6.19,0,0,0,2.6.741M22.434,5.148a3.256,3.256,0,0,0-1.851.1l0,.947a5.111,5.111,0,0,0,2.425-.779,4.635,4.635,0,0,0-2.971-3.359,4.714,4.714,0,0,0,2.4,3.087M13.047,4.2s.829.55,2.284-.457c0,0-1.8-.745-2.284.457M25.66,16.994H24.606v1.34H25.66ZM22.817,7.809l-.544.652,2.948,2.962.6-.6Zm5.737-.09L25.851,5,23.43,7.649l2.6,2.576Zm-22.022-.3a.25.25,0,1,0,.25-.251.251.251,0,0,0-.25.251m20,2.861a7.4,7.4,0,0,0,1.733.261,5.34,5.34,0,0,0,.18-2.1l-.912.877a4.159,4.159,0,0,0,.378.7,4.667,4.667,0,0,0-.655-.433Zm-.819,13.275H24.659v1.34h1.054ZM24.179,6.176l.61-.622A3.929,3.929,0,0,0,22.7,2.982a4.382,4.382,0,0,0,1.477,3.194m5.484,9.385a.25.25,0,1,0,.25-.251.25.25,0,0,0-.25.251M26.378,3.107A1.491,1.491,0,0,0,27.8,3.088a1.358,1.358,0,0,1,1.513.168,1.251,1.251,0,0,1,.512,1.113c0,.485-.139.518-.139.518-.292.2-.219-.14-.219-.14s.066-.238.066-.238a1.076,1.076,0,0,0-.863-1.254,1.106,1.106,0,0,0-1.3.783,1.846,1.846,0,0,0-.042.707l-1.3-1.3.061,1.1,2.895,2.909h1.036L28.977,6.4a4.405,4.405,0,0,0,1.042.193A1.728,1.728,0,0,0,31.652,5.08,2.957,2.957,0,0,0,30.642,2.4,4.363,4.363,0,0,0,28.3,1.525,3.551,3.551,0,0,1,25.572,0,3.988,3.988,0,0,0,25.4,1.456a1.837,1.837,0,0,0,.979,1.652m3.641,12.042a4.657,4.657,0,0,0,.65-4.449,4.736,4.736,0,0,0-.811,3.834,4.046,4.046,0,0,0-2.747-1.928s.256,1.458,2.907,2.543m-1.71-3.922a.252.252,0,1,0-.25-.252.252.252,0,0,0,.25.252m-5.036-4.07.757-.788a3.387,3.387,0,0,0-2.835.369s.5.572,2.078.419m6.067,5.61a4.657,4.657,0,0,0-.125-4.493,4.736,4.736,0,0,0-.136,3.916,4.033,4.033,0,0,0-3.039-1.42s.5,1.392,3.3,2M20.5,31.093a.251.251,0,1,0,.25-.252.252.252,0,0,0-.25.252m1.255-.241A4.278,4.278,0,0,0,23.185,28.1l-.506.021a5.33,5.33,0,0,0-1.5,2.992,4.6,4.6,0,0,0,4.473-.128,4.671,4.671,0,0,0-3.9-.137m-2.333.784a4.056,4.056,0,0,0,1.918-2.761s-1.452.257-2.53,2.921a4.6,4.6,0,0,0,4.425.655,4.669,4.669,0,0,0-3.813-.815m-2.448.523A4.184,4.184,0,0,0,19.29,29.8c-1.474.1-2.736,2.327-2.736,2.327A5.009,5.009,0,0,0,20.343,33.6c-.982-1.3-3.369-1.445-3.369-1.445m-1.052-.777v.627c-.288-.456-1.413-2.108-2.683-2.189a4.184,4.184,0,0,0,2.333,2.343s-2.384.159-3.358,1.472A5.03,5.03,0,0,0,15.922,32.2v1.02h.632V31.382ZM24.659,25.6v1.34l5.965,4.972h1.193L25.746,25.6Zm-.74,4.073a4.823,4.823,0,0,0,.81-1.571l-1.018-.016a7.286,7.286,0,0,0-.313,1.947,4.754,4.754,0,0,0,3.957-.547l-.677-.546a4.424,4.424,0,0,0-2.759.732M12.083,31.189a.25.25,0,1,0-.25.252.251.251,0,0,0,.25-.252m16.68-7.014a4.074,4.074,0,0,0-.872-3.25s-.737,1.282.6,3.824a4.616,4.616,0,0,0,3.343-2.987,4.693,4.693,0,0,0-3.071,2.413M26.3,28.623l-.879-.721c.019.226.047.463.089.718a4.557,4.557,0,0,0,.79,0m-1.33.327a.252.252,0,1,0-.25-.251.251.251,0,0,0,.25.251M4.045,25.283a.25.25,0,1,0,.25-.252.251.251,0,0,0-.25.252M2.223,20.413c2.077-1.98,1.785-3.431,1.785-3.431a4.066,4.066,0,0,0-1.86,2.8A4.715,4.715,0,0,0,0,16.507a4.641,4.641,0,0,0,2.218,3.906m.006.348a.251.251,0,1,0,.251-.252.252.252,0,0,0-.251.252M5.794,5.053,3.859,3.09a2.231,2.231,0,0,0-2.619-.41L5.051,6.494a3.2,3.2,0,0,1,.742-1.441m-1.488,1.2L1.016,2.949S-.36,3.941.709,6.257ZM2.879,22.8c1.7-2.311,1.165-3.69,1.165-3.69a4.078,4.078,0,0,0-1.348,3.084A4.7,4.7,0,0,0,.02,19.342,4.629,4.629,0,0,0,2.879,22.8m1.527,6.552a2.855,2.855,0,0,1,.955-.318l-.626-.147-.061.078a.687.687,0,0,1,.061-.078L1.955,31.825s-.317.457-.017.758a.552.552,0,0,0,.666-.035L5.31,30.168a2.686,2.686,0,0,1-.9-.816m5.269-1.194-.354,0a4.205,4.205,0,0,0,1.494,2.826,4.671,4.671,0,0,0-3.892.227,4.593,4.593,0,0,0,4.472.023,5.035,5.035,0,0,0-1.719-3.073m-5.737-3.12c1.276-2.573.511-3.838.511-3.838a4.073,4.073,0,0,0-.8,3.272A4.687,4.687,0,0,0,.525,22.132a4.619,4.619,0,0,0,3.413,2.906M11.182,29a4.057,4.057,0,0,0,1.982,2.714,4.683,4.683,0,0,0-3.794.9,4.6,4.6,0,0,0,4.41-.759c-1.141-2.636-2.6-2.86-2.6-2.86M5.231,8.788c2.843.324,3.763-.833,3.763-.833a4.026,4.026,0,0,0-3.33.367A4.726,4.726,0,0,0,6.783,4.57,4.65,4.65,0,0,0,5.231,8.788m.136,18.269c.813-2.757-.161-3.869-.161-3.869a4.08,4.08,0,0,0-.218,3.359A4.681,4.681,0,0,0,1.5,24.791a4.61,4.61,0,0,0,3.863,2.266M26.148,24.8a1.078,1.078,0,0,0-.237.472l.53.553a2.62,2.62,0,0,0-.293-1.025M8.468,13.768l.975.863h2.2a2.581,2.581,0,0,1-.072-.844ZM13.92,7.3V6.066h3.825V7.83h1.263V9.1H17.78v.564h1.227v1.375H17.78v4.126H16.728L15.271,13.7l-1.332,1.34-.965-.97,2.211-2.222L16.325,13V7.3Zm-1.966,5.913c0,2.927,1.826,4.28,4.077,4.28s4.082-1.349,4.082-4.28V4.869H11.955s0,5.421,0,8.345M8.947,8.4a1.942,1.942,0,0,1-1.185.565l1.185,1.1ZM19.379,20.582c.266,0,.266-.2.269-.407V18.268h.544v2.016c0,.294-.033.793-.817.793-.507,0-.811-.239-.811-.756V18.268h.544v1.79c0,.208-.026.524.27.524m1.4,1.054v.513h-.551v.6h.485v.514h-.485v.623h.56V24.4h-1.1V21.636Zm-.148-3.368h.611l.158.384a3.341,3.341,0,0,1,.132.421h.006a3.049,3.049,0,0,1,.124-.421l.165-.384h.587l-.587,1.339.63,1.425h-.63l-.175-.438c-.051-.14-.085-.277-.12-.414h-.008c-.041.138-.072.274-.12.414l-.162.438h-.611l.582-1.425ZM22.287,24.4l-.1-.466h-.551l-.1.466H21l.638-2.766h.573l.661,2.766Zm-3.483,0-.131-1.993h-.008l-.088.682L18.344,24.4h-.42l-.267-1.325-.091-.617v-.052h-.008l-.08,1.993h-.585l.241-2.766h.717l.266,1.633h.006l.22-1.633h.73l.288,2.766ZM17.04,18.268h.544V20.52h.568v.512H17.04Zm-.7-.427V27.22a1.969,1.969,0,0,1,1.264-.526H23.4V15.055H20.273a4.226,4.226,0,0,1-3.931,2.786M14,19.046a.312.312,0,0,0-.368-.346h-.073v.737l.095,0c.248,0,.346-.168.346-.395m7.9,3.3H21.9l-.059.418-.116.737H22.1l-.139-.737ZM7.253,10.025h0A3.585,3.585,0,0,1,5.4,10.87l.361.342,3.789-.019-1.176-1.18h0l-.6-.6a6.424,6.424,0,0,1-.527.613M28.389,24.994a.25.25,0,1,0-.25.251.25.25,0,0,0,.25-.251m1.462-4.3a.252.252,0,1,0-.249-.253.252.252,0,0,0,.249.253m-1.606-1.871s-.5,1.393,1.252,3.663a4.628,4.628,0,0,0,2.776-3.525,4.7,4.7,0,0,0-2.606,2.913,4.079,4.079,0,0,0-1.422-3.051m1.912.629A4.062,4.062,0,0,0,28.233,16.7s-.258,1.458,1.864,3.389a4.64,4.64,0,0,0,2.126-3.955,4.717,4.717,0,0,0-2.066,3.323M27.18,22.929s-.947,1.136-.07,3.871a4.607,4.607,0,0,0,3.808-2.356,4.684,4.684,0,0,0-3.443,1.84,4.083,4.083,0,0,0-.3-3.356m3.043-5.948s-.749-1.993-2.374-2.38c0,0,0,1.482,2.422,3.013a4.65,4.65,0,0,0,1.41-4.267,4.723,4.723,0,0,0-1.458,3.634m-1.74,10.968a3.8,3.8,0,0,0,1.14-1.1,4.782,4.782,0,0,0-1.962.242Zm-15.795-5.2-.063-.421h-.008l-.058.421-.117.736h.384ZM4.632,6.4a4.657,4.657,0,0,0-.8,4.423c2.856-.175,3.561-1.474,3.561-1.474a4.026,4.026,0,0,0-3.216.942A4.735,4.735,0,0,0,4.632,6.4M15.344,28.616h1.647s.108-.718.573-.718H24.4V15.81l-.679-.719V27.068H17.6a2.342,2.342,0,0,0-1.469.864,2.111,2.111,0,0,0-1.573-.827H8.58V15.2l-.734.737V27.9h6.675s.824.035.824.718M2.551,15.894a.25.25,0,1,0-.25.25.251.251,0,0,0,.25-.25m-.221-1.037a4.727,4.727,0,0,0-.9-3.81,4.654,4.654,0,0,0,.754,4.431c2.624-1.147,2.845-2.611,2.845-2.611a4.045,4.045,0,0,0-2.7,1.99M.482,13.714A4.646,4.646,0,0,0,1.99,17.946c2.386-1.585,2.351-3.068,2.351-3.068a4.054,4.054,0,0,0-2.317,2.433,4.722,4.722,0,0,0-1.542-3.6M3.2,8.792a3.4,3.4,0,0,1,.787-2.238H.849S.982,6.921,3.2,8.792m8.3,4.666v-.342L9.868,11.475H6.044L8.2,13.458ZM7.559,27.335c.011.115.03-.026.03-.026V25.675l-.268.3a5.9,5.9,0,0,1,.237,1.362M3.54,11.263a.25.25,0,1,0,.25-.253.251.251,0,0,0-.25.253m4,17.906a.252.252,0,1,0-.249-.252.25.25,0,0,0,.249.252M9.289,10.436,11.5,12.621V10.929L9.289,8.707Zm-1.719,13H6.516V24.77H7.57ZM22.22,9.043,20.5,10.922l.017,3a3.438,3.438,0,0,1-.159.742h1.106l3.158-3.175Zm-9.314,9.206v.514h-.551v.6h.485v.513h-.485V20.5h.558v.513h-1.1V18.253l-.763,2.762h-.444L9.81,18.249h.581l.329,1.329c.048.157.067.315.1.472h.006c.029-.16.042-.318.085-.479l.331-1.321Zm.684,6.133h-.58l-.1-.465h-.551l-.1.465h-.54l.639-2.766h.572Zm-.572-6.133h.548c.346,0,.967.037.967.794a.766.766,0,0,1-.391.713l.479,1.26h-.573l-.478-1.277h-.007v1.277h-.544Zm1.709,0h.544v2.766h-.544Zm-.4,6.178a.83.83,0,0,1-.468-.14v-.521a.7.7,0,0,0,.413.147.3.3,0,0,0,.314-.3c0-.211-.169-.293-.321-.4a.911.911,0,0,1-.507-.821.734.734,0,0,1,.719-.813.927.927,0,0,1,.482.135v.533a.617.617,0,0,0-.394-.177.252.252,0,0,0-.275.271c0,.455.829.481.829,1.229a.776.776,0,0,1-.79.863m-2.706-2.3h-.431v2.25h-.544v-2.25h-.427v-.515h1.4ZM8.9,15.055V26.694h5.736a2.7,2.7,0,0,1,1.317.526V17.911a4.158,4.158,0,0,1-4.176-2.856ZM9.152,30.2a6.75,6.75,0,0,0-.412-2.05H7.722a5.071,5.071,0,0,0,.9,1.7A4.67,4.67,0,0,0,4.751,29.4a4.6,4.6,0,0,0,4.4.8M5.7,11.559l-.51-.479A4.652,4.652,0,0,0,3.056,12.5a4.62,4.62,0,0,0,.006-3.4L2.691,8.8a5.023,5.023,0,0,0,.116,4.284A5.376,5.376,0,0,0,5.7,11.559M2.928,27.239A4.6,4.6,0,0,0,7.122,28.8c.324-2.859-.827-3.784-.827-3.784a4.08,4.08,0,0,0,.367,3.347,4.67,4.67,0,0,0-3.734-1.121M7.534,17.1H6.481v1.341H7.534Z" transform="translate(0)" fill="#002474"/>
  </g>
</svg>
