<svg id="그룹_37495" data-name="그룹 37495" xmlns="http://www.w3.org/2000/svg" xmlns:xlink="http://www.w3.org/1999/xlink" width="254.16" height="61.615" viewBox="0 0 254.16 61.615">
  <defs>
    <clipPath id="clip-path">
      <rect id="사각형_11926" data-name="사각형 11926" width="254.16" height="61.615" fill="none"/>
    </clipPath>
  </defs>
  <g id="그룹_37494" data-name="그룹 37494" clip-path="url(#clip-path)">
    <path id="패스_71175" data-name="패스 71175" d="M34.571,1.6c0,.886-.484,1.6-1.085,1.6S32.4,2.491,32.4,1.6,32.889,0,33.486,0s1.085.717,1.085,1.6" transform="translate(-6.837 0.401)" fill="#1f60a9"/>
    <path id="패스_71176" data-name="패스 71176" d="M34.571,75.239c0,.886-.484,1.6-1.085,1.6s-1.085-.717-1.085-1.6.488-1.607,1.085-1.607,1.085.721,1.085,1.607" transform="translate(-6.837 -15.443)" fill="#1f60a9"/>
    <path id="패스_71177" data-name="패스 71177" d="M65.8,21.055c-.766.443-1.629.381-1.928-.139s.078-1.3.843-1.743,1.631-.383,1.931.137-.079,1.3-.846,1.745" transform="translate(-13.636 -3.66)" fill="#1f60a9"/>
    <path id="패스_71178" data-name="패스 71178" d="M2.034,57.873c-.767.442-1.632.381-1.931-.14s.078-1.3.845-1.744,1.629-.381,1.93.139-.079,1.3-.844,1.745" transform="translate(0.187 -11.583)" fill="#1f60a9"/>
    <path id="패스_71179" data-name="패스 71179" d="M2.031,19.173c.768.442,1.144,1.222.845,1.744s-1.165.584-1.928.138S-.2,19.833.1,19.312s1.163-.583,1.928-.139" transform="translate(0.187 -3.66)" fill="#1f60a9"/>
    <path id="패스_71180" data-name="패스 71180" d="M65.8,55.989c.767.443,1.143,1.224.844,1.744s-1.162.582-1.93.14-1.143-1.224-.843-1.745,1.162-.585,1.928-.139" transform="translate(-13.636 -11.583)" fill="#1f60a9"/>
    <path id="패스_71181" data-name="패스 71181" d="M53.658,47.463l4.775-2.7-1.251-2.191L52.39,45.279Z" transform="translate(-11.17 -8.76)" fill="#1f60a9"/>
    <path id="패스_71182" data-name="패스 71182" d="M49.269,51.372l.059,5.555,2.52-.009-.061-5.546Z" transform="translate(-10.493 -10.653)" fill="#1f60a9"/>
    <path id="패스_71183" data-name="패스 71183" d="M13.491,45.358,8.638,42.619,7.389,44.812l4.84,2.733Z" transform="translate(-1.415 -8.77)" fill="#1f60a9"/>
    <path id="패스_71184" data-name="패스 71184" d="M14.992,51.372l-.06,5.581,2.518.011.06-5.592Z" transform="translate(-3.05 -10.653)" fill="#1f60a9"/>
    <path id="패스_71185" data-name="패스 71185" d="M54.208,19.332l-.062,5.5h.4l2.135-1.235.052-4.258Z" transform="translate(-11.55 -3.758)" fill="#1f60a9"/>
    <path id="패스_71186" data-name="패스 71186" d="M57.158,25.519l-2.234,1.293-.148.257L59.6,29.788l1.26-2.189Z" transform="translate(-11.687 -5.09)" fill="#1f60a9"/>
    <path id="패스_71187" data-name="패스 71187" d="M59.617,46.811,54.845,49.5l.208.356,2.12,1.226L60.878,49Z" transform="translate(-11.702 -9.671)" fill="#1f60a9"/>
    <path id="패스_71188" data-name="패스 71188" d="M56.676,52.659l-2.225-1.287h-.307l.063,5.546h2.52Z" transform="translate(-11.55 -10.653)" fill="#1f60a9"/>
    <path id="패스_71189" data-name="패스 71189" d="M31.808,62.78l-4.735,2.811,1.26,2.189L31.989,65.6V63.094Z" transform="translate(-5.682 -13.108)" fill="#1f60a9"/>
    <path id="패스_71190" data-name="패스 71190" d="M34.227,63.081v2.528l3.649,2.171,1.262-2.19L34.4,62.78Z" transform="translate(-7.232 -13.108)" fill="#1f60a9"/>
    <path id="패스_71191" data-name="패스 71191" d="M12.389,51.372,10.1,52.7l-.052,4.255h2.521l.063-5.581Z" transform="translate(-1.991 -10.653)" fill="#1f60a9"/>
    <path id="패스_71192" data-name="패스 71192" d="M11.048,49.583,6.2,46.855l-1.26,2.189,3.708,2.084,2.26-1.31Z" transform="translate(-0.885 -9.681)" fill="#1f60a9"/>
    <path id="패스_71193" data-name="패스 71193" d="M10.954,26.8l-2.3-1.333L4.944,27.554l1.26,2.19L11.068,27Z" transform="translate(-0.885 -5.08)" fill="#1f60a9"/>
    <path id="패스_71194" data-name="패스 71194" d="M12.632,24.818l-.063-5.531-2.521,0,.052,4.257,2.2,1.272Z" transform="translate(-1.991 -3.749)" fill="#1f60a9"/>
    <path id="패스_71195" data-name="패스 71195" d="M29.378,58.548l-4.755,2.82,1.266,2.18,4.742-2.81Z" transform="translate(-5.151 -12.197)" fill="#1f60a9"/>
    <path id="패스_71196" data-name="패스 71196" d="M35.284,60.747l4.735,2.8,1.268-2.18-4.735-2.806Z" transform="translate(-7.462 -12.201)" fill="#1f60a9"/>
    <path id="패스_71197" data-name="패스 71197" d="M53.6,28.933l-1.255,2.186,4.828,2.726,1.25-2.19Z" transform="translate(-11.16 -5.824)" fill="#1f60a9"/>
    <path id="패스_71198" data-name="패스 71198" d="M51.788,24.825l.06-5.494-2.52-.011-.059,5.5Z" transform="translate(-10.493 -3.756)" fill="#1f60a9"/>
    <path id="패스_71199" data-name="패스 71199" d="M36.5,17.772l4.774-2.831L40.01,12.763l-4.768,2.825Z" transform="translate(-7.452 -2.345)" fill="#1f60a9"/>
    <path id="패스_71200" data-name="패스 71200" d="M30.656,15.588,25.89,12.763l-1.267,2.178L29.4,17.772Z" transform="translate(-5.15 -2.345)" fill="#1f60a9"/>
    <path id="패스_71201" data-name="패스 71201" d="M12.247,28.862,7.389,31.6,8.637,33.8,13.5,31.049Z" transform="translate(-1.415 -5.809)" fill="#1f60a9"/>
    <path id="패스_71202" data-name="패스 71202" d="M17.51,24.815l-.06-5.54-2.518.011.058,5.529Z" transform="translate(-3.05 -3.746)" fill="#1f60a9"/>
    <path id="패스_71203" data-name="패스 71203" d="M49.933,41.248,51.2,43.433,56,40.723l-.872-1.509h-1.6Z" transform="translate(-10.637 -8.037)" fill="#1f60a9"/>
    <path id="패스_71204" data-name="패스 71204" d="M42.389,19.906l.879-1.526-.808-1.407L37.684,19.8l1.223,2.116Z" transform="translate(-7.982 -3.251)" fill="#1f60a9"/>
    <path id="패스_71205" data-name="패스 71205" d="M44.406,24.824h2.509l.06-5.509-1.74,0-.83,1.439Z" transform="translate(-9.439 -3.755)" fill="#1f60a9"/>
    <path id="패스_71206" data-name="패스 71206" d="M51.186,33.159l-1.2,2.095,3.456,2h1.782l.791-1.368Z" transform="translate(-10.648 -6.734)" fill="#1f60a9"/>
    <path id="패스_71207" data-name="패스 71207" d="M44.406,51.372v3.952l.92,1.594,1.65.011-.062-5.557Z" transform="translate(-9.439 -10.653)" fill="#1f60a9"/>
    <path id="패스_71208" data-name="패스 71208" d="M39,54.359l-1.261,2.172,4.736,2.809.842-1.443-.9-1.557Z" transform="translate(-7.993 -11.296)" fill="#1f60a9"/>
    <path id="패스_71209" data-name="패스 71209" d="M23.512,56.311,22.656,57.8l.887,1.527L28.3,56.5l-1.271-2.22Z" transform="translate(-4.724 -11.279)" fill="#1f60a9"/>
    <path id="패스_71210" data-name="패스 71210" d="M22.324,51.372H19.866l-.06,5.593,1.591,0,.927-1.61Z" transform="translate(-4.107 -10.653)" fill="#1f60a9"/>
    <path id="패스_71211" data-name="패스 71211" d="M12.364,39.214H10.69L9.811,40.76,14.664,43.5l1.279-2.219Z" transform="translate(-1.94 -8.037)" fill="#1f60a9"/>
    <path id="패스_71212" data-name="패스 71212" d="M15.888,35.194l-1.212-2.108L9.812,35.832l.811,1.4h1.751Z" transform="translate(-1.94 -6.718)" fill="#1f60a9"/>
    <path id="패스_71213" data-name="패스 71213" d="M24.453,20.448l2.636,1.518,1.242-2.16-4.779-2.832-.859,1.49.822,1.427Z" transform="translate(-4.732 -3.251)" fill="#1f60a9"/>
    <path id="패스_71214" data-name="패스 71214" d="M22.324,24.814V20.728l-.839-1.453-1.679,0,.06,5.542Z" transform="translate(-4.107 -3.746)" fill="#1f60a9"/>
    <path id="패스_71215" data-name="패스 71215" d="M24.2,24.236a1.171,1.171,0,0,1,.86-.05l1.353.429.6-1.047-3.148-1.814v2.77a.854.854,0,0,1,.334-.289" transform="translate(-4.987 -4.28)" fill="#1f60a9"/>
    <path id="패스_71216" data-name="패스 71216" d="M41.372,24.356l.378.027a1.647,1.647,0,0,1,.972.42V21.754L39.668,23.52l.482.836Z" transform="translate(-8.412 -4.28)" fill="#1f60a9"/>
    <path id="패스_71217" data-name="패스 71217" d="M24.995,53.18a2.793,2.793,0,0,1-.372.024.738.738,0,0,1-.11-.005.413.413,0,0,1-.12-.018,1.022,1.022,0,0,1-.449-.237.747.747,0,0,1-.078-.089v2.337l3.1-1.789-.3-.522a12.239,12.239,0,0,1-1.675.3" transform="translate(-4.987 -10.972)" fill="#1f60a9"/>
    <path id="패스_71218" data-name="패스 71218" d="M42.128,53.175a.361.361,0,0,1-.118.022.892.892,0,0,1-.157,0c-.1-.011-.211-.02-.285-.033-.352-.038-.739-.1-1.173-.192-.1-.022-.205-.052-.307-.078l-.313.54,2.968,1.725,0-2.415a.982.982,0,0,1-.614.435" transform="translate(-8.435 -10.947)" fill="#1f60a9"/>
    <path id="패스_71219" data-name="패스 71219" d="M36.315,51.635a8.461,8.461,0,0,1-.78-.329c-.18-.086-.354-.176-.52-.27a.313.313,0,0,0-.043-.026c-.121-.071-.235-.135-.347-.209-.139-.095-.276-.187-.407-.285-.016-.011-.029-.023-.043-.031-.142-.11-.276-.218-.407-.331a6.28,6.28,0,0,1-1.242-1.5,6.252,6.252,0,0,1-1.252,1.507c-.148.126-.3.248-.457.366l-.02.017a8.034,8.034,0,0,1-.8.514c-.078.044-.157.085-.237.126s-.168.087-.257.129c-.244.119-.5.224-.768.323-.153.056-.3.108-.454.155l4.308,7.524L36.9,51.826c-.192-.06-.384-.117-.58-.191" transform="translate(-5.944 -10.068)" fill="#0c2d83"/>
    <path id="패스_71220" data-name="패스 71220" d="M49.226,40.093l3.094-1.777L49.275,36.56,48.23,38.38Z" transform="translate(-10.268 -7.466)" fill="#1f60a9"/>
    <path id="패스_71221" data-name="패스 71221" d="M17.132,36.5l-3.1,1.8,3.155,1.824L18.2,38.369Z" transform="translate(-2.855 -7.454)" fill="#1f60a9"/>
    <path id="패스_71222" data-name="패스 71222" d="M45.225,24.675H37.514c0,.023,0,.039,0,.061v.031a10.661,10.661,0,0,1-.181,1.869c-.028.194-.058.387-.09.569,0,.017-.005.035-.009.05-.05.309-.109.6-.17.881,0,.015-.01.031-.013.046-.039.179-.083.353-.128.517a13.274,13.274,0,0,1-.724,2.106,14.361,14.361,0,0,0,1.451,1.875.194.194,0,0,1,.045.042.83.83,0,0,1,.249.585.752.752,0,0,1-.032.214.823.823,0,0,1-.225.379.165.165,0,0,0-.024.023.963.963,0,0,1-1.263.011l-.01.01a15.237,15.237,0,0,1-1.189-1.37,5.406,5.406,0,0,1-1.139,1.231l-.013-.009a.935.935,0,0,1-.622.229.919.919,0,0,1-.87-.582.923.923,0,0,1-.769.392.971.971,0,0,1-.551-.169.048.048,0,0,0-.012-.011A.887.887,0,0,1,31,33.412c-.372-.48-1.031-1.726-.8-4.37v0a.048.048,0,0,1,0-.015.764.764,0,0,1,.117-.326.949.949,0,0,1,1.568,0,.8.8,0,0,1,.124.428.759.759,0,0,1-.021.175,6.4,6.4,0,0,0,.581,3.266.763.763,0,0,1,.074.15,1.047,1.047,0,0,1,.186-.2,8.875,8.875,0,0,0,1.228-1.6A12.169,12.169,0,0,1,33,28.7c-.063-.17-.119-.341-.17-.517-.007-.015-.007-.031-.016-.046a8.8,8.8,0,0,1-.206-.881.2.2,0,0,1-.009-.05c-.034-.188-.062-.377-.079-.569-.013-.15-.023-.3-.028-.449h0c0-.013,0-.024,0-.035a.913.913,0,0,1,1.812-.068h0a5.326,5.326,0,0,0,.1.553c.036.161.085.352.146.569,0,.017.011.035.012.05.078.259.169.559.29.881.007.015.01.031.016.046.059.155.124.314.193.475.049-.159.1-.314.137-.475,0-.015.008-.031.011-.046.08-.305.145-.6.2-.881,0-.015.005-.033.005-.05.039-.194.067-.386.092-.569a8.208,8.208,0,0,0,.113-1.507.369.369,0,0,0-.392-.361H33.307l-.12,0a.873.873,0,0,1-.87-.863,1.45,1.45,0,0,1,.027-.355.722.722,0,0,1,.71-.548l.168.009h.509l-4.326-7.486-4.58,7.962a.858.858,0,0,1,.487,1.044,1,1,0,0,1-1.272.493l-1.133-.355H13.6l5.274,9.181L13.6,43h9.719a9.768,9.768,0,0,0,1-.251,6.075,6.075,0,0,0,2.547-1.376,3.982,3.982,0,0,0,.459-.531c.011-.016.022-.034.03-.048a4.012,4.012,0,0,0,.437-.851c.008-.015.012-.034.019-.05a4.763,4.763,0,0,0,.143-.5c.024-.1.045-.213.061-.319H22.748a1.038,1.038,0,0,1-1.068-1v-.089a1.038,1.038,0,0,1,1.068-.994h5.469V35.7a1.065,1.065,0,0,1,1.12-.991h.1a1.068,1.068,0,0,1,1.125.991V36.99h5.429a1.04,1.04,0,0,1,1.069.994v.089a1.039,1.039,0,0,1-1.069,1h-5.32c.018.107.038.218.063.319a4.416,4.416,0,0,0,.143.5c0,.016.013.035.018.05a4.357,4.357,0,0,0,.433.851c.013.014.023.031.036.048a3.054,3.054,0,0,0,.457.555A6.439,6.439,0,0,0,34.609,42.8c.269.077.469.14.658.2h9.958l-5.266-9.14Zm-23.9,1.252a.8.8,0,0,1,.33-.392,1.163,1.163,0,0,1,.948-.1l2.1.683a1.068,1.068,0,0,1,.638.543.759.759,0,0,1,.03.568s0,.011-.005.011a.416.416,0,0,1-.01.042,1.023,1.023,0,0,1-1.262.447L22.7,27.281l-.155-.053-.556-.178a1.1,1.1,0,0,1-.551-.39,1.18,1.18,0,0,1-.068-.1.761.761,0,0,1-.049-.629m3.42,3.421c.107,2.291-1.859,4.317-2,4.46a.983.983,0,0,1-.736.323.966.966,0,0,1-.511-.139.894.894,0,0,1-.4-.469l0-.009a.849.849,0,0,1,.293-.922l.056-.054a4.979,4.979,0,0,0,1.43-3.4l.021,0a.8.8,0,0,1,.211-.44.994.994,0,0,1,.714-.3,1.01,1.01,0,0,1,.717.3.776.776,0,0,1,.213.531.646.646,0,0,1-.009.116M26.5,33.412a.869.869,0,0,1-.225.246.059.059,0,0,1-.011.011.974.974,0,0,1-.551.169A.878.878,0,0,1,24.8,33a.83.83,0,0,1,.125-.429,6.352,6.352,0,0,0,.58-3.266.855.855,0,0,1-.021-.175.79.79,0,0,1,.128-.428.946.946,0,0,1,1.565,0,.764.764,0,0,1,.117.326h0a.048.048,0,0,1,0,.015v0c.23,2.644-.425,3.89-.8,4.37m3.348-5.276v5.2a1.072,1.072,0,0,1-1.106,1.026h-.015a1.07,1.07,0,0,1-1.1-1.026V27.529h-.788a1.262,1.262,0,0,1-.8-.272l-.056-.05a.751.751,0,0,1-.244-.541v-.028a1.021,1.021,0,0,1,1.1-.838h.788V23.006a.956.956,0,0,1,.205-.593,1.131,1.131,0,0,1,.9-.429h.015a1.07,1.07,0,0,1,1.106,1.023V23.3h1.064a1.01,1.01,0,0,1,1.1.866,1.011,1.011,0,0,1-1.1.863H29.845V25.8h1.148a1.018,1.018,0,0,1,1.1.838c0,.011,0,.019,0,.028a.757.757,0,0,1-.247.541.71.71,0,0,1-.059.05,1.237,1.237,0,0,1-.8.272H29.845Z" transform="translate(-2.761 -2.941)" fill="#0c2d83"/>
    <path id="패스_71223" data-name="패스 71223" d="M109.208,28.695H85v2.572H95.306v2.041H85.919V35.88h18.693v5.436h3.94V33.308H99.246V31.267h10.208V28.695Z" transform="translate(-18.238 -5.773)" fill="#0c2d83"/>
    <path id="패스_71224" data-name="패스 71224" d="M98.893,17.628H95.624l-.074.126c-2.242,3.9-7.991,4.417-9.7,4.48l-.24.009-.031.257v2.29l.25,0c6.67-.155,9.917-1.968,11.5-3.527,1.582,1.559,4.832,3.372,11.5,3.527l.25,0V22.219l-.285-.011c-2.192-.082-7.521-.677-9.689-4.454l-.073-.126Z" transform="translate(-18.363 -3.392)" fill="#0c2d83"/>
    <path id="패스_71225" data-name="패스 71225" d="M143.511,18.175h-3.472v2h-4.822V18.624H121.445v9.751h13.772V26.834h4.822v3.087a12.388,12.388,0,0,0-5.064-1.036c-4.84,0-8.778,2.5-8.778,5.568s3.938,5.568,8.778,5.568,8.762-2.489,8.776-5.549l.009-16.3Zm-12.041,7.6h-6.279V21.22h6.279Zm8.569-1.488h-4.822V22.714h4.822Zm-9.88,10.16c0-1.59,2.162-2.884,4.816-2.884s4.816,1.294,4.816,2.884-2.159,2.883-4.816,2.883-4.816-1.29-4.816-2.883" transform="translate(-26.138 -3.51)" fill="#0c2d83"/>
    <path id="패스_71226" data-name="패스 71226" d="M154.8,24.666c0,3.68,3.4,6.669,7.58,6.669a7.894,7.894,0,0,0,6.209-2.873h5.45V39.015h3.807V18.127h-3.807v2.694h-5.489A7.907,7.907,0,0,0,162.378,18c-4.182,0-7.58,2.992-7.58,6.668m3.835,0a3.747,3.747,0,1,1,3.745,3.913,3.832,3.832,0,0,1-3.745-3.913m15.4-1.3v2.55h-4.26a5.863,5.863,0,0,0,.178-1.25,5.841,5.841,0,0,0-.192-1.3Z" transform="translate(-33.368 -3.471)" fill="#0c2d83"/>
    <path id="패스_71227" data-name="패스 71227" d="M236.042,18.867H227.36v0h-2.508V31.495h11.434V28.952H228.7V21.412h7.582V18.867Z" transform="translate(-48.553 -3.658)" fill="#0c2d83"/>
    <path id="패스_71228" data-name="패스 71228" d="M250.786,18.153h-3.569V23.2h-1.465V18.153h-3.816v20.9h3.816V25.742h1.465V39.048h3.814v-20.9Z" transform="translate(-52.257 -3.505)" fill="#0c2d83"/>
    <path id="패스_71229" data-name="패스 71229" d="M203.664,18.834H190.146v2.544h4.88c-.608,5.941-3.9,7.245-5.319,7.519l-.2.041v2.6l.273-.035a9.036,9.036,0,0,0,7.116-4.6,9.047,9.047,0,0,0,7.192,4.612l.269.031V28.949l-.2-.038c-1.434-.254-4.779-1.525-5.392-7.533h5.151V18.834Z" transform="translate(-40.892 -3.651)" fill="#0c2d83"/>
    <path id="패스_71230" data-name="패스 71230" d="M216.029,18.17h-3.521V39.052h3.769V25.729h2.847V23.186h-2.847V18.17Z" transform="translate(-45.878 -3.508)" fill="#0c2d83"/>
    <path id="패스_71231" data-name="패스 71231" d="M286.523,18.153H283V29.412h3.767v-4.48h2.736V22.307h-2.736V18.153Z" transform="translate(-61.159 -3.505)" fill="#0c2d83"/>
    <path id="패스_71232" data-name="패스 71232" d="M282.011,34.252H262.571v2.626h15.864v5.634h3.822v-8.26Z" transform="translate(-56.73 -6.969)" fill="#0c2d83"/>
    <path id="패스_71233" data-name="패스 71233" d="M268.882,17.647h-3.568v1.712h-6.18v2.415h1.771a3.975,3.975,0,0,0-1.151,2.694c0,2.821,3.373,5.116,7.524,5.116s7.522-2.295,7.522-5.116a3.991,3.991,0,0,0-1.15-2.694h1.581V19.359h-6.106V17.647Zm-5.259,6.744c0-1.44,1.594-2.614,3.557-2.614s3.564,1.174,3.564,2.614-1.6,2.617-3.564,2.617-3.557-1.173-3.557-2.617" transform="translate(-55.985 -3.396)" fill="#0c2d83"/>
    <path id="패스_71234" data-name="패스 71234" d="M316.243,19.848H297.051v2.544h15.586V34.15h3.854v-14.3Z" transform="translate(-64.204 -3.869)" fill="#0c2d83"/>
    <path id="패스_71235" data-name="패스 71235" d="M308.537,28.36h-3.605V37.5h-2.8V28.36h-3.855V37.5h-3.8v2.546H317.72V37.5h-8.937V28.36Z" transform="translate(-63.647 -5.701)" fill="#0c2d83"/>
    <path id="패스_71236" data-name="패스 71236" d="M88.2,55.018c-1.527-.567-1.323-1.377-1.314-1.413.119-.841,1.14-.833,1.183-.833a1.728,1.728,0,0,1,1.4.61l.013.02h.245V51.894l-.06.014a2.843,2.843,0,0,1-1.035-.1,2.725,2.725,0,0,0-2.574.688,2.171,2.171,0,0,0-.364,2A3.24,3.24,0,0,0,87.538,56.1c1.241.51,1.191,1.322,1.19,1.33,0,1.259-1.354,1.309-1.412,1.311a2.083,2.083,0,0,1-1.649-.826l-.025-.038-.125.083c-.02.04.067,1.366.067,1.366.453.457,1.809.462,1.868.462a2.806,2.806,0,0,0,2.087-.867,2.268,2.268,0,0,0,.5-1.6c0-1.629-1.823-2.293-1.843-2.3" transform="translate(-18.35 -10.732)" fill="#0c2d83"/>
    <path id="패스_71237" data-name="패스 71237" d="M96.15,51.737A3.78,3.78,0,0,0,92.1,55.762a3.861,3.861,0,0,0,4.045,4.025,4.025,4.025,0,1,0,0-8.051m2.69,4.025a2.75,2.75,0,0,1-2.69,2.96c-1.669,0-2.666-1.106-2.666-2.96A2.647,2.647,0,0,1,96.15,52.8a2.6,2.6,0,0,1,1.884.721,3.066,3.066,0,0,1,.806,2.243" transform="translate(-19.778 -10.731)" fill="#0c2d83"/>
    <path id="패스_71238" data-name="패스 71238" d="M107.519,51.737a3.78,3.78,0,0,0-4.045,4.025,3.862,3.862,0,0,0,4.045,4.025,4.025,4.025,0,1,0,0-8.051m2.691,4.025a2.752,2.752,0,0,1-2.691,2.96c-1.668,0-2.665-1.106-2.665-2.96a2.648,2.648,0,0,1,2.665-2.964,2.6,2.6,0,0,1,1.884.721,3.07,3.07,0,0,1,.807,2.243" transform="translate(-22.243 -10.731)" fill="#0c2d83"/>
    <path id="패스_71239" data-name="패스 71239" d="M120.714,58.628s-3.005-3.179-3.066-3.245l2.931-2.77a1.864,1.864,0,0,1,.858-.439l.04,0v-.232h-2.538v.241l.033.011c.1.03.156.074.171.129a.089.089,0,0,1,0,.027.357.357,0,0,1-.112.214l-2.508,2.4v-2.19a.639.639,0,0,1,.447-.6l.032-.009v-.224h-2.365v.235h.045c.468,0,.5.578.5.6v5.976a.612.612,0,0,1-.507.641l-.039,0v.24h2.365v-.235l-.034-.008c-.43-.115-.444-.625-.446-.643V56l2.664,2.853c.626.71,1.044.786,1.063.788l1.491,0v-.333l-.034-.007a3.314,3.314,0,0,1-1-.673" transform="translate(-24.663 -10.775)" fill="#0c2d83"/>
    <path id="패스_71240" data-name="패스 71240" d="M133.848,58.62,132.18,51.6h-.194c-.04.026-2.322,5.089-2.647,5.814L126.7,51.632l-.2-.027h-.037l-1.571,7.015c-.139.638-.5.731-.518.735l-.037.009v.192h2.1v-.192l-.034-.007a.424.424,0,0,1-.326-.444.656.656,0,0,1,.009-.107s.669-3.436.8-4.1c.113.242,2.347,5.061,2.347,5.061l.224.024c.036-.024,1.938-4.3,2.283-5.08.052.267.8,4.019.8,4.019a1.156,1.156,0,0,1,.022.214.42.42,0,0,1-.085.286.257.257,0,0,1-.2.085l-.05,0v.242h2.157v-.192a1.209,1.209,0,0,1-.536-.743" transform="translate(-26.765 -10.703)" fill="#0c2d83"/>
    <path id="패스_71241" data-name="패스 71241" d="M141.366,52.095v.172l.033.009a.318.318,0,0,1,.179.146.252.252,0,0,1,.023.111.393.393,0,0,1-.033.152s-1.194,2.03-1.391,2.365l-1.355-2.367a.39.39,0,0,1-.011-.283l.181-.137.014-.029v-.139h-2.265v.181l.042,0s.32.035.783.792l1.87,3.088-.007,2.785a.548.548,0,0,1-.5.453l-.041.006v.259h2.4v-.253l-.034-.009s-.508-.135-.508-.5V56.135c.007,0,1.927-3.062,1.927-3.062s.356-.675.793-.8l.034-.009v-.172h-2.137Z" transform="translate(-29.454 -10.808)" fill="#0c2d83"/>
    <path id="패스_71242" data-name="패스 71242" d="M150.667,52.076v.177l.03.011a.768.768,0,0,1,.48.753v4.176a1.513,1.513,0,0,1-.424,1.132,1.968,1.968,0,0,1-1.265.465,1.945,1.945,0,0,1-1.263-.461A1.5,1.5,0,0,1,147.8,57.2V53.025a.767.767,0,0,1,.481-.753l.03-.011v-.18h-2.329v.181l.033.009a.8.8,0,0,1,.5.841v4.26c0,.026.052,2.476,2.976,2.476a3.108,3.108,0,0,0,2.33-.812,2.425,2.425,0,0,0,.647-1.67v-4.26a.8.8,0,0,1,.5-.841l.033-.009v-.181h-2.329Z" transform="translate(-31.457 -10.804)" fill="#0c2d83"/>
    <path id="패스_71243" data-name="패스 71243" d="M161,52.2h.045c.441,0,.514.5.516.518V57.04c-.154-.174-4.956-5.453-4.956-5.453l-.177-.015h-.046v6.687c0,1.016-.505,1.037-.526,1.038l-.045,0v.25h2.267V59.3h-.046a.364.364,0,0,1-.268-.108,1.16,1.16,0,0,1-.2-.709c0-.019,0-3.822,0-4.046l4.944,5.447.179.015h.049v-7c0-.669.5-.7.518-.7l.042,0v-.2H161Z" transform="translate(-33.588 -10.696)" fill="#0c2d83"/>
    <path id="패스_71244" data-name="패스 71244" d="M171.22,55.925l.044,0c.014,0,.395.037.509.607V58.45a3.423,3.423,0,0,1-1.8.286,2.827,2.827,0,0,1-2.4-2.773,3.364,3.364,0,0,1,.7-2.219,2.836,2.836,0,0,1,2.052-.9,3.159,3.159,0,0,1,1.936.662l.132.011h.046V52.036l-.059.019a2.233,2.233,0,0,1-1.053-.086,4.357,4.357,0,0,0-3.492.548,4.2,4.2,0,0,0-1.6,3.478,3.871,3.871,0,0,0,3.7,3.8,6.58,6.58,0,0,0,3.081-.612l.024-3.482H171.22Z" transform="translate(-35.848 -10.749)" fill="#0c2d83"/>
    <path id="패스_71245" data-name="패스 71245" d="M240.882,55.091c-1.519-.562-1.316-1.37-1.306-1.4.118-.837,1.132-.829,1.174-.829a1.707,1.707,0,0,1,1.394.607l.013.019.24,0,0-1.5-.058.016a2.849,2.849,0,0,1-1.027-.1,2.723,2.723,0,0,0-2.562.682,2.166,2.166,0,0,0-.363,1.988,3.231,3.231,0,0,0,1.839,1.6c1.234.508,1.183,1.315,1.183,1.322,0,1.25-1.346,1.3-1.406,1.306a2.087,2.087,0,0,1-1.64-.823l-.024-.038-.125.082c-.02.042.067,1.359.067,1.359.452.457,1.8.461,1.857.461a2.8,2.8,0,0,0,2.079-.862,2.256,2.256,0,0,0,.5-1.6c0-1.617-1.816-2.278-1.834-2.285" transform="translate(-51.45 -10.752)" fill="#0c2d83"/>
    <path id="패스_71246" data-name="패스 71246" d="M198.248,51.838a3.743,3.743,0,0,0-4,3.985,3.819,3.819,0,0,0,4,3.981,3.983,3.983,0,1,0,0-7.966m2.661,3.983a2.72,2.72,0,0,1-2.661,2.931c-1.652,0-2.638-1.094-2.638-2.929a2.622,2.622,0,0,1,2.638-2.932,2.561,2.561,0,0,1,1.861.712,3.041,3.041,0,0,1,.8,2.219" transform="translate(-41.919 -10.753)" fill="#0c2d83"/>
    <path id="패스_71247" data-name="패스 71247" d="M214.289,58.622l-1.667-7.012h-.2c-.038.026-2.32,5.086-2.645,5.81l-2.634-5.783-.2-.027h-.036l-1.572,7.012c-.139.638-.5.732-.516.736l-.038.007v.192h2.1v-.192l-.033-.007a.423.423,0,0,1-.327-.442.8.8,0,0,1,.009-.109s.671-3.434.8-4.1c.113.246,2.343,5.059,2.343,5.059l.225.024c.036-.024,1.936-4.3,2.282-5.076.051.264.8,4.017.8,4.017a1.166,1.166,0,0,1,.024.214.415.415,0,0,1-.087.285.259.259,0,0,1-.2.085l-.048,0v.242h2.155v-.192a1.209,1.209,0,0,1-.536-.743" transform="translate(-44.203 -10.704)" fill="#0c2d83"/>
    <path id="패스_71248" data-name="패스 71248" d="M230.373,52.121h.043c.447,0,.52.5.522.522v4.364c-.157-.17-5-5.5-5-5.5l-.18-.016h-.045v6.742c0,1.027-.508,1.049-.529,1.049l-.046,0v.253h2.285v-.255h-.045a.351.351,0,0,1-.269-.111,1.148,1.148,0,0,1-.207-.712V54.38c.157.17,4.986,5.491,4.986,5.491l.183.014h.046V52.831c0-.675.5-.71.521-.712l.045,0v-.2h-2.312Z" transform="translate(-48.616 -10.679)" fill="#0c2d83"/>
    <path id="패스_71249" data-name="패스 71249" d="M191.382,52.2v-.227h-2.046v.19l.04.007a.381.381,0,0,1,.239.148.338.338,0,0,1,.052.192.662.662,0,0,1-.023.164s-1.335,3.669-1.546,4.246c-.082-.222-1.921-5.146-1.921-5.146h-.217s-1.866,4.932-1.951,5.152c-.081-.22-1.5-4.121-1.5-4.121a.872.872,0,0,1-.078-.324.334.334,0,0,1,.039-.166.308.308,0,0,1,.258-.131l.042,0v-.192h-2.213v.194h.049s.3.019.641.972l2.515,6.766h.276l1.967-5.17c.082.22,1.924,5.17,1.924,5.17h.231l2.621-6.976c.074-.209.316-.746.552-.746Z" transform="translate(-38.952 -10.74)" fill="#0c2d83"/>
    <path id="패스_71250" data-name="패스 71250" d="M222.09,58.633h-1.762c-.012,0-.341-.005-.341-.308V56.106h1.723s.617.046.757.515l.01.033h.241V54.575h-.208a.985.985,0,0,1-.853.558h-1.671c0-.085-.009-1.982-.009-2.066h2.145a.6.6,0,0,1,.54.429l.01.031h.208V52.019h-4.728v.195l.039,0c.005,0,.5.079.5,1.113V58.4c0,.013.045.921-.505,1.028l-.035.009v.214h4.667l.219-1.552h-.193c-.052.046-.255.534-.758.534" transform="translate(-47.102 -10.792)" fill="#0c2d83"/>
    <path id="패스_71251" data-name="패스 71251" d="M235.82,52.05l.128,3.169h.779l.187-3.169H235.82Z" transform="translate(-50.931 -10.799)" fill="#0c2d83"/>
    <path id="패스_71252" data-name="패스 71252" d="M301.529,55.021c-1.53-.567-1.324-1.38-1.317-1.414.12-.842,1.143-.834,1.186-.834a1.732,1.732,0,0,1,1.405.611l.013.02h.24v-1.51l-.057.014a2.823,2.823,0,0,1-1.038-.1,2.734,2.734,0,0,0-2.577.687,2.177,2.177,0,0,0-.363,2,3.231,3.231,0,0,0,1.848,1.61c1.246.514,1.194,1.324,1.194,1.331,0,1.263-1.357,1.313-1.415,1.315A2.1,2.1,0,0,1,299,57.924l-.024-.039-.124.083c-.022.042.066,1.369.066,1.369.452.459,1.813.464,1.87.464a2.831,2.831,0,0,0,2.093-.869,2.273,2.273,0,0,0,.5-1.609c0-1.631-1.826-2.295-1.845-2.3" transform="translate(-64.592 -10.732)" fill="#0c2d83"/>
    <path id="패스_71253" data-name="패스 71253" d="M254.043,52.036v.18l.029.009a.778.778,0,0,1,.486.758V57.2a1.511,1.511,0,0,1-.428,1.143,1.97,1.97,0,0,1-2.551.006,1.525,1.525,0,0,1-.428-1.142V52.992a.773.773,0,0,1,.485-.76l.031-.011v-.178h-2.349v.178l.031.011a.808.808,0,0,1,.5.848v4.3c0,.025.052,2.5,3,2.5a3.116,3.116,0,0,0,2.35-.823,2.439,2.439,0,0,0,.654-1.684v-4.3a.808.808,0,0,1,.5-.849l.031-.011v-.181h-2.347Z" transform="translate(-53.857 -10.796)" fill="#0c2d83"/>
    <path id="패스_71254" data-name="패스 71254" d="M264.153,52.121h.045c.449,0,.522.5.522.523v4.364l-5-5.5-.179-.019H259.5v6.74c0,1.028-.51,1.069-.53,1.069l-.048,0v.231H261.2V59.3h-.044a.344.344,0,0,1-.265-.109,1.206,1.206,0,0,1-.209-.734V54.381l4.985,5.491.18.014h.047V52.833c0-.675.5-.709.522-.712l.045,0v-.2h-2.314Z" transform="translate(-55.939 -10.679)" fill="#0c2d83"/>
    <path id="패스_71255" data-name="패스 71255" d="M287.057,58.623H285.3c-.014,0-.341-.005-.341-.307v-2.21h1.719s.613.046.751.51l.009.034h.243V54.578h-.207a.988.988,0,0,1-.85.559h-1.665c0-.087-.011-1.973-.011-2.059h2.137a.6.6,0,0,1,.54.427l.01.034h.207V52.034h-4.709v.194l.039,0c.008,0,.5.079.5,1.11v5.05c0,.009.043.916-.5,1.021l-.038.009v.213h4.651L288,58.088h-.191c-.051.049-.253.534-.753.534" transform="translate(-61.187 -10.795)" fill="#0c2d83"/>
    <path id="패스_71256" data-name="패스 71256" d="M269.413,52.036v.2l.043,0c.019,0,.484.046.484.848v5.4c0,.009.039.757-.5.964l-.03.14v.048h2.362v-.183l-.038-.007c-.021,0-.5-.089-.5-.962V53.016a1.068,1.068,0,0,1,.2-.66.385.385,0,0,1,.287-.119h.046v-.2h-2.362Z" transform="translate(-58.213 -10.796)" fill="#0c2d83"/>
    <path id="패스_71257" data-name="패스 71257" d="M305.382,52.036v.2l.045,0c.017,0,.482.046.482.848v5.4c0,.009.04.757-.5.964l-.03.14v.048h2.361v-.183l-.037-.007c-.02,0-.5-.089-.5-.962V53.016a1.047,1.047,0,0,1,.2-.66.383.383,0,0,1,.286-.119h.045v-.2h-2.361Z" transform="translate(-66.01 -10.796)" fill="#0c2d83"/>
    <path id="패스_71258" data-name="패스 71258" d="M278.5,52.036v.2l.045,0a.28.28,0,0,1,.206.108.211.211,0,0,1,.035.126.544.544,0,0,1-.041.188s-1.78,4.145-2.065,4.813c-.081-.191-1.917-4.58-1.917-4.58a1.159,1.159,0,0,1-.078-.363.349.349,0,0,1,.048-.191.264.264,0,0,1,.242-.1h.042v-.2H272.7v.2l.047,0s.3,0,.724.961l3.067,6.76.251.026c.041-.026,3.341-7.377,3.341-7.377s.222-.371.467-.371h.045v-.2H278.5Z" transform="translate(-58.925 -10.796)" fill="#0c2d83"/>
    <path id="패스_71259" data-name="패스 71259" d="M296.265,59.222s-1.924-2.779-2.122-3.064a2.082,2.082,0,0,0,1.662-1.973s0-.016,0-.037a2.2,2.2,0,0,0-.572-1.467,2.4,2.4,0,0,0-1.8-.645h-3.286v.207l.053-.005a.358.358,0,0,1,.258.1,1,1,0,0,1,.229.749v5.457c0,.009.031.806-.474.9l-.037.005v.183h2.346v-.183l-.036-.005c-.02-.005-.472-.1-.472-.793v-5.6a1.1,1.1,0,0,1,.729-.173c.014,0,1.4-.005,1.668.975a1.55,1.55,0,0,1-.18,1.121,1.491,1.491,0,0,1-1.175.5h-.756v.2c.008.024,2.287,3.493,2.287,3.493a1.735,1.735,0,0,0,.673.562l1.009,0a.772.772,0,0,0,.415-.122l.014-.139V59.4l-.063.024s-.17.067-.376-.207" transform="translate(-62.708 -10.796)" fill="#0c2d83"/>
    <path id="패스_71260" data-name="패스 71260" d="M314.147,52.036h-5.023l-.125.547v.951h.131c.044-.028.361-.542.826-.542H311v5.527c0,.158-.031.747-.495.927l-.03.14v.048h2.36v-.183l-.038-.007c-.02,0-.5-.089-.5-.962v-5.49h1.014a1.087,1.087,0,0,1,.788.52l.128.023h.044v-.941c0-.01-.116-.522-.116-.522Z" transform="translate(-66.794 -10.796)" fill="#0c2d83"/>
    <path id="패스_71261" data-name="패스 71261" d="M322.572,52.036H320.48v.2l.04.005a.184.184,0,0,1,.144.085.241.241,0,0,1,.018.1.841.841,0,0,1-.11.355s-1.214,2.114-1.285,2.243c-.076-.129-1.47-2.48-1.47-2.48a.323.323,0,0,1-.049-.148.11.11,0,0,1,.018-.064c.05-.081.212-.094.269-.092l.048,0v-.2h-2.273v.2h.046c.293,0,.505.334.508.338l2.136,3.589-.006,2.317c0,.009.038.757-.5.964l-.031.14v.048h2.359v-.183l-.038-.007c-.02,0-.5-.089-.5-.962V56.141c.007,0,2.082-3.363,2.082-3.363a1,1,0,0,1,.681-.54l.044,0v-.2Z" transform="translate(-68.274 -10.796)" fill="#0c2d83"/>
  </g>
</svg>
