<svg id="그룹_37491" data-name="그룹 37491" xmlns="http://www.w3.org/2000/svg" xmlns:xlink="http://www.w3.org/1999/xlink" width="120.222" height="36.868" viewBox="0 0 120.222 36.868">
  <defs>
    <clipPath id="clip-path">
      <rect id="사각형_11924" data-name="사각형 11924" width="120.222" height="36.868" fill="none"/>
    </clipPath>
  </defs>
  <g id="그룹_37490" data-name="그룹 37490" transform="translate(0 0)" clip-path="url(#clip-path)">
    <path id="패스_71053" data-name="패스 71053" d="M152.718,15.145V19H151.7V15.145h-2.618v.305h0c.264,0,.509.449.509.924v8.3h-5.4V17.25h3.6V15.493h-6.365v.313h0c.26,0,.511.445.511.918v9.7H149.6v2.782H151.7V20.738h1.015v8.469h2.26V15.145h-2.26Z" transform="translate(-67.477 -7.184)" fill="#464545"/>
    <path id="패스_71054" data-name="패스 71054" d="M215.426,27.1V15.86h-11.08v1.753h8.818V27.1h-1.8V22.158h-2.156V27.1h-1.219V22.158h-2.518v.312h.005c.263,0,.51.443.51.919V27.1H203.6v1.758h13.194V27.1Z" transform="translate(-97.139 -7.526)" fill="#464545"/>
    <path id="패스_71055" data-name="패스 71055" d="M131.585,15.145V29.206h2.26V15.145h-2.26Z" transform="translate(-62.781 -7.184)" fill="#464545"/>
    <path id="패스_71056" data-name="패스 71056" d="M123.211,15.145v.305h0c.258,0,.511.449.511.924V19h-2.247v1.736h2.247v8.469h2.115V15.145h-2.63Z" transform="translate(-57.959 -7.184)" fill="#464545"/>
    <path id="패스_71057" data-name="패스 71057" d="M113.21,21.48l-.12-.092.027-.061a11.46,11.46,0,0,0,1.38-5.521V15.8h-3.27v.314l0,0c.029,0,.715.163.715,1.309a10.663,10.663,0,0,1-3.672,7.3c.1.1.967.925,1.043,1l.007,0a10.966,10.966,0,0,0,2.817-2.847l.048-.065.064.052a14.312,14.312,0,0,1,2.924,3.315c.132-.179,1.178-1.634,1.236-1.723a17.464,17.464,0,0,0-3.2-2.967" transform="translate(-51.658 -7.497)" fill="#464545"/>
    <path id="패스_71058" data-name="패스 71058" d="M175.076,34.625h9.434v3.036h2.261V32.868h-11.7Z" transform="translate(-83.531 -15.651)" fill="#464545"/>
    <path id="패스_71059" data-name="패스 71059" d="M194.913,15.116h-2.774v.31h0c.264,0,.511.449.511.921v6.84h2.262V20.71h2.218V18.977h-2.218Z" transform="translate(-91.672 -7.17)" fill="#464545"/>
    <path id="패스_71060" data-name="패스 71060" d="M177.17,21.181a1.94,1.94,0,0,1-1.782-2.068,1.8,1.8,0,1,1,3.562,0,1.944,1.944,0,0,1-1.78,2.068m-4.01-1.959a4.056,4.056,0,0,0,8.016,0,3.231,3.231,0,0,0-1.356-2.566h1.827V14.9h-3.16V13.712h-2.769v.307h0c.226,0,.453.369.491.8l.007.086h-3.374v1.753h1.672a3.234,3.234,0,0,0-1.358,2.566" transform="translate(-82.467 -6.499)" fill="#464545"/>
    <path id="패스_71061" data-name="패스 71061" d="M85.881,33.134h-2.77v.31c.261,0,.514.446.514.917v3.334h10.78V35.941H85.881Z" transform="translate(-39.653 -15.779)" fill="#464545"/>
    <path id="패스_71062" data-name="패스 71062" d="M82,19.389a2,2,0,1,1,3.94,0,2,2,0,1,1-3.94,0m8.359-.731v1.22H88.167A3.866,3.866,0,0,0,88.2,19.4a3.587,3.587,0,0,0-.078-.737Zm-2.909,2.973h2.909v3.66h2.258V15.138H89.842v.306h0c.262,0,.511.453.511.922v.545H87.244a4.365,4.365,0,0,0-3.28-1.444,4.093,4.093,0,0,0-4.23,3.929,4.091,4.091,0,0,0,4.23,3.928,4.332,4.332,0,0,0,3.481-1.693" transform="translate(-38.042 -7.181)" fill="#464545"/>
    <path id="패스_71063" data-name="패스 71063" d="M94.2,53.954c-1.189,0-2.021-1.012-2.021-2.465,0-1.79,1.008-2.057,1.608-2.057,1.134,0,1.925.986,1.925,2.4,0,1.917-1.057,2.125-1.512,2.125m-.219-4.971A2.67,2.67,0,0,0,91.123,51.7a2.639,2.639,0,0,0,2.794,2.718,2.731,2.731,0,0,0,2.871-2.838,2.51,2.51,0,0,0-2.8-2.6" transform="translate(-43.476 -23.351)" fill="#464545"/>
    <path id="패스_71064" data-name="패스 71064" d="M118.061,50.31h-.295a.912.912,0,0,0-.162-.583.794.794,0,0,0-.69-.308c-.453,0-.745.249-.745.636,0,.264.107.48.694.926l.19.141c.837.651,1.134,1.114,1.134,1.777a1.432,1.432,0,0,1-.664,1.231,2.412,2.412,0,0,1-2.289,0v-1.3h.272s.055.388.092.5a.881.881,0,0,0,.907.64.768.768,0,0,0,.849-.711c0-.324-.11-.622-.643-1.035l-.311-.243a2.09,2.09,0,0,1-1.029-1.654c0-.79.661-1.342,1.629-1.342a1.843,1.843,0,0,1,1.059.2Z" transform="translate(-54.98 -23.351)" fill="#464545"/>
    <path id="패스_71065" data-name="패스 71065" d="M200.043,50.31h-.292a.905.905,0,0,0-.164-.583.8.8,0,0,0-.69-.308c-.452,0-.746.249-.746.636,0,.264.108.48.7.926l.19.141c.84.651,1.137,1.114,1.137,1.777a1.437,1.437,0,0,1-.669,1.231,2.4,2.4,0,0,1-2.285,0v-1.3h.268s.055.388.094.5a.883.883,0,0,0,.908.64.768.768,0,0,0,.848-.711c0-.324-.109-.622-.643-1.035l-.312-.243a2.092,2.092,0,0,1-1.027-1.654c0-.79.661-1.342,1.63-1.342a1.828,1.828,0,0,1,1.057.2Z" transform="translate(-94.096 -23.351)" fill="#464545"/>
    <path id="패스_71066" data-name="패스 71066" d="M125.444,49.634c.465,0,.482.255.482.606h.241V49.169h-3.376v.24h.156c.23,0,.52.069.52.46v3.765c0,.5-.142.539-.461.537h-.113v.239h3.448V53.255h-.249c0,.513-.2.692-.557.692h-1.08V51.852h1.005c.349,0,.357.116.357.474h.243V50.912h-.243c0,.361-.008.476-.357.476h-1.005V49.634Z" transform="translate(-58.585 -23.44)" fill="#464545"/>
    <path id="패스_71067" data-name="패스 71067" d="M181.957,49.634c.465,0,.483.255.483.606h.242V49.169H179.3v.24h.155c.233,0,.522.069.522.46,0,.487,0,3.765,0,3.765,0,.5-.147.539-.464.537h-.112v.239h3.446V53.255h-.248c0,.513-.2.692-.557.692h-1.081V51.852h1.008c.344,0,.354.116.354.474h.241V50.912h-.241c0,.361-.01.476-.354.476h-1.008V49.634Z" transform="translate(-85.548 -23.44)" fill="#464545"/>
    <path id="패스_71068" data-name="패스 71068" d="M133.91,54.172c-.269,0-.5-.04-.5-.347V49.764c0-.338.16-.356.575-.356v-.239H131.84v.24h.124c.172,0,.467.047.467.355v4.062c0,.336-.174.345-.591.345v.239h2.312v-.238Z" transform="translate(-62.902 -23.44)" fill="#464545"/>
    <path id="패스_71069" data-name="패스 71069" d="M166.408,54.172c-.267,0-.5-.04-.5-.347V49.764c0-.338.159-.356.576-.356v-.239h-2.14v.24h.122c.173,0,.466.047.466.355v4.062c0,.336-.175.345-.588.345v.239h2.309v-.238Z" transform="translate(-78.409 -23.44)" fill="#464545"/>
    <path id="패스_71070" data-name="패스 71070" d="M206.037,54.172c-.27,0-.5-.04-.5-.347V49.764c0-.338.161-.356.576-.356v-.239h-2.14v.24h.121c.175,0,.467.047.467.355v4.062c0,.336-.174.345-.589.345v.239h2.31v-.238Z" transform="translate(-97.316 -23.44)" fill="#464545"/>
    <path id="패스_71071" data-name="패스 71071" d="M83.2,49.409l.112,0v-.239H81.359v.239a1.012,1.012,0,0,1,.435.086,1.635,1.635,0,0,1,.448.474c.24.357,1.143,1.84,1.186,1.941a1.355,1.355,0,0,1,.15.685v1.141c0,.435-.237.435-.574.435v.243h2.3v-.242h-.168c-.315,0-.576-.026-.576-.453V52.594a1.565,1.565,0,0,1,.1-.654A21.742,21.742,0,0,1,85.941,49.8a1.015,1.015,0,0,1,.344-.314.543.543,0,0,1,.272-.08h.188v-.239H85.018v.239h.177c.074,0,.1.054.1.115a.817.817,0,0,1-.1.331c-.047.1-.966,1.756-.966,1.756s-1.015-1.756-1.091-1.919l-.074-.2.044-.062Z" transform="translate(-38.817 -23.44)" fill="#464545"/>
    <path id="패스_71072" data-name="패스 71072" d="M220.325,49.409l.112,0v-.239h-1.949v.239a1.012,1.012,0,0,1,.434.086,1.655,1.655,0,0,1,.446.474c.241.357,1.145,1.84,1.188,1.941a1.372,1.372,0,0,1,.151.685v1.141c0,.435-.239.435-.576.435v.243h2.3v-.242h-.17c-.315,0-.574-.026-.574-.453V52.594a1.589,1.589,0,0,1,.1-.654,21.857,21.857,0,0,1,1.287-2.137.988.988,0,0,1,.345-.314.543.543,0,0,1,.272-.08h.187l0-.239h-1.728v.239h.177a.1.1,0,0,1,.1.115.83.83,0,0,1-.1.331c-.047.1-.965,1.756-.965,1.756s-1.016-1.756-1.092-1.919l-.075-.2.048-.062Z" transform="translate(-104.243 -23.44)" fill="#464545"/>
    <path id="패스_71073" data-name="패스 71073" d="M104.72,54.171v.24h-1.94v-.24c.3,0,.619.024.619-.558V49.169h.326c.613.629,3.541,3.651,3.637,3.752v-3c0-.532-.424-.514-.686-.514v-.239h1.789v.239c-.284,0-.564-.018-.564.514v4.49h-.351l-3.612-3.686,0,2.888c0,.5.292.558.585.558Z" transform="translate(-49.037 -23.44)" fill="#464545"/>
    <path id="패스_71074" data-name="패스 71074" d="M154,54.171v.24h-1.939v-.24c.306,0,.617.024.617-.558V49.169H153c.613.629,3.543,3.651,3.636,3.752v-3c0-.532-.422-.514-.686-.514v-.239h1.789v.239c-.284,0-.565-.018-.565.514v4.49h-.349l-3.611-3.686v2.888c0,.5.292.558.586.558Z" transform="translate(-72.549 -23.44)" fill="#464545"/>
    <path id="패스_71075" data-name="패스 71075" d="M144.782,49.409c.173,0,.474.05.474.362v2.248a2.3,2.3,0,0,1-.38,1.65,1.307,1.307,0,0,1-.905.352,1.206,1.206,0,0,1-.818-.266c-.262-.218-.515-.567-.515-1.636V49.771c0-.34.165-.363.58-.363v-.239h-2.142v.24h.124c.173,0,.466.053.466.362v2.391A2.321,2.321,0,0,0,142.286,54a2.264,2.264,0,0,0,1.549.481,2.087,2.087,0,0,0,1.449-.5,2.6,2.6,0,0,0,.663-2.085V49.771c0-.338.166-.363.581-.363v-.239h-1.865v.24Z" transform="translate(-67.309 -23.44)" fill="#464545"/>
    <path id="패스_71076" data-name="패스 71076" d="M210.07,54.172v.238h2.313v-.24h-.2c-.284,0-.548-.025-.548-.349V49.64h1.029c.465,0,.52.253.568.6h.282l-.155-1.073H208.94l-.155,1.073h.279c.048-.349.1-.6.569-.6h1.028v4.188c0,.3-.132.344-.452.344Z" transform="translate(-99.614 -23.44)" fill="#464545"/>
    <path id="패스_71077" data-name="패스 71077" d="M190.225,51.758a.642.642,0,0,1-.454.106h-.483V49.6h.328c.364,0,.986.242.986,1.182a1.142,1.142,0,0,1-.377.978m2.584,2.4a1.321,1.321,0,0,1-.732-.447c-.347-.362-.742-.864-1.241-1.49l-.207-.256a1.942,1.942,0,0,0,.88-1.53,1.193,1.193,0,0,0-.482-.96,2.316,2.316,0,0,0-1.284-.308h-2.02v.24h.115c.169,0,.473.048.473.361v4.059c0,.3-.138.343-.463.343h-.127v.239h2.311v-.24h-.225c-.269,0-.518-.037-.518-.349V52.29h.616l.69.968a3.291,3.291,0,0,0,.952,1.013,1.42,1.42,0,0,0,.753.142h.7V54.18c-.131-.01-.186-.019-.186-.019" transform="translate(-89.563 -23.44)" fill="#464545"/>
    <path id="패스_71078" data-name="패스 71078" d="M174.446,49.411v-.238H172.7v.238h.2l.136.1a.865.865,0,0,1-.059.347s-1.176,3-1.237,3.156c-.052-.129-1.252-3.319-1.252-3.319l-.034-.188a.163.163,0,0,1,.147-.1h.2v-.237H168.81v.237a.905.905,0,0,1,.412.091,1,1,0,0,1,.312.475l1.878,4.5h.222l2.073-4.663s.186-.4.546-.4Z" transform="translate(-80.541 -23.442)" fill="#464545"/>
    <path id="패스_71079" data-name="패스 71079" d="M0,18.406A18.433,18.433,0,1,0,18.429,0,18.44,18.44,0,0,0,0,18.406" transform="translate(0 0.052)" fill="#fff"/>
    <path id="패스_71080" data-name="패스 71080" d="M1.044,18.9A17.888,17.888,0,1,1,18.93,36.77,17.9,17.9,0,0,1,1.044,18.9" transform="translate(-0.498 -0.443)" fill="#002a5f"/>
    <path id="패스_71081" data-name="패스 71081" d="M23.355,36.358A13.019,13.019,0,1,1,36.394,23.34,13.027,13.027,0,0,1,23.355,36.358" transform="translate(-4.924 -4.878)" fill="#fff"/>
    <path id="패스_71082" data-name="패스 71082" d="M6.417,42.885a.5.5,0,1,0,.5-.5.5.5,0,0,0-.5.5" transform="translate(-3.062 -20.198)" fill="#fff"/>
    <path id="패스_71083" data-name="패스 71083" d="M63.514,43.013A.509.509,0,1,1,63,42.5a.509.509,0,0,1,.509.511" transform="translate(-29.818 -20.254)" fill="#fff"/>
    <path id="패스_71084" data-name="패스 71084" d="M6.959,25.274a1.078,1.078,0,0,1-1.468.588c-.849-.268-.822-.785-.734-1.069a.861.861,0,0,1,.433-.513,1.3,1.3,0,0,1,.989-.036,1.181,1.181,0,0,1,.74.516.675.675,0,0,1,.04.515M6.22,23.708a1.236,1.236,0,0,0-.968.052,1.439,1.439,0,0,0-.672.876,1.417,1.417,0,0,0,.056,1.092,1.357,1.357,0,0,0,.8.656,1.3,1.3,0,0,0,1.691-.908,1.345,1.345,0,0,0-.9-1.769" transform="translate(-2.147 -11.24)" fill="#fff"/>
    <path id="패스_71085" data-name="패스 71085" d="M13.184,15.053l-.466-.444.092-.095.212.137a.432.432,0,0,0,.538-.107A.38.38,0,0,0,13.6,14a.617.617,0,0,0-.591-.124l-.194.028a1.032,1.032,0,0,1-.943-.2.709.709,0,0,1,.075-1.04c.278-.29.433-.311.433-.311l.4.386-.1.1a.408.408,0,0,0-.265-.14.4.4,0,0,0-.349.14.324.324,0,0,0-.025.485c.094.088.208.124.568.067l.116-.019a1.079,1.079,0,0,1,1.024.2.708.708,0,0,1,.211.659.957.957,0,0,1-.275.495.985.985,0,0,1-.506.321" transform="translate(-5.571 -5.85)" fill="#fff"/>
    <path id="패스_71086" data-name="패스 71086" d="M56.829,17.647l.533-.365.075.112-.182.179a.43.43,0,0,0-.006.546.379.379,0,0,0,.526.15c.133-.091.225-.218.245-.551l.012-.193a1.037,1.037,0,0,1,.39-.882.711.711,0,0,1,1,.29.9.9,0,0,1,.214.487l-.462.314-.082-.119a.405.405,0,0,0,.193-.231.392.392,0,0,0-.065-.367.323.323,0,0,0-.467-.128c-.109.076-.168.18-.186.543l-.006.118c-.032.523-.139.774-.41.959a.71.71,0,0,1-.689.07,1.185,1.185,0,0,1-.635-.934" transform="translate(-27.112 -7.847)" fill="#fff"/>
    <path id="패스_71087" data-name="패스 71087" d="M16.624,9.908c.136-.1.175-.059.282.085L17,9.92l-.417-.559-.1.072c.105.142.138.19,0,.293l-.4.3-.522-.694.394-.292c.183-.136.266-.044.369.1l.1-.072-.317-.426-1.338,1,.072.1c.089-.068.258-.214.4-.022L16.362,11.2c.167.222.085.26-.073.377l.079.1,1.366-1.019-.347-.46-.1.072c.153.2.124.335-.016.44-.092.069-.429.319-.429.319l-.619-.827,0,0Z" transform="translate(-7.048 -4.074)" fill="#fff"/>
    <path id="패스_71088" data-name="패스 71088" d="M50.713,9.665c.142.095.113.144.013.29l.1.072.39-.584-.1-.067c-.1.148-.134.194-.276.1L50.427,9.2l.483-.72s.321.216.407.273c.189.128.128.236.03.38l.1.068.3-.439-1.387-.929-.068.1c.094.063.286.172.153.373S49.4,9.849,49.4,9.849c-.155.231-.216.165-.38.056l-.074.108,1.419.948.319-.478-.1-.07c-.142.212-.275.229-.419.133l-.444-.3.577-.859v0Z" transform="translate(-23.354 -3.688)" fill="#fff"/>
    <path id="패스_71089" data-name="패스 71089" d="M20.314,6.854c-.074-.148,0-.19.179-.284l-.056-.109-.944.483.056.108s.239-.169.339.022L20.8,8.861c.078.146,0,.192-.179.286l.056.107L21.7,8.732l-.054-.107c-.152.079-.317.191-.407.014s-.921-1.784-.921-1.784" transform="translate(-9.3 -3.035)" fill="#fff"/>
    <path id="패스_71090" data-name="패스 71090" d="M29.115,4.754l-.207-1.032c-.031-.164.045-.183.247-.225l-.025-.118-.9.181.024.117s.277-.1.32.112l.219,1.092a1.127,1.127,0,0,1-.023.836.648.648,0,0,1-.4.262.614.614,0,0,1-.425-.054c-.147-.077-.3-.224-.405-.743L27.3,4.043c-.031-.161.045-.183.25-.225L27.526,3.7l-1.039.207.022.118s.279-.1.322.113L27.065,5.3a1.145,1.145,0,0,0,.479.832,1.118,1.118,0,0,0,.8.086,1.031,1.031,0,0,0,.653-.386,1.283,1.283,0,0,0,.12-1.076" transform="translate(-12.637 -1.563)" fill="#fff"/>
    <path id="패스_71091" data-name="패스 71091" d="M41.865,4.368c.039-.164.119-.15.318-.1l.027-.118-1.033-.24-.025.118s.291.024.244.235l-.453,1.956c-.037.161-.122.147-.322.1l-.028.118,1.114.257.028-.115c-.168-.038-.365-.061-.321-.252s.452-1.956.452-1.956" transform="translate(-19.367 -1.814)" fill="#fff"/>
    <path id="패스_71092" data-name="패스 71092" d="M61.5,21.18c.15-.074.19,0,.28.179l.108-.052-.465-.951-.109.054s.168.241-.028.337l-1.8.887c-.151.072-.192,0-.283-.187l-.109.054.5,1.024.107-.052c-.075-.153-.183-.32-.006-.406l1.8-.886" transform="translate(-28.193 -9.674)" fill="#fff"/>
    <path id="패스_71093" data-name="패스 71093" d="M63.228,24.276l-.53.076.039.133c.175-.027.3-.037.367.184.013.041.037.122.146.49-.3.086-1.991.586-1.991.586-.16.048-.188-.034-.245-.231l-.118.033.325,1.1.115-.032c-.048-.166-.129-.349.061-.4l1.99-.588c.109.367.133.449.146.486.064.222-.047.283-.21.355l.041.133.486-.221Z" transform="translate(-29.054 -11.546)" fill="#fff"/>
    <path id="패스_71094" data-name="패스 71094" d="M55.174,12.737a.557.557,0,0,1-.474.211c-.066-.009-.1-.029-.195-.12l-.17-.168.789-.8.115.115a.507.507,0,0,1-.064.759m.6-.31a1.116,1.116,0,0,0-.347-.554l-.712-.7-.083.088s.237.173.085.327l-1.415,1.426c-.117.118-.181.061-.328-.083l-.084.088.813.8.083-.081c-.122-.121-.279-.244-.139-.384l.535-.542.218.215-.1.58a1.616,1.616,0,0,0-.018.687.731.731,0,0,0,.216.311l.246.24.077-.078-.057-.07a.651.651,0,0,1-.1-.412c.006-.249.04-.56.082-.957l.02-.161a.963.963,0,0,0,.841-.232.589.589,0,0,0,.164-.5" transform="translate(-25.236 -5.285)" fill="#fff"/>
    <path id="패스_71095" data-name="패스 71095" d="M4.983,30.911a.8.8,0,0,1-.319-.075,10.888,10.888,0,0,1-1-.731.486.486,0,0,1-.142-.181L3.5,29.787l.008-.093-.119-.013-.081.85.125.011.008-.088.059-.04.157.06.822.552s-.911.423-1,.452l-.1.027-.028-.026,0-.019,0-.075-.119-.014-.087.961.118.01a.491.491,0,0,1,.061-.211.793.793,0,0,1,.254-.2c.188-.1.96-.48,1.011-.5a.715.715,0,0,1,.346-.044l.563.054c.216.018.21.137.2.3l.112.01.1-1.131L5.8,30.619c-.018.187-.018.367-.266.344l-.553-.052" transform="translate(-1.502 -14.129)" fill="#fff"/>
    <path id="패스_71096" data-name="패스 71096" d="M63.011,31.456a.731.731,0,0,1,.325.017A10.694,10.694,0,0,1,64.452,32a.486.486,0,0,1,.173.155l.05.131.009.092.12-.014-.083-.847-.125.011.011.087-.05.051a.428.428,0,0,1-.166-.026l-.912-.391s.817-.587.895-.631l.1-.046.033.02.005.016.013.08.118-.013-.1-.957-.118.011a.5.5,0,0,1-.021.219.761.761,0,0,1-.211.242c-.165.135-.852.651-.9.677a.7.7,0,0,1-.332.107l-.561.054c-.216.024-.234-.1-.249-.261l-.113.011.112,1.13.109-.012c-.019-.189-.052-.365.2-.385l.554-.056" transform="translate(-29.599 -14.147)" fill="#fff"/>
    <path id="패스_71097" data-name="패스 71097" d="M10.223,17.841l-.089.148-2.493.56,1.217.751c.258.159.345-.042.434-.185l.1.064-.5.814-.105-.064c.079-.129.175-.252-.07-.4L6.845,18.372l.085-.137,2.527-.553L8.192,16.9c-.224-.137-.323.045-.393.157l-.1-.064.466-.753.1.066c-.073.12-.158.229.066.368l1.891,1.165" transform="translate(-3.266 -7.708)" fill="#fff"/>
    <path id="패스_71098" data-name="패스 71098" d="M36.106,5.923l-.173-.011L34.263,3.984l-.087,1.427c-.019.3.2.286.369.294l-.008.122-.959-.056.006-.125c.153.011.306.036.324-.251S34.04,3.2,34.04,3.2l.159.011c.284.327,1.64,1.908,1.685,1.96,0,0,.074-1.216.089-1.48s-.192-.264-.322-.272l.006-.12.885.053-.009.124c-.141-.009-.277-.031-.294.231s-.133,2.216-.133,2.216" transform="translate(-16.02 -1.477)" fill="#fff"/>
    <path id="패스_71099" data-name="패스 71099" d="M47.915,6.055l.029-.12L47.171,5.6l-.049.113.09.038.047.067-.1.148-.721.724-.465.461c0-.066.047-.993.068-1.4l.019-.354.024-.093.083-.009.09.04.048-.113-.9-.392-.048.108a.466.466,0,0,1,.171.12.527.527,0,0,1,.047.278l-.039,2.411.1.045,1.369-1.262.492-.445a.338.338,0,0,1,.326-.068Z" transform="translate(-21.643 -2.256)" fill="#fff"/>
    <path id="패스_71100" data-name="패스 71100" d="M34.745,62.126v.792h-.21v-.792H34v.064c.053,0,.1.093.1.19v1.708H32.989v-1.53h.738V62.2H32.419v.062c.054,0,.107.089.107.19v2H34.1v.572h.434V63.278h.21v1.743h.465V62.126Z" transform="translate(-15.467 -29.63)" fill="#fff"/>
    <path id="패스_71101" data-name="패스 71101" d="M57.874,52.41c-.371-.31-1.763-1.463-1.783-1.479h0l-1.456,1.752.277.231,1.162-1.4s1.169.97,1.5,1.249l-.224.276-.785-.651-.284.341.785.65-.153.183-.786-.65-.33.4.051.04c.035-.041.139-.021.212.04l.59.488-.333.4.28.231,1.735-2.088-.28-.233c-.006.011-.078.1-.179.22" transform="translate(-26.066 -24.282)" fill="#fff"/>
    <path id="패스_71102" data-name="패스 71102" d="M23.651,60.037l-1.21,2.633.422.193,1.212-2.631h0Z" transform="translate(-10.707 -28.632)" fill="#fff"/>
    <path id="패스_71103" data-name="패스 71103" d="M22.508,59.473l-.027.058h0c.048.022.056.127.015.216l-.225.488-.442-.2-.151.33.442.2-.73,1.584.372.172,1.214-2.63,0,0Z" transform="translate(-10.207 -28.363)" fill="#fff"/>
    <path id="패스_71104" data-name="패스 71104" d="M20.111,59.895l-.013-.028.009-.009a2.346,2.346,0,0,0,.734-.914l-.612-.281-.024.057c.005.006.119.093.02.307v0a2.206,2.206,0,0,1-1.317,1.048l.109.277h0a2.274,2.274,0,0,0,.773-.29l.013-.008.009.015a2.97,2.97,0,0,1,.261.871l.38-.215a3.628,3.628,0,0,0-.345-.831" transform="translate(-9.021 -27.976)" fill="#fff"/>
    <path id="패스_71105" data-name="패스 71105" d="M46.578,63.122l1.752-.838.267.562.422-.2-.427-.89L46.419,62.8Z" transform="translate(-22.147 -29.453)" fill="#fff"/>
    <path id="패스_71106" data-name="패스 71106" d="M48.522,58.461l-.513.246.026.057c.051-.024.136.038.177.125l.612,1.27.418-.2-.229-.475.411-.2-.14-.295-.41.2Z" transform="translate(-22.906 -27.879)" fill="#fff"/>
    <path id="패스_71107" data-name="패스 71107" d="M45.871,60.886a.422.422,0,1,1,.185-.555.415.415,0,0,1-.185.555m-.927-.022a.832.832,0,0,0,1.489-.715.685.685,0,0,0-.45-.36c.18-.086.3-.147.311-.151l-.155-.326-.588.283-.105-.221-.515.246.028.059v0c.043-.019.115.026.161.1l.01.014-.626.3.156.324c.01,0,.122-.057.283-.135a.694.694,0,0,0,0,.578" transform="translate(-21.234 -28.285)" fill="#fff"/>
    <path id="패스_71108" data-name="패스 71108" d="M10.35,53.755h0l-.376-.428-.048.041c.035.041,0,.14-.072.2l-.519.451,1.458,1.672.273-.237L9.913,54.136Z" transform="translate(-4.454 -25.426)" fill="#fff"/>
    <path id="패스_71109" data-name="패스 71109" d="M11.669,51.643a.433.433,0,1,1-.068.632.453.453,0,0,1,.068-.632m1.269,1.211-.19.164-.295-.338.071-.056.11-.119c.13.152.3.348.3.348m-.854-.046.391.45-.566.5.3.348,1.577-1.374-.375-.43-.048.042c.037.041,0,.14-.073.2l-.082.074s-.353-.4-.431-.492a.91.91,0,0,0-.223-.683.8.8,0,1,0-1.208,1.052.885.885,0,0,0,.734.314" transform="translate(-5.305 -24.376)" fill="#fff"/>
    <path id="패스_71110" data-name="패스 71110" d="M33.5,23.275a1.913,1.913,0,1,0,1.917,1.912A1.914,1.914,0,0,0,33.5,23.275" transform="translate(-15.069 -11.068)" fill="#002a5f"/>
    <path id="패스_71111" data-name="패스 71111" d="M26.4,48.99a19.385,19.385,0,0,0,4.63,2.918,19.271,19.271,0,0,0,4.63-2.92l-4.63-4.632Z" transform="translate(-12.595 -21.14)" fill="#002a5f"/>
    <path id="패스_71112" data-name="패스 71112" d="M26.655,24.674A3.736,3.736,0,1,1,30.4,20.937a3.741,3.741,0,0,1-3.745,3.737m9.422-1.031V17.255s-5.453.175-9.422-2.874c-3.97,3.049-9.421,2.874-9.421,2.874v6.387a17.438,17.438,0,0,0,.2,2.87,51.21,51.21,0,0,1,18.438,0,17.539,17.539,0,0,0,.2-2.87" transform="translate(-8.221 -6.819)" fill="#002a5f"/>
    <path id="패스_71113" data-name="패스 71113" d="M17.808,37.878c.041.2.087.4.139.593a13.535,13.535,0,0,0,2.847,5.514l6.137-6.14,6.136,6.14a13.583,13.583,0,0,0,2.848-5.514c.052-.2.1-.4.138-.593a50.645,50.645,0,0,0-18.244,0" transform="translate(-8.496 -17.65)" fill="#002a5f"/>
    <path id="패스_71114" data-name="패스 71114" d="M22.968,28.046h.882l.053-.055V26.186l-.053-.056h-.715a.222.222,0,0,0-.223.221v1.64Z" transform="translate(-10.932 -12.432)" fill="#fff"/>
    <path id="패스_71115" data-name="패스 71115" d="M20.634,28.046h.882l.055-.055v-1.64a.221.221,0,0,0-.221-.221h-.716l-.053.056v1.805Z" transform="translate(-9.819 -12.432)" fill="#fff"/>
    <path id="패스_71116" data-name="패스 71116" d="M22.776,26.729h-.186v1.793H21.476l0,.02a.214.214,0,0,1-.427,0l0-.02H19.931V26.729h-.186l-.057.055v1.9l.057.055h1.116a.454.454,0,0,0,.8,0h1.118l.056-.055v-1.9Z" transform="translate(-9.393 -12.718)" fill="#fff"/>
    <path id="패스_71117" data-name="패스 71117" d="M47.606,29.421h-.727l-.063.064L47.053,31a.128.128,0,0,0,.127.111H47.3L47.429,31l.238-1.52Z" transform="translate(-22.336 -14.005)" fill="#fff"/>
    <path id="패스_71118" data-name="패스 71118" d="M47.107,25.91c.188-.164.625-.641.577-.91-.048-.292-.861-.709-.908-1.027a.874.874,0,0,1,.107-.494l-.049-.011c-.017.011-.679.507-.683.849a.584.584,0,0,0,.256.419c.134.111.307.209.441.343A.534.534,0,0,1,47,25.3c.065.183-.122.476-.238.615H46.5a1.3,1.3,0,0,0,.267-.467c.108-.409-.916-.512-.762-1.13l-.043-.013c-.011.006-.406.391-.407.657,0,.23.466.444.687.756l0,.2H45.82s-.1-.013-.058.083l.113.352a.088.088,0,0,0,.088.047h1.344a.092.092,0,0,0,.09-.047l.118-.356c.03-.085-.065-.078-.065-.078Z" transform="translate(-21.733 -11.161)" fill="#fff"/>
    <path id="패스_71119" data-name="패스 71119" d="M31.342,51.229c-.067.048-.412.276-.424.283l-.031.048.038.045.034-.009.058-.025.144-.059.005.038v.536l-.005.412-.054.075-.141.01-.041.048.057.04.224,0h.169l.23,0,.056-.04-.042-.048-.117-.01-.051-.075-.009-.412v-.341l.009-.455v-.026l-.045-.063Z" transform="translate(-14.737 -24.411)" fill="#fff"/>
    <path id="패스_71120" data-name="패스 71120" d="M33.123,51.523a.183.183,0,0,1,.2-.193.18.18,0,0,1,.177.2.255.255,0,0,1-.153.247c-.164-.092-.222-.158-.222-.253m-.247.037a.4.4,0,0,0,.243.339.47.47,0,0,0-.315.408c0,.243.194.39.49.39a.462.462,0,0,0,.519-.434.493.493,0,0,0-.306-.413.39.39,0,0,0,.243-.34c0-.191-.162-.309-.4-.309-.345,0-.469.214-.469.358m.19.739a.381.381,0,0,1,.192-.327c.153.091.285.172.285.336a.232.232,0,0,1-.236.253.249.249,0,0,1-.242-.262" transform="translate(-15.651 -24.411)" fill="#fff"/>
    <path id="패스_71121" data-name="패스 71121" d="M35.566,51.523a.185.185,0,0,1,.2-.193.177.177,0,0,1,.175.2.253.253,0,0,1-.152.247c-.162-.092-.223-.158-.223-.253m-.245.037a.4.4,0,0,0,.242.339.471.471,0,0,0-.315.408c0,.243.2.39.494.39a.461.461,0,0,0,.516-.434.5.5,0,0,0-.307-.413.383.383,0,0,0,.241-.34c0-.191-.159-.309-.4-.309-.342,0-.466.214-.466.358m.191.739a.383.383,0,0,1,.19-.327c.156.091.286.172.286.336a.232.232,0,0,1-.234.253.25.25,0,0,1-.242-.262" transform="translate(-16.817 -24.411)" fill="#fff"/>
    <path id="패스_71122" data-name="패스 71122" d="M38.445,51.239l-.119.009h-.454l-.059.046-.045.488.058.066c.125.017.445.122.445.413a.277.277,0,0,1-.279.311.2.2,0,0,1-.225-.22l-.042-.057-.048.053-.006.211v.025l.048.1h0a.509.509,0,0,0,.186.033.567.567,0,0,0,.634-.545c0-.314-.311-.48-.61-.535l.021-.181h.313c.133,0,.133.041.133.076l.044.05.044-.04.026-.241-.043-.063Z" transform="translate(-17.973 -24.427)" fill="#fff"/>
    <path id="패스_71123" data-name="패스 71123" d="M23.518,44.713a14.56,14.56,0,0,0,1.506,1.513l4.63-4.634,4.629,4.633a14.412,14.412,0,0,0,1.507-1.512l-6.136-6.14Z" transform="translate(-11.221 -18.377)" fill="#fff"/>
    <path id="패스_71124" data-name="패스 71124" d="M26.842,36.009a51.132,51.132,0,0,0-9.219.836q.042.264.1.536a50.619,50.619,0,0,1,18.245,0q.053-.272.1-.536a51.143,51.143,0,0,0-9.219-.836" transform="translate(-8.408 -17.152)" fill="#fff"/>
    <path id="패스_71125" data-name="패스 71125" d="M31.832,25.432a1.913,1.913,0,1,1,1.917-1.913,1.915,1.915,0,0,1-1.917,1.913m3.748-1.915a3.746,3.746,0,1,0-3.745,3.737,3.74,3.74,0,0,0,3.745-3.737" transform="translate(-13.402 -9.399)" fill="#fff"/>
  </g>
</svg>
