<svg id="_1x9t0qY86xIGQ3jNUCYQzc7JSNCa2l4QuyUUdIvT5GSNBYtoSDfJXjw7KBJh6Zq2uZ-UffPMdc1B6uIl2I4Gkg" data-name="1x9t0qY86xIGQ3jNUCYQzc7JSNCa2l4QuyUUdIvT5GSNBYtoSDfJXjw7KBJh6Zq2uZ-UffPMdc1B6uIl2I4Gkg" xmlns="http://www.w3.org/2000/svg" width="143.457" height="30.219" viewBox="0 0 143.457 30.219">
  <path id="패스_15" data-name="패스 15" d="M0-96.852c0,1.649.913,2.906,3.177,2.906H15.734V-98.2H5.71c-.329,0-.493-.161-.493-.428v-3.548H14.7v-4.26H5.217v-3.437H15.734v-4.26H0Z" transform="translate(19.603 124.164)" fill="#81827e"/>
  <path id="패스_16" data-name="패스 16" d="M-51.979-55.042l8.305-9.824h-6.338l-6.028,7.13v-7.13h-5.217V-46.5c0,1.037.573,1.827,2,1.827h3.22V-51.5a11.612,11.612,0,0,1,7.262,6.827h5.239a16.668,16.668,0,0,0-8.442-10.368" transform="translate(61.256 74.893)" fill="#81827e"/>
  <path id="패스_17" data-name="패스 17" d="M0,0V18.366c0,1.036.574,1.827,2,1.827h3.22V0Z" transform="translate(39.113 10.026)" fill="#81827e"/>
  <path id="패스_18" data-name="패스 18" d="M-31.485-11.317A4.039,4.039,0,0,1-33.3-7.948,4.038,4.038,0,0,1-37.1-7.6v4.2a8.077,8.077,0,0,0,6.7-1.676,8.077,8.077,0,0,0,2.955-6.245,8.068,8.068,0,0,0-.264-2.02h-4.319a4.023,4.023,0,0,1,.545,2.02" transform="translate(90.92 19.373)" fill="#00b48d"/>
  <path id="패스_19" data-name="패스 19" d="M-22.628-45.256a4.039,4.039,0,0,1,1.811-3.37,4.039,4.039,0,0,1,3.81-.347v-4.2a8.077,8.077,0,0,0-6.7,1.675,8.077,8.077,0,0,0-2.955,6.245,8.068,8.068,0,0,0,.264,2.02h4.319a4.023,4.023,0,0,1-.545-2.02" transform="translate(74.002 53.333)" fill="#00a4e0"/>
  <path id="패스_20" data-name="패스 20" d="M-9.5-13.256v-2.366h-1.7v2.592c0,.817.577,1.371,1.574,1.371h4.889c.873,0,1.158-.4,1.158-.684v-.687H-9.288c-.223,0-.216-.1-.216-.226" transform="translate(80.344 34.524)" fill="#81827e"/>
  <path id="패스_21" data-name="패스 21" d="M-48.262,0H-56.2V1.369h6.223a13.407,13.407,0,0,1-.317,2.864h-6.585V5.6h3.852V7.539H-56.2V8.907h6.177v3.4h.688c.523,0,1.009-.228,1.009-1.186V7.539h-3V5.6h4.208V4.233h-1.485A21,21,0,0,0-48.262,0" transform="translate(136.004 10.718)" fill="#81827e"/>
  <path id="패스_22" data-name="패스 22" d="M-48.343,0h-7.848V1.368h6.152a33.2,33.2,0,0,1-.359,4.2h-6.572v1.37h3.945V12.31h.686c.523,0,1.009-.229,1.009-1.188V6.942h4.116V5.572h-1.544A37.954,37.954,0,0,0-48.343,0" transform="translate(180.292 10.715)" fill="#81827e"/>
  <path id="패스_23" data-name="패스 23" d="M-9.487,0h-1.693V9.433h.681c.527,0,1.012-.228,1.012-1.186V4.44h1.762V3.068H-9.487Z" transform="translate(86.013 10.289)" fill="#81827e"/>
  <path id="패스_24" data-name="패스 24" d="M-41.568-10.508h-1.986a10.091,10.091,0,0,0,.1-1.439h-5.277v1.369h3.584c0,1.794-1.507,3.677-3.835,4.781l.589,1.192c2.017-.907,3.783-2.146,4.545-4.533h2.285v1.253h-2.4v1.369h2.4v1.393h.686c.525,0,1.009-.228,1.009-1.189v-6.071h-1.7Z" transform="translate(150.691 22.675)" fill="#81827e"/>
  <path id="패스_25" data-name="패스 25" d="M-12.579-22.284a1.142,1.142,0,0,1,1.2-1.184,1.14,1.14,0,0,1,1.2,1.184,1.138,1.138,0,0,1-1.2,1.183,1.14,1.14,0,0,1-1.2-1.183m6.812-3.749h-1.7v6.77a5.713,5.713,0,0,1-1.9.325h-1.175v-.886a2.478,2.478,0,0,0,2.058-2.459A1.975,1.975,0,0,0-9.1-23.807h1.077v-1.369h-2.513v-1.085h-1.7v1.085h-2.514v1.369h1.1a1.965,1.965,0,0,0-.622,1.524,2.477,2.477,0,0,0,2.038,2.454v.891h-2.59v1.369h5.461a5.73,5.73,0,0,0,1.9-.264v1.758h.687c.527,0,1.012-.226,1.012-1.184v-4.332H-4v-1.372H-5.767Z" transform="translate(105.15 36.322)" fill="#81827e"/>
  <path id="패스_26" data-name="패스 26" d="M-9.487-14.409V-16.98h-1.693v2.8c0,.815.577,1.371,1.574,1.371h4.889c.875,0,1.157-.4,1.157-.686v-.685H-9.268c-.222,0-.219-.1-.219-.227" transform="translate(125.694 35.676)" fill="#81827e"/>
  <path id="패스_27" data-name="패스 27" d="M-12.068-49.105h1.7v-1.813h1.556a5.964,5.964,0,0,0,1.955-.276v1.024H-8.714V-48.8h1.852v1.173h.687c.524,0,1.01-.229,1.01-1.186V-57.87h-1.7v5.261a5.479,5.479,0,0,1-1.955.32h-5.405v1.37h2.154Z" transform="translate(148.391 68.156)" fill="#81827e"/>
  <path id="패스_28" data-name="패스 28" d="M-10.726-10.5c-.224,0-.216-.1-.216-.227v-1.647h-1.7V-10.5c0,.816.579,1.371,1.576,1.371h5.122c.875,0,1.158-.4,1.158-.686V-10.5Z" transform="translate(148.242 31.996)" fill="#81827e"/>
  <path id="패스_29" data-name="패스 29" d="M-10.72-10.5c-.224,0-.216-.1-.216-.227v-1.647h-1.7V-10.5c0,.816.578,1.371,1.574,1.371h5.122c.875,0,1.158-.4,1.158-.686V-10.5Z" transform="translate(104.395 31.996)" fill="#81827e"/>
  <path id="패스_30" data-name="패스 30" d="M-11.919-27.946a1.342,1.342,0,0,1,1.326-1.468,1.342,1.342,0,0,1,1.325,1.468,1.342,1.342,0,0,1-1.325,1.469,1.342,1.342,0,0,1-1.326-1.469m4.342,0a2.612,2.612,0,0,0-1.35-2.38h1.76v-1.369H-9.759v-1.239h-1.694v1.239h-2.593v1.369h1.784a2.612,2.612,0,0,0-1.35,2.38,2.808,2.808,0,0,0,3.019,2.838,2.806,2.806,0,0,0,3.016-2.838" transform="translate(81.528 43.161)" fill="#81827e"/>
  <path id="패스_31" data-name="패스 31" d="M-9.493-19.571c0-1.081.56-1.807,1.324-1.807s1.324.726,1.324,1.807-.558,1.806-1.324,1.806-1.324-.725-1.324-1.806m6.051-.763v1.5H-5.223a3.815,3.815,0,0,0,.069-.739,3.791,3.791,0,0,0-.072-.763ZM-5.78-17.539h2.338v3.63h.681c.527,0,1.01-.229,1.01-1.188v-7.968H-3.442v1.437H-5.8a2.913,2.913,0,0,0-2.373-1.121,2.968,2.968,0,0,0-3.018,3.177A2.968,2.968,0,0,0-8.169-16.4,2.908,2.908,0,0,0-5.78-17.539" transform="translate(123.653 33.354)" fill="#81827e"/>
  <path id="패스_32" data-name="패스 32" d="M-21.194-23.168c-1.207,0-2.086-.555-2.086-1.381s.879-1.384,2.086-1.384,2.084.556,2.084,1.384-.877,1.381-2.084,1.381m0-4.135c-2.187,0-3.783,1.1-3.783,2.752s1.6,2.749,3.783,2.749,3.778-1.1,3.778-2.749-1.6-2.752-3.778-2.752" transform="translate(128.231 44.951)" fill="#81827e"/>
  <path id="패스_33" data-name="패스 33" d="M-16.238-7.669a1.139,1.139,0,0,1,1.2,1.185,1.138,1.138,0,0,1-1.2,1.181,1.142,1.142,0,0,1-1.2-1.181,1.143,1.143,0,0,1,1.2-1.185m0,3.738a2.623,2.623,0,0,0,2.9-2.552,2.624,2.624,0,0,0-2.9-2.554,2.626,2.626,0,0,0-2.9,2.554,2.625,2.625,0,0,0,2.9,2.552" transform="translate(153.835 19.267)" fill="#81827e"/>
  <path id="패스_34" data-name="패스 34" d="M-11.5-22.451l-1.508-1.84v2.244h-.545v-4.411h.545v2.124l1.79-2.124h.616l-1.784,2.1,1.361,1.664a.47.47,0,0,0,.4.227.636.636,0,0,0,.121-.008v.44a1.413,1.413,0,0,1-.233.021.928.928,0,0,1-.765-.44" transform="translate(82.701 52.208)" fill="#81827e"/>
  <path id="패스_35" data-name="패스 35" d="M-13.8-9.992c0-.637-.177-1.36-.962-1.36s-.949.723-.949,1.36.17,1.351.956,1.351.955-.714.955-1.351m-2.463,0c0-.927.46-1.783,1.508-1.783s1.5.784,1.5,1.783c0,.927-.468,1.776-1.508,1.776s-1.5-.778-1.5-1.776" transform="translate(88.612 38.434)" fill="#81827e"/>
  <path id="패스_36" data-name="패스 36" d="M0-.315H.524V.046a1.079,1.079,0,0,1,.864-.418,1.412,1.412,0,0,1,.3.042V.159A1.452,1.452,0,0,0,1.331.109,1.037,1.037,0,0,0,.524.442V3.131H0Z" transform="translate(75.995 27.03)" fill="#81827e"/>
  <path id="패스_37" data-name="패스 37" d="M-3.172-7.652h1.714v-.036a.805.805,0,0,0-.765-.9c-.4,0-.835.17-.949.935m-.566.425c0-1.048.573-1.79,1.529-1.79s1.3.749,1.3,1.494c0,.086-.006.177-.014.262H-3.2v.014c0,.792.319,1.358,1.119,1.358A2.118,2.118,0,0,0-1.118-6.1v.446a2.593,2.593,0,0,1-.978.2,1.555,1.555,0,0,1-1.642-1.77" transform="translate(81.583 35.676)" fill="#81827e"/>
  <path id="패스_38" data-name="패스 38" d="M-8.965-10.784c-.673,0-1.047.191-1.047.632,0,.36.234.572.645.572a1.02,1.02,0,0,0,.707-.262v-.927c-.072-.007-.213-.014-.305-.014m.893,1.636A.531.531,0,0,1-8.6-9.515a1.248,1.248,0,0,1-.9.368.953.953,0,0,1-1.07-.956c0-.686.574-1.054,1.522-1.054.114,0,.276.008.383.014v-.384c0-.544-.227-.741-.765-.741a1.826,1.826,0,0,0-.843.212v-.461a2.434,2.434,0,0,1,.935-.19c.75,0,1.2.325,1.2,1.069v1.748c0,.227.114.305.284.305A1.085,1.085,0,0,0-7.726-9.6v.4a.908.908,0,0,1-.347.057" transform="translate(91.617 39.367)" fill="#81827e"/>
  <path id="패스_39" data-name="패스 39" d="M0,0H2.349V.455H.545V1.82H2.088v.446H.545V3.959h1.8v.452H0Z" transform="translate(86.019 25.751)" fill="#81827e"/>
  <path id="패스_40" data-name="패스 40" d="M0-.315H.524v.276a1.6,1.6,0,0,1,.955-.333C2.315-.372,2.6.151,2.6.852v2.28H2.075V.937c0-.537-.157-.869-.758-.869A1.509,1.509,0,0,0,.524.321v2.81H0Z" transform="translate(89.148 27.03)" fill="#81827e"/>
  <path id="패스_41" data-name="패스 41" d="M0,0H.552l.942,2.846L2.421,0h.523l-1.2,3.447H1.2Z" transform="translate(92.2 26.714)" fill="#81827e"/>
  <path id="패스_42" data-name="패스 42" d="M890.434-378.161h.523v3.447h-.523Zm-.1-1.048a.361.361,0,0,1,.36-.36.362.362,0,0,1,.361.36.363.363,0,0,1-.362.361.362.362,0,0,1-.36-.361" transform="translate(-794.741 404.876)" fill="#81827e"/>
  <path id="패스_43" data-name="패스 43" d="M0-.315H.524V.046a1.075,1.075,0,0,1,.863-.418,1.431,1.431,0,0,1,.3.042V.159A1.46,1.46,0,0,0,1.331.109,1.035,1.035,0,0,0,.524.442V3.131H0Z" transform="translate(97.182 27.03)" fill="#81827e"/>
  <path id="패스_44" data-name="패스 44" d="M-13.8-9.992c0-.637-.177-1.36-.962-1.36s-.949.723-.949,1.36.17,1.351.956,1.351.955-.714.955-1.351m-2.463,0c0-.927.46-1.783,1.508-1.783s1.5.784,1.5,1.783c0,.927-.468,1.776-1.508,1.776s-1.5-.778-1.5-1.776" transform="translate(115.295 38.434)" fill="#81827e"/>
  <path id="패스_45" data-name="패스 45" d="M0-.315H.524v.276A1.6,1.6,0,0,1,1.48-.372C2.315-.372,2.6.151,2.6.852v2.28H2.074V.937c0-.537-.156-.869-.758-.869A1.508,1.508,0,0,0,.524.321v2.81H0Z" transform="translate(102.691 27.03)" fill="#81827e"/>
  <path id="패스_46" data-name="패스 46" d="M0-.317H.524V-.04a1.658,1.658,0,0,1,.984-.333.962.962,0,0,1,.765.353A1.858,1.858,0,0,1,3.356-.373c.814,0,1.1.51,1.1,1.223V3.13H3.929V.935C3.929.427,3.8.066,3.18.066a1.758,1.758,0,0,0-.759.212,1.768,1.768,0,0,1,.072.487V3.13H1.969V.9c0-.594-.255-.834-.716-.834A1.432,1.432,0,0,0,.524.32V3.13H0Z" transform="translate(106.177 27.031)" fill="#81827e"/>
  <path id="패스_47" data-name="패스 47" d="M-3.172-7.652h1.713v-.036a.805.805,0,0,0-.764-.9c-.4,0-.835.17-.949.935m-.566.425c0-1.048.573-1.79,1.529-1.79s1.3.749,1.3,1.494c0,.086-.008.177-.014.262H-3.2v.014c0,.792.318,1.358,1.118,1.358A2.118,2.118,0,0,0-1.118-6.1v.446a2.593,2.593,0,0,1-.978.2,1.555,1.555,0,0,1-1.642-1.77" transform="translate(114.991 35.676)" fill="#81827e"/>
  <path id="패스_48" data-name="패스 48" d="M0-.315H.524v.276a1.6,1.6,0,0,1,.955-.333C2.315-.372,2.6.151,2.6.852v2.28H2.074V.937c0-.537-.156-.869-.758-.869A1.5,1.5,0,0,0,.524.321v2.81H0Z" transform="translate(114.715 27.03)" fill="#81827e"/>
  <path id="패스_49" data-name="패스 49" d="M0-5.162H.474l.1-.921H1v.921h.793v.4H1v2.074c0,.418.142.588.488.588a1.113,1.113,0,0,0,.426-.086v.432a1.7,1.7,0,0,1-.531.092c-.609,0-.907-.262-.907-.956V-4.758H0Z" transform="translate(117.748 31.877)" fill="#81827e"/>
  <path id="패스_50" data-name="패스 50" d="M1064.085-376.623h.552v4.41h-.552Z" transform="translate(-942.287 402.375)" fill="#81827e"/>
  <path id="패스_51" data-name="패스 51" d="M0-.315H.524v.276A1.6,1.6,0,0,1,1.48-.372C2.316-.372,2.6.151,2.6.853V3.131H2.074V.938c0-.537-.156-.87-.758-.87A1.508,1.508,0,0,0,.524.321v2.81H0Z" transform="translate(123.392 27.03)" fill="#81827e"/>
  <path id="패스_52" data-name="패스 52" d="M0-18.877v-.454a2.51,2.51,0,0,0,.927.213c.494,0,.758-.17.758-.559,0-.361-.227-.439-.751-.631s-.906-.439-.906-.984c0-.658.468-.955,1.154-.955a2.2,2.2,0,0,1,.843.156v.46a2.106,2.106,0,0,0-.827-.184c-.433,0-.658.17-.658.481,0,.291.19.418.629.566.482.163,1.049.376,1.049,1.055,0,.631-.489,1.027-1.211,1.027A2.536,2.536,0,0,1,0-18.877" transform="translate(126.622 48.905)" fill="#81827e"/>
  <path id="패스_53" data-name="패스 53" d="M0-5.157H.474l.1-.92H1v.92H1.79v.4H1v2.074c0,.418.142.588.488.588a1.085,1.085,0,0,0,.426-.086v.432a1.689,1.689,0,0,1-.531.092c-.609,0-.907-.262-.907-.955V-4.752H0Z" transform="translate(129.085 31.871)" fill="#81827e"/>
  <path id="패스_54" data-name="패스 54" d="M1128.151-378.161h.524v3.447h-.524Zm-.1-1.048a.362.362,0,0,1,.36-.36.362.362,0,0,1,.361.36.363.363,0,0,1-.361.361.362.362,0,0,1-.36-.361" transform="translate(-996.566 404.876)" fill="#81827e"/>
  <path id="패스_55" data-name="패스 55" d="M0-5.157H.475l.1-.92H1v.92h.792v.4H1v2.074c0,.418.141.588.487.588a1.085,1.085,0,0,0,.426-.086v.432a1.689,1.689,0,0,1-.531.092c-.608,0-.906-.262-.906-.955V-4.752H0Z" transform="translate(132.689 31.871)" fill="#81827e"/>
  <path id="패스_56" data-name="패스 56" d="M0-12.774v-2.28H.523v2.194c0,.54.157.872.759.872a1.509,1.509,0,0,0,.792-.255v-2.811H2.6v3.447H2.074v-.274a1.607,1.607,0,0,1-.956.332C.283-11.55,0-12.074,0-12.774" transform="translate(135.105 41.768)" fill="#81827e"/>
  <path id="패스_57" data-name="패스 57" d="M0-5.157H.474l.1-.92H1v.92h.793v.4H1v2.074c0,.418.142.588.489.588a1.084,1.084,0,0,0,.425-.086v.432a1.7,1.7,0,0,1-.531.092c-.609,0-.907-.262-.907-.955V-4.752H0Z" transform="translate(138.227 31.871)" fill="#81827e"/>
  <path id="패스_58" data-name="패스 58" d="M-3.178-7.652h1.714v-.036a.8.8,0,0,0-.766-.9c-.4,0-.835.17-.948.934m-.567.425c0-1.048.574-1.79,1.53-1.79s1.3.75,1.3,1.494c0,.086-.007.177-.013.262H-3.205v.014c0,.792.317,1.36,1.118,1.36A2.109,2.109,0,0,0-1.125-6.1v.446a2.579,2.579,0,0,1-.977.2,1.556,1.556,0,0,1-1.643-1.77" transform="translate(144.145 35.676)" fill="#81827e"/>
</svg>
